<?xml version="1.0" encoding="utf-8" standalone="no"?>
<!DOCTYPE svg PUBLIC "-//W3C//DTD SVG 1.1//EN"
  "http://www.w3.org/Graphics/SVG/1.1/DTD/svg11.dtd">
<svg xmlns:xlink="http://www.w3.org/1999/xlink" width="576pt" height="360pt" viewBox="0 0 576 360" xmlns="http://www.w3.org/2000/svg" version="1.1">
 <metadata>
  <rdf:RDF xmlns:dc="http://purl.org/dc/elements/1.1/" xmlns:cc="http://creativecommons.org/ns#" xmlns:rdf="http://www.w3.org/1999/02/22-rdf-syntax-ns#">
   <cc:Work>
    <dc:type rdf:resource="http://purl.org/dc/dcmitype/StillImage"/>
    <dc:date>2025-10-25T13:22:45.145035</dc:date>
    <dc:format>image/svg+xml</dc:format>
    <dc:creator>
     <cc:Agent>
      <dc:title>Matplotlib v3.10.5, https://matplotlib.org/</dc:title>
     </cc:Agent>
    </dc:creator>
   </cc:Work>
  </rdf:RDF>
 </metadata>
 <defs>
  <style type="text/css">*{stroke-linejoin: round; stroke-linecap: butt}</style>
 </defs>
 <g id="figure_1">
  <g id="patch_1">
   <path d="M 0 360 
L 576 360 
L 576 0 
L 0 0 
z
" style="fill: #ffffff"/>
  </g>
  <g id="axes_1">
   <g id="patch_2">
    <path d="M 47.72 318.04 
L 565.2 318.04 
L 565.2 41.856 
L 47.72 41.856 
z
" style="fill: #ffffff"/>
   </g>
   <g id="matplotlib.axis_1">
    <g id="xtick_1">
     <g id="line2d_1">
      <path d="M 71.241818 318.04 
L 71.241818 41.856 
" clip-path="url(#p6d87c50046)" style="fill: none; stroke: #b0b0b0; stroke-opacity: 0.3; stroke-width: 0.8; stroke-linecap: square"/>
     </g>
     <g id="line2d_2">
      <defs>
       <path id="mf3f980d67c" d="M 0 0 
L 0 3.5 
" style="stroke: #000000; stroke-width: 0.8"/>
      </defs>
      <g>
       <use xlink:href="#mf3f980d67c" x="71.241818" y="318.04" style="stroke: #000000; stroke-width: 0.8"/>
      </g>
     </g>
     <g id="text_1">
      <!-- 0 -->
      <g transform="translate(68.060568 332.638438) scale(0.1 -0.1)">
       <defs>
        <path id="DejaVuSans-30" d="M 2034 4250 
Q 1547 4250 1301 3770 
Q 1056 3291 1056 2328 
Q 1056 1369 1301 889 
Q 1547 409 2034 409 
Q 2525 409 2770 889 
Q 3016 1369 3016 2328 
Q 3016 3291 2770 3770 
Q 2525 4250 2034 4250 
z
M 2034 4750 
Q 2819 4750 3233 4129 
Q 3647 3509 3647 2328 
Q 3647 1150 3233 529 
Q 2819 -91 2034 -91 
Q 1250 -91 836 529 
Q 422 1150 422 2328 
Q 422 3509 836 4129 
Q 1250 4750 2034 4750 
z
" transform="scale(0.015625)"/>
       </defs>
       <use xlink:href="#DejaVuSans-30"/>
      </g>
     </g>
    </g>
    <g id="xtick_2">
     <g id="line2d_3">
      <path d="M 165.513215 318.04 
L 165.513215 41.856 
" clip-path="url(#p6d87c50046)" style="fill: none; stroke: #b0b0b0; stroke-opacity: 0.3; stroke-width: 0.8; stroke-linecap: square"/>
     </g>
     <g id="line2d_4">
      <g>
       <use xlink:href="#mf3f980d67c" x="165.513215" y="318.04" style="stroke: #000000; stroke-width: 0.8"/>
      </g>
     </g>
     <g id="text_2">
      <!-- 100 -->
      <g transform="translate(155.969465 332.638438) scale(0.1 -0.1)">
       <defs>
        <path id="DejaVuSans-31" d="M 794 531 
L 1825 531 
L 1825 4091 
L 703 3866 
L 703 4441 
L 1819 4666 
L 2450 4666 
L 2450 531 
L 3481 531 
L 3481 0 
L 794 0 
L 794 531 
z
" transform="scale(0.015625)"/>
       </defs>
       <use xlink:href="#DejaVuSans-31"/>
       <use xlink:href="#DejaVuSans-30" transform="translate(63.623047 0)"/>
       <use xlink:href="#DejaVuSans-30" transform="translate(127.246094 0)"/>
      </g>
     </g>
    </g>
    <g id="xtick_3">
     <g id="line2d_5">
      <path d="M 259.784611 318.04 
L 259.784611 41.856 
" clip-path="url(#p6d87c50046)" style="fill: none; stroke: #b0b0b0; stroke-opacity: 0.3; stroke-width: 0.8; stroke-linecap: square"/>
     </g>
     <g id="line2d_6">
      <g>
       <use xlink:href="#mf3f980d67c" x="259.784611" y="318.04" style="stroke: #000000; stroke-width: 0.8"/>
      </g>
     </g>
     <g id="text_3">
      <!-- 200 -->
      <g transform="translate(250.240861 332.638438) scale(0.1 -0.1)">
       <defs>
        <path id="DejaVuSans-32" d="M 1228 531 
L 3431 531 
L 3431 0 
L 469 0 
L 469 531 
Q 828 903 1448 1529 
Q 2069 2156 2228 2338 
Q 2531 2678 2651 2914 
Q 2772 3150 2772 3378 
Q 2772 3750 2511 3984 
Q 2250 4219 1831 4219 
Q 1534 4219 1204 4116 
Q 875 4013 500 3803 
L 500 4441 
Q 881 4594 1212 4672 
Q 1544 4750 1819 4750 
Q 2544 4750 2975 4387 
Q 3406 4025 3406 3419 
Q 3406 3131 3298 2873 
Q 3191 2616 2906 2266 
Q 2828 2175 2409 1742 
Q 1991 1309 1228 531 
z
" transform="scale(0.015625)"/>
       </defs>
       <use xlink:href="#DejaVuSans-32"/>
       <use xlink:href="#DejaVuSans-30" transform="translate(63.623047 0)"/>
       <use xlink:href="#DejaVuSans-30" transform="translate(127.246094 0)"/>
      </g>
     </g>
    </g>
    <g id="xtick_4">
     <g id="line2d_7">
      <path d="M 354.056008 318.04 
L 354.056008 41.856 
" clip-path="url(#p6d87c50046)" style="fill: none; stroke: #b0b0b0; stroke-opacity: 0.3; stroke-width: 0.8; stroke-linecap: square"/>
     </g>
     <g id="line2d_8">
      <g>
       <use xlink:href="#mf3f980d67c" x="354.056008" y="318.04" style="stroke: #000000; stroke-width: 0.8"/>
      </g>
     </g>
     <g id="text_4">
      <!-- 300 -->
      <g transform="translate(344.512258 332.638438) scale(0.1 -0.1)">
       <defs>
        <path id="DejaVuSans-33" d="M 2597 2516 
Q 3050 2419 3304 2112 
Q 3559 1806 3559 1356 
Q 3559 666 3084 287 
Q 2609 -91 1734 -91 
Q 1441 -91 1130 -33 
Q 819 25 488 141 
L 488 750 
Q 750 597 1062 519 
Q 1375 441 1716 441 
Q 2309 441 2620 675 
Q 2931 909 2931 1356 
Q 2931 1769 2642 2001 
Q 2353 2234 1838 2234 
L 1294 2234 
L 1294 2753 
L 1863 2753 
Q 2328 2753 2575 2939 
Q 2822 3125 2822 3475 
Q 2822 3834 2567 4026 
Q 2313 4219 1838 4219 
Q 1578 4219 1281 4162 
Q 984 4106 628 3988 
L 628 4550 
Q 988 4650 1302 4700 
Q 1616 4750 1894 4750 
Q 2613 4750 3031 4423 
Q 3450 4097 3450 3541 
Q 3450 3153 3228 2886 
Q 3006 2619 2597 2516 
z
" transform="scale(0.015625)"/>
       </defs>
       <use xlink:href="#DejaVuSans-33"/>
       <use xlink:href="#DejaVuSans-30" transform="translate(63.623047 0)"/>
       <use xlink:href="#DejaVuSans-30" transform="translate(127.246094 0)"/>
      </g>
     </g>
    </g>
    <g id="xtick_5">
     <g id="line2d_9">
      <path d="M 448.327404 318.04 
L 448.327404 41.856 
" clip-path="url(#p6d87c50046)" style="fill: none; stroke: #b0b0b0; stroke-opacity: 0.3; stroke-width: 0.8; stroke-linecap: square"/>
     </g>
     <g id="line2d_10">
      <g>
       <use xlink:href="#mf3f980d67c" x="448.327404" y="318.04" style="stroke: #000000; stroke-width: 0.8"/>
      </g>
     </g>
     <g id="text_5">
      <!-- 400 -->
      <g transform="translate(438.783654 332.638438) scale(0.1 -0.1)">
       <defs>
        <path id="DejaVuSans-34" d="M 2419 4116 
L 825 1625 
L 2419 1625 
L 2419 4116 
z
M 2253 4666 
L 3047 4666 
L 3047 1625 
L 3713 1625 
L 3713 1100 
L 3047 1100 
L 3047 0 
L 2419 0 
L 2419 1100 
L 313 1100 
L 313 1709 
L 2253 4666 
z
" transform="scale(0.015625)"/>
       </defs>
       <use xlink:href="#DejaVuSans-34"/>
       <use xlink:href="#DejaVuSans-30" transform="translate(63.623047 0)"/>
       <use xlink:href="#DejaVuSans-30" transform="translate(127.246094 0)"/>
      </g>
     </g>
    </g>
    <g id="xtick_6">
     <g id="line2d_11">
      <path d="M 542.598801 318.04 
L 542.598801 41.856 
" clip-path="url(#p6d87c50046)" style="fill: none; stroke: #b0b0b0; stroke-opacity: 0.3; stroke-width: 0.8; stroke-linecap: square"/>
     </g>
     <g id="line2d_12">
      <g>
       <use xlink:href="#mf3f980d67c" x="542.598801" y="318.04" style="stroke: #000000; stroke-width: 0.8"/>
      </g>
     </g>
     <g id="text_6">
      <!-- 500 -->
      <g transform="translate(533.055051 332.638438) scale(0.1 -0.1)">
       <defs>
        <path id="DejaVuSans-35" d="M 691 4666 
L 3169 4666 
L 3169 4134 
L 1269 4134 
L 1269 2991 
Q 1406 3038 1543 3061 
Q 1681 3084 1819 3084 
Q 2600 3084 3056 2656 
Q 3513 2228 3513 1497 
Q 3513 744 3044 326 
Q 2575 -91 1722 -91 
Q 1428 -91 1123 -41 
Q 819 9 494 109 
L 494 744 
Q 775 591 1075 516 
Q 1375 441 1709 441 
Q 2250 441 2565 725 
Q 2881 1009 2881 1497 
Q 2881 1984 2565 2268 
Q 2250 2553 1709 2553 
Q 1456 2553 1204 2497 
Q 953 2441 691 2322 
L 691 4666 
z
" transform="scale(0.015625)"/>
       </defs>
       <use xlink:href="#DejaVuSans-35"/>
       <use xlink:href="#DejaVuSans-30" transform="translate(63.623047 0)"/>
       <use xlink:href="#DejaVuSans-30" transform="translate(127.246094 0)"/>
      </g>
     </g>
    </g>
    <g id="text_7">
     <!-- Frequency (Hz) -->
     <g transform="translate(268.755312 346.316563) scale(0.1 -0.1)">
      <defs>
       <path id="DejaVuSans-46" d="M 628 4666 
L 3309 4666 
L 3309 4134 
L 1259 4134 
L 1259 2759 
L 3109 2759 
L 3109 2228 
L 1259 2228 
L 1259 0 
L 628 0 
L 628 4666 
z
" transform="scale(0.015625)"/>
       <path id="DejaVuSans-72" d="M 2631 2963 
Q 2534 3019 2420 3045 
Q 2306 3072 2169 3072 
Q 1681 3072 1420 2755 
Q 1159 2438 1159 1844 
L 1159 0 
L 581 0 
L 581 3500 
L 1159 3500 
L 1159 2956 
Q 1341 3275 1631 3429 
Q 1922 3584 2338 3584 
Q 2397 3584 2469 3576 
Q 2541 3569 2628 3553 
L 2631 2963 
z
" transform="scale(0.015625)"/>
       <path id="DejaVuSans-65" d="M 3597 1894 
L 3597 1613 
L 953 1613 
Q 991 1019 1311 708 
Q 1631 397 2203 397 
Q 2534 397 2845 478 
Q 3156 559 3463 722 
L 3463 178 
Q 3153 47 2828 -22 
Q 2503 -91 2169 -91 
Q 1331 -91 842 396 
Q 353 884 353 1716 
Q 353 2575 817 3079 
Q 1281 3584 2069 3584 
Q 2775 3584 3186 3129 
Q 3597 2675 3597 1894 
z
M 3022 2063 
Q 3016 2534 2758 2815 
Q 2500 3097 2075 3097 
Q 1594 3097 1305 2825 
Q 1016 2553 972 2059 
L 3022 2063 
z
" transform="scale(0.015625)"/>
       <path id="DejaVuSans-71" d="M 947 1747 
Q 947 1113 1208 752 
Q 1469 391 1925 391 
Q 2381 391 2643 752 
Q 2906 1113 2906 1747 
Q 2906 2381 2643 2742 
Q 2381 3103 1925 3103 
Q 1469 3103 1208 2742 
Q 947 2381 947 1747 
z
M 2906 525 
Q 2725 213 2448 61 
Q 2172 -91 1784 -91 
Q 1150 -91 751 415 
Q 353 922 353 1747 
Q 353 2572 751 3078 
Q 1150 3584 1784 3584 
Q 2172 3584 2448 3432 
Q 2725 3281 2906 2969 
L 2906 3500 
L 3481 3500 
L 3481 -1331 
L 2906 -1331 
L 2906 525 
z
" transform="scale(0.015625)"/>
       <path id="DejaVuSans-75" d="M 544 1381 
L 544 3500 
L 1119 3500 
L 1119 1403 
Q 1119 906 1312 657 
Q 1506 409 1894 409 
Q 2359 409 2629 706 
Q 2900 1003 2900 1516 
L 2900 3500 
L 3475 3500 
L 3475 0 
L 2900 0 
L 2900 538 
Q 2691 219 2414 64 
Q 2138 -91 1772 -91 
Q 1169 -91 856 284 
Q 544 659 544 1381 
z
M 1991 3584 
L 1991 3584 
z
" transform="scale(0.015625)"/>
       <path id="DejaVuSans-6e" d="M 3513 2113 
L 3513 0 
L 2938 0 
L 2938 2094 
Q 2938 2591 2744 2837 
Q 2550 3084 2163 3084 
Q 1697 3084 1428 2787 
Q 1159 2491 1159 1978 
L 1159 0 
L 581 0 
L 581 3500 
L 1159 3500 
L 1159 2956 
Q 1366 3272 1645 3428 
Q 1925 3584 2291 3584 
Q 2894 3584 3203 3211 
Q 3513 2838 3513 2113 
z
" transform="scale(0.015625)"/>
       <path id="DejaVuSans-63" d="M 3122 3366 
L 3122 2828 
Q 2878 2963 2633 3030 
Q 2388 3097 2138 3097 
Q 1578 3097 1268 2742 
Q 959 2388 959 1747 
Q 959 1106 1268 751 
Q 1578 397 2138 397 
Q 2388 397 2633 464 
Q 2878 531 3122 666 
L 3122 134 
Q 2881 22 2623 -34 
Q 2366 -91 2075 -91 
Q 1284 -91 818 406 
Q 353 903 353 1747 
Q 353 2603 823 3093 
Q 1294 3584 2113 3584 
Q 2378 3584 2631 3529 
Q 2884 3475 3122 3366 
z
" transform="scale(0.015625)"/>
       <path id="DejaVuSans-79" d="M 2059 -325 
Q 1816 -950 1584 -1140 
Q 1353 -1331 966 -1331 
L 506 -1331 
L 506 -850 
L 844 -850 
Q 1081 -850 1212 -737 
Q 1344 -625 1503 -206 
L 1606 56 
L 191 3500 
L 800 3500 
L 1894 763 
L 2988 3500 
L 3597 3500 
L 2059 -325 
z
" transform="scale(0.015625)"/>
       <path id="DejaVuSans-20" transform="scale(0.015625)"/>
       <path id="DejaVuSans-28" d="M 1984 4856 
Q 1566 4138 1362 3434 
Q 1159 2731 1159 2009 
Q 1159 1288 1364 580 
Q 1569 -128 1984 -844 
L 1484 -844 
Q 1016 -109 783 600 
Q 550 1309 550 2009 
Q 550 2706 781 3412 
Q 1013 4119 1484 4856 
L 1984 4856 
z
" transform="scale(0.015625)"/>
       <path id="DejaVuSans-48" d="M 628 4666 
L 1259 4666 
L 1259 2753 
L 3553 2753 
L 3553 4666 
L 4184 4666 
L 4184 0 
L 3553 0 
L 3553 2222 
L 1259 2222 
L 1259 0 
L 628 0 
L 628 4666 
z
" transform="scale(0.015625)"/>
       <path id="DejaVuSans-7a" d="M 353 3500 
L 3084 3500 
L 3084 2975 
L 922 459 
L 3084 459 
L 3084 0 
L 275 0 
L 275 525 
L 2438 3041 
L 353 3041 
L 353 3500 
z
" transform="scale(0.015625)"/>
       <path id="DejaVuSans-29" d="M 513 4856 
L 1013 4856 
Q 1481 4119 1714 3412 
Q 1947 2706 1947 2009 
Q 1947 1309 1714 600 
Q 1481 -109 1013 -844 
L 513 -844 
Q 928 -128 1133 580 
Q 1338 1288 1338 2009 
Q 1338 2731 1133 3434 
Q 928 4138 513 4856 
z
" transform="scale(0.015625)"/>
      </defs>
      <use xlink:href="#DejaVuSans-46"/>
      <use xlink:href="#DejaVuSans-72" transform="translate(50.269531 0)"/>
      <use xlink:href="#DejaVuSans-65" transform="translate(89.132812 0)"/>
      <use xlink:href="#DejaVuSans-71" transform="translate(150.65625 0)"/>
      <use xlink:href="#DejaVuSans-75" transform="translate(214.132812 0)"/>
      <use xlink:href="#DejaVuSans-65" transform="translate(277.511719 0)"/>
      <use xlink:href="#DejaVuSans-6e" transform="translate(339.035156 0)"/>
      <use xlink:href="#DejaVuSans-63" transform="translate(402.414062 0)"/>
      <use xlink:href="#DejaVuSans-79" transform="translate(457.394531 0)"/>
      <use xlink:href="#DejaVuSans-20" transform="translate(516.574219 0)"/>
      <use xlink:href="#DejaVuSans-28" transform="translate(548.361328 0)"/>
      <use xlink:href="#DejaVuSans-48" transform="translate(587.375 0)"/>
      <use xlink:href="#DejaVuSans-7a" transform="translate(662.570312 0)"/>
      <use xlink:href="#DejaVuSans-29" transform="translate(715.060547 0)"/>
     </g>
    </g>
   </g>
   <g id="matplotlib.axis_2">
    <g id="ytick_1">
     <g id="line2d_13">
      <path d="M 47.72 305.544917 
L 565.2 305.544917 
" clip-path="url(#p6d87c50046)" style="fill: none; stroke: #b0b0b0; stroke-opacity: 0.3; stroke-width: 0.8; stroke-linecap: square"/>
     </g>
     <g id="line2d_14">
      <defs>
       <path id="m139bcd5c8b" d="M 0 0 
L -3.5 0 
" style="stroke: #000000; stroke-width: 0.8"/>
      </defs>
      <g>
       <use xlink:href="#m139bcd5c8b" x="47.72" y="305.544917" style="stroke: #000000; stroke-width: 0.8"/>
      </g>
     </g>
     <g id="text_8">
      <!-- 0.0 -->
      <g transform="translate(24.816875 309.344136) scale(0.1 -0.1)">
       <defs>
        <path id="DejaVuSans-2e" d="M 684 794 
L 1344 794 
L 1344 0 
L 684 0 
L 684 794 
z
" transform="scale(0.015625)"/>
       </defs>
       <use xlink:href="#DejaVuSans-30"/>
       <use xlink:href="#DejaVuSans-2e" transform="translate(63.623047 0)"/>
       <use xlink:href="#DejaVuSans-30" transform="translate(95.410156 0)"/>
      </g>
     </g>
    </g>
    <g id="ytick_2">
     <g id="line2d_15">
      <path d="M 47.72 255.317897 
L 565.2 255.317897 
" clip-path="url(#p6d87c50046)" style="fill: none; stroke: #b0b0b0; stroke-opacity: 0.3; stroke-width: 0.8; stroke-linecap: square"/>
     </g>
     <g id="line2d_16">
      <g>
       <use xlink:href="#m139bcd5c8b" x="47.72" y="255.317897" style="stroke: #000000; stroke-width: 0.8"/>
      </g>
     </g>
     <g id="text_9">
      <!-- 0.2 -->
      <g transform="translate(24.816875 259.117116) scale(0.1 -0.1)">
       <use xlink:href="#DejaVuSans-30"/>
       <use xlink:href="#DejaVuSans-2e" transform="translate(63.623047 0)"/>
       <use xlink:href="#DejaVuSans-32" transform="translate(95.410156 0)"/>
      </g>
     </g>
    </g>
    <g id="ytick_3">
     <g id="line2d_17">
      <path d="M 47.72 205.090877 
L 565.2 205.090877 
" clip-path="url(#p6d87c50046)" style="fill: none; stroke: #b0b0b0; stroke-opacity: 0.3; stroke-width: 0.8; stroke-linecap: square"/>
     </g>
     <g id="line2d_18">
      <g>
       <use xlink:href="#m139bcd5c8b" x="47.72" y="205.090877" style="stroke: #000000; stroke-width: 0.8"/>
      </g>
     </g>
     <g id="text_10">
      <!-- 0.4 -->
      <g transform="translate(24.816875 208.890096) scale(0.1 -0.1)">
       <use xlink:href="#DejaVuSans-30"/>
       <use xlink:href="#DejaVuSans-2e" transform="translate(63.623047 0)"/>
       <use xlink:href="#DejaVuSans-34" transform="translate(95.410156 0)"/>
      </g>
     </g>
    </g>
    <g id="ytick_4">
     <g id="line2d_19">
      <path d="M 47.72 154.863858 
L 565.2 154.863858 
" clip-path="url(#p6d87c50046)" style="fill: none; stroke: #b0b0b0; stroke-opacity: 0.3; stroke-width: 0.8; stroke-linecap: square"/>
     </g>
     <g id="line2d_20">
      <g>
       <use xlink:href="#m139bcd5c8b" x="47.72" y="154.863858" style="stroke: #000000; stroke-width: 0.8"/>
      </g>
     </g>
     <g id="text_11">
      <!-- 0.6 -->
      <g transform="translate(24.816875 158.663076) scale(0.1 -0.1)">
       <defs>
        <path id="DejaVuSans-36" d="M 2113 2584 
Q 1688 2584 1439 2293 
Q 1191 2003 1191 1497 
Q 1191 994 1439 701 
Q 1688 409 2113 409 
Q 2538 409 2786 701 
Q 3034 994 3034 1497 
Q 3034 2003 2786 2293 
Q 2538 2584 2113 2584 
z
M 3366 4563 
L 3366 3988 
Q 3128 4100 2886 4159 
Q 2644 4219 2406 4219 
Q 1781 4219 1451 3797 
Q 1122 3375 1075 2522 
Q 1259 2794 1537 2939 
Q 1816 3084 2150 3084 
Q 2853 3084 3261 2657 
Q 3669 2231 3669 1497 
Q 3669 778 3244 343 
Q 2819 -91 2113 -91 
Q 1303 -91 875 529 
Q 447 1150 447 2328 
Q 447 3434 972 4092 
Q 1497 4750 2381 4750 
Q 2619 4750 2861 4703 
Q 3103 4656 3366 4563 
z
" transform="scale(0.015625)"/>
       </defs>
       <use xlink:href="#DejaVuSans-30"/>
       <use xlink:href="#DejaVuSans-2e" transform="translate(63.623047 0)"/>
       <use xlink:href="#DejaVuSans-36" transform="translate(95.410156 0)"/>
      </g>
     </g>
    </g>
    <g id="ytick_5">
     <g id="line2d_21">
      <path d="M 47.72 104.636838 
L 565.2 104.636838 
" clip-path="url(#p6d87c50046)" style="fill: none; stroke: #b0b0b0; stroke-opacity: 0.3; stroke-width: 0.8; stroke-linecap: square"/>
     </g>
     <g id="line2d_22">
      <g>
       <use xlink:href="#m139bcd5c8b" x="47.72" y="104.636838" style="stroke: #000000; stroke-width: 0.8"/>
      </g>
     </g>
     <g id="text_12">
      <!-- 0.8 -->
      <g transform="translate(24.816875 108.436057) scale(0.1 -0.1)">
       <defs>
        <path id="DejaVuSans-38" d="M 2034 2216 
Q 1584 2216 1326 1975 
Q 1069 1734 1069 1313 
Q 1069 891 1326 650 
Q 1584 409 2034 409 
Q 2484 409 2743 651 
Q 3003 894 3003 1313 
Q 3003 1734 2745 1975 
Q 2488 2216 2034 2216 
z
M 1403 2484 
Q 997 2584 770 2862 
Q 544 3141 544 3541 
Q 544 4100 942 4425 
Q 1341 4750 2034 4750 
Q 2731 4750 3128 4425 
Q 3525 4100 3525 3541 
Q 3525 3141 3298 2862 
Q 3072 2584 2669 2484 
Q 3125 2378 3379 2068 
Q 3634 1759 3634 1313 
Q 3634 634 3220 271 
Q 2806 -91 2034 -91 
Q 1263 -91 848 271 
Q 434 634 434 1313 
Q 434 1759 690 2068 
Q 947 2378 1403 2484 
z
M 1172 3481 
Q 1172 3119 1398 2916 
Q 1625 2713 2034 2713 
Q 2441 2713 2670 2916 
Q 2900 3119 2900 3481 
Q 2900 3844 2670 4047 
Q 2441 4250 2034 4250 
Q 1625 4250 1398 4047 
Q 1172 3844 1172 3481 
z
" transform="scale(0.015625)"/>
       </defs>
       <use xlink:href="#DejaVuSans-30"/>
       <use xlink:href="#DejaVuSans-2e" transform="translate(63.623047 0)"/>
       <use xlink:href="#DejaVuSans-38" transform="translate(95.410156 0)"/>
      </g>
     </g>
    </g>
    <g id="ytick_6">
     <g id="line2d_23">
      <path d="M 47.72 54.409818 
L 565.2 54.409818 
" clip-path="url(#p6d87c50046)" style="fill: none; stroke: #b0b0b0; stroke-opacity: 0.3; stroke-width: 0.8; stroke-linecap: square"/>
     </g>
     <g id="line2d_24">
      <g>
       <use xlink:href="#m139bcd5c8b" x="47.72" y="54.409818" style="stroke: #000000; stroke-width: 0.8"/>
      </g>
     </g>
     <g id="text_13">
      <!-- 1.0 -->
      <g transform="translate(24.816875 58.209037) scale(0.1 -0.1)">
       <use xlink:href="#DejaVuSans-31"/>
       <use xlink:href="#DejaVuSans-2e" transform="translate(63.623047 0)"/>
       <use xlink:href="#DejaVuSans-30" transform="translate(95.410156 0)"/>
      </g>
     </g>
    </g>
    <g id="text_14">
     <!-- Gain -->
     <g transform="translate(18.737187 191.444094) rotate(-90) scale(0.1 -0.1)">
      <defs>
       <path id="DejaVuSans-47" d="M 3809 666 
L 3809 1919 
L 2778 1919 
L 2778 2438 
L 4434 2438 
L 4434 434 
Q 4069 175 3628 42 
Q 3188 -91 2688 -91 
Q 1594 -91 976 548 
Q 359 1188 359 2328 
Q 359 3472 976 4111 
Q 1594 4750 2688 4750 
Q 3144 4750 3555 4637 
Q 3966 4525 4313 4306 
L 4313 3634 
Q 3963 3931 3569 4081 
Q 3175 4231 2741 4231 
Q 1884 4231 1454 3753 
Q 1025 3275 1025 2328 
Q 1025 1384 1454 906 
Q 1884 428 2741 428 
Q 3075 428 3337 486 
Q 3600 544 3809 666 
z
" transform="scale(0.015625)"/>
       <path id="DejaVuSans-61" d="M 2194 1759 
Q 1497 1759 1228 1600 
Q 959 1441 959 1056 
Q 959 750 1161 570 
Q 1363 391 1709 391 
Q 2188 391 2477 730 
Q 2766 1069 2766 1631 
L 2766 1759 
L 2194 1759 
z
M 3341 1997 
L 3341 0 
L 2766 0 
L 2766 531 
Q 2569 213 2275 61 
Q 1981 -91 1556 -91 
Q 1019 -91 701 211 
Q 384 513 384 1019 
Q 384 1609 779 1909 
Q 1175 2209 1959 2209 
L 2766 2209 
L 2766 2266 
Q 2766 2663 2505 2880 
Q 2244 3097 1772 3097 
Q 1472 3097 1187 3025 
Q 903 2953 641 2809 
L 641 3341 
Q 956 3463 1253 3523 
Q 1550 3584 1831 3584 
Q 2591 3584 2966 3190 
Q 3341 2797 3341 1997 
z
" transform="scale(0.015625)"/>
       <path id="DejaVuSans-69" d="M 603 3500 
L 1178 3500 
L 1178 0 
L 603 0 
L 603 3500 
z
M 603 4863 
L 1178 4863 
L 1178 4134 
L 603 4134 
L 603 4863 
z
" transform="scale(0.015625)"/>
      </defs>
      <use xlink:href="#DejaVuSans-47"/>
      <use xlink:href="#DejaVuSans-61" transform="translate(77.490234 0)"/>
      <use xlink:href="#DejaVuSans-69" transform="translate(138.769531 0)"/>
      <use xlink:href="#DejaVuSans-6e" transform="translate(166.552734 0)"/>
     </g>
    </g>
   </g>
   <g id="line2d_25">
    <path d="M 71.241818 54.409818 
L 75.844914 54.482954 
L 77.686152 54.687926 
L 79.52739 55.1595 
L 80.448009 55.543242 
L 81.368628 56.054477 
L 82.289247 56.716404 
L 83.209867 57.553099 
L 84.130486 58.589199 
L 85.051105 59.849564 
L 85.971724 61.358939 
L 86.892343 63.141613 
L 87.812962 65.221069 
L 88.733581 67.61965 
L 89.6542 70.358225 
L 91.495439 76.929557 
L 93.336677 85.060775 
L 95.177915 94.835383 
L 97.019153 106.287497 
L 98.860391 119.396597 
L 100.70163 134.084455 
L 102.542868 150.214429 
L 105.304725 176.675909 
L 108.987202 214.778236 
L 114.510916 272.510659 
L 117.272774 298.934973 
L 118.193393 304.010244 
L 120.034631 288.96015 
L 121.875869 275.798872 
L 123.717107 264.765239 
L 124.637726 260.104911 
L 125.558345 256.0388 
L 126.478965 252.578997 
L 127.399584 249.733185 
L 128.320203 247.50456 
L 129.240822 245.891803 
L 130.161441 244.889079 
L 131.08206 244.486087 
L 132.002679 244.668146 
L 132.923298 245.416325 
L 133.843917 246.707608 
L 134.764537 248.515096 
L 135.685156 250.808249 
L 136.605775 253.553154 
L 138.447013 260.247564 
L 140.288251 268.271759 
L 143.050109 282.011358 
L 146.732585 301.513355 
L 147.653204 304.804631 
L 150.415061 291.440905 
L 152.2563 283.71 
L 154.097538 277.226039 
L 155.018157 274.516087 
L 155.938776 272.187604 
L 156.859395 270.255688 
L 157.780014 268.731335 
L 158.700633 267.62139 
L 159.621252 266.928544 
L 160.541872 266.651362 
L 161.462491 266.784359 
L 162.38311 267.318105 
L 163.303729 268.239377 
L 164.224348 269.531335 
L 165.144967 271.173743 
L 166.065586 273.143209 
L 167.906824 277.955649 
L 169.748063 283.72945 
L 172.50992 293.596924 
L 175.271777 304.037153 
L 176.192396 303.617078 
L 178.954254 293.933174 
L 180.795492 288.310921 
L 182.63673 283.607931 
L 183.557349 281.655447 
L 184.477968 279.991886 
L 185.398587 278.630407 
L 186.319207 277.580826 
L 187.239826 276.849558 
L 188.160445 276.439592 
L 189.081064 276.350503 
L 190.001683 276.578501 
L 190.922302 277.11651 
L 191.842921 277.954285 
L 192.76354 279.078553 
L 193.684159 280.473193 
L 194.604779 282.119439 
L 196.446017 286.07984 
L 198.287255 290.765927 
L 201.049112 298.671096 
L 202.89035 304.179528 
L 203.81097 304.17482 
L 206.572827 296.391288 
L 208.414065 291.82196 
L 210.255303 287.966573 
L 211.175922 286.354599 
L 212.096542 284.973829 
L 213.017161 283.836508 
L 213.93778 282.952113 
L 214.858399 282.327278 
L 215.779018 281.965758 
L 216.699637 281.868414 
L 217.620256 282.033237 
L 218.540875 282.455402 
L 219.461494 283.127341 
L 220.382114 284.038861 
L 221.302733 285.177276 
L 223.143971 288.072593 
L 224.985209 291.66871 
L 226.826447 295.793801 
L 230.508924 304.855557 
L 231.429543 303.947709 
L 234.1914 297.436613 
L 236.032638 293.615866 
L 237.873877 290.399404 
L 238.794496 289.059417 
L 239.715115 287.916321 
L 240.635734 286.980836 
L 241.556353 286.261299 
L 242.476972 285.763596 
L 243.397591 285.491119 
L 244.31821 285.444748 
L 245.238829 285.622867 
L 246.159448 286.021402 
L 247.080068 286.633887 
L 248.000687 287.451554 
L 248.921306 288.463453 
L 250.762544 291.016071 
L 252.603782 294.166225 
L 254.44502 297.764357 
L 258.127497 305.461507 
L 260.889354 299.675357 
L 262.730592 296.190962 
L 264.571831 293.181243 
L 266.413069 290.771759 
L 267.333688 289.823677 
L 268.254307 289.059618 
L 269.174926 288.486645 
L 270.095545 288.109644 
L 271.016164 287.931284 
L 271.936783 287.952008 
L 272.857403 288.17004 
L 273.778022 288.58142 
L 274.698641 289.180071 
L 275.61926 289.957873 
L 277.460498 292.008912 
L 279.301736 294.633289 
L 281.142975 297.705836 
L 283.904832 302.838318 
L 284.825451 304.611011 
L 285.74607 304.708423 
L 288.507927 299.607102 
L 290.349166 296.566841 
L 292.190404 293.970623 
L 294.031642 291.928236 
L 294.952261 291.142012 
L 295.87288 290.523406 
L 296.793499 290.078254 
L 297.714118 289.810418 
L 298.634738 289.72175 
L 299.555357 289.812084 
L 300.475976 290.079251 
L 301.396595 290.519116 
L 302.317214 291.125638 
L 303.237833 291.890942 
L 305.079071 293.857879 
L 306.92031 296.324583 
L 308.761548 299.174586 
L 312.444024 305.486182 
L 317.967739 296.743995 
L 319.808977 294.482975 
L 321.650215 292.745079 
L 322.570834 292.095877 
L 323.491453 291.602404 
L 324.412073 291.269369 
L 325.332692 291.099651 
L 326.253311 291.094277 
L 327.17393 291.252421 
L 328.094549 291.571423 
L 329.015168 292.046827 
L 329.935787 292.67244 
L 331.777025 294.341336 
L 333.618264 296.49727 
L 335.459502 299.038417 
L 338.221359 303.311047 
L 339.141978 304.793316 
L 340.062597 304.813139 
L 342.824455 300.522505 
L 344.665693 297.953472 
L 346.506931 295.751426 
L 348.348169 294.011961 
L 349.268788 293.339746 
L 350.189408 292.809034 
L 351.110027 292.425178 
L 352.030646 292.19185 
L 352.951265 292.111008 
L 353.871884 292.18288 
L 354.792503 292.405971 
L 355.713122 292.777086 
L 356.633741 293.291373 
L 358.47498 294.722162 
L 360.316218 296.629174 
L 362.157456 298.922435 
L 364.919313 302.850051 
L 366.760552 305.471301 
L 370.443028 300.135909 
L 372.284266 297.808149 
L 374.125504 295.848479 
L 375.966743 294.34244 
L 376.887362 293.780584 
L 377.807981 293.354504 
L 378.7286 293.068518 
L 379.649219 292.925344 
L 380.569838 292.926074 
L 381.490457 293.070171 
L 382.411076 293.355475 
L 383.331695 293.778241 
L 385.172934 295.013523 
L 387.014172 296.716492 
L 388.85541 298.806968 
L 391.617267 302.453348 
L 393.458506 305.062009 
L 394.379125 304.714397 
L 397.140982 300.915469 
L 398.98222 298.642055 
L 400.823458 296.695843 
L 402.664697 295.162734 
L 404.505935 294.109466 
L 405.426554 293.777656 
L 406.347173 293.580722 
L 407.267792 293.520495 
L 408.188411 293.597252 
L 409.10903 293.809716 
L 410.02965 294.155077 
L 411.870888 295.225811 
L 413.712126 296.758079 
L 415.553364 298.679962 
L 417.394602 300.902346 
L 420.15646 304.573371 
L 421.077079 305.25841 
L 424.759555 300.432675 
L 426.600793 298.332907 
L 428.442032 296.570827 
L 430.28327 295.224542 
L 432.124508 294.352992 
L 433.045127 294.107768 
L 433.965746 293.99338 
L 434.886365 294.010823 
L 435.806985 294.159596 
L 436.727604 294.437705 
L 438.568842 295.366693 
L 440.41008 296.753463 
L 442.251318 298.533186 
L 444.092556 300.623541 
L 446.854414 304.128781 
L 447.775033 305.342742 
L 448.695652 304.533283 
L 451.457509 301.029733 
L 453.298748 298.939992 
L 455.139986 297.158121 
L 456.981224 295.763754 
L 458.822462 294.818698 
L 459.743081 294.528412 
L 460.6637 294.364207 
L 461.58432 294.327732 
L 462.504939 294.419185 
L 463.425558 294.63731 
L 464.346177 294.979413 
L 466.187415 296.017811 
L 468.028653 297.485738 
L 469.869891 299.315261 
L 472.631749 302.550084 
L 474.472987 304.889915 
L 475.393606 305.014601 
L 479.076083 300.483003 
L 480.917321 298.52143 
L 482.758559 296.884194 
L 484.599797 295.644782 
L 486.441035 294.858475 
L 487.361655 294.64691 
L 488.282274 294.559893 
L 489.202893 294.598274 
L 490.123512 294.761476 
L 491.044131 295.047505 
L 492.885369 295.97313 
L 494.726607 297.332134 
L 496.567846 299.061945 
L 498.409084 301.083304 
L 502.09156 305.467325 
L 505.774037 300.957303 
L 507.615275 298.970538 
L 509.456513 297.285757 
L 511.297751 295.979063 
L 513.13899 295.109311 
L 514.059609 294.851296 
L 514.980228 294.715465 
L 515.900847 294.703297 
L 516.821466 294.814861 
L 517.742085 295.048819 
L 519.583323 295.871643 
L 521.424561 297.133916 
L 523.2658 298.777888 
L 525.107038 300.728545 
L 527.868895 304.032356 
L 528.789514 305.184615 
L 529.710133 304.749175 
L 532.471991 301.389383 
L 534.313229 299.366345 
L 536.154467 297.625284 
L 537.995705 296.245247 
L 539.836944 295.288882 
L 540.757563 294.983953 
L 541.678182 294.799596 
L 541.678182 294.799596 
" clip-path="url(#p6d87c50046)" style="fill: none; stroke: #0000ff; stroke-width: 2; stroke-linecap: square"/>
   </g>
   <g id="line2d_26">
    <path d="M 118.377516 318.04 
L 118.377516 41.856 
" clip-path="url(#p6d87c50046)" style="fill: none; stroke-dasharray: 5.55,2.4; stroke-dashoffset: 0; stroke: #ff0000; stroke-opacity: 0.7; stroke-width: 1.5"/>
   </g>
   <g id="patch_3">
    <path d="M 47.72 318.04 
L 47.72 41.856 
" style="fill: none; stroke: #000000; stroke-width: 0.8; stroke-linejoin: miter; stroke-linecap: square"/>
   </g>
   <g id="patch_4">
    <path d="M 565.2 318.04 
L 565.2 41.856 
" style="fill: none; stroke: #000000; stroke-width: 0.8; stroke-linejoin: miter; stroke-linecap: square"/>
   </g>
   <g id="patch_5">
    <path d="M 47.72 318.04 
L 565.2 318.04 
" style="fill: none; stroke: #000000; stroke-width: 0.8; stroke-linejoin: miter; stroke-linecap: square"/>
   </g>
   <g id="patch_6">
    <path d="M 47.72 41.856 
L 565.2 41.856 
" style="fill: none; stroke: #000000; stroke-width: 0.8; stroke-linejoin: miter; stroke-linecap: square"/>
   </g>
   <g id="text_15">
    <!-- Savitzky-Golay Filter Response -->
    <g transform="translate(214.463125 22.418625) scale(0.12 -0.12)">
     <defs>
      <path id="DejaVuSans-53" d="M 3425 4513 
L 3425 3897 
Q 3066 4069 2747 4153 
Q 2428 4238 2131 4238 
Q 1616 4238 1336 4038 
Q 1056 3838 1056 3469 
Q 1056 3159 1242 3001 
Q 1428 2844 1947 2747 
L 2328 2669 
Q 3034 2534 3370 2195 
Q 3706 1856 3706 1288 
Q 3706 609 3251 259 
Q 2797 -91 1919 -91 
Q 1588 -91 1214 -16 
Q 841 59 441 206 
L 441 856 
Q 825 641 1194 531 
Q 1563 422 1919 422 
Q 2459 422 2753 634 
Q 3047 847 3047 1241 
Q 3047 1584 2836 1778 
Q 2625 1972 2144 2069 
L 1759 2144 
Q 1053 2284 737 2584 
Q 422 2884 422 3419 
Q 422 4038 858 4394 
Q 1294 4750 2059 4750 
Q 2388 4750 2728 4690 
Q 3069 4631 3425 4513 
z
" transform="scale(0.015625)"/>
      <path id="DejaVuSans-76" d="M 191 3500 
L 800 3500 
L 1894 563 
L 2988 3500 
L 3597 3500 
L 2284 0 
L 1503 0 
L 191 3500 
z
" transform="scale(0.015625)"/>
      <path id="DejaVuSans-74" d="M 1172 4494 
L 1172 3500 
L 2356 3500 
L 2356 3053 
L 1172 3053 
L 1172 1153 
Q 1172 725 1289 603 
Q 1406 481 1766 481 
L 2356 481 
L 2356 0 
L 1766 0 
Q 1100 0 847 248 
Q 594 497 594 1153 
L 594 3053 
L 172 3053 
L 172 3500 
L 594 3500 
L 594 4494 
L 1172 4494 
z
" transform="scale(0.015625)"/>
      <path id="DejaVuSans-6b" d="M 581 4863 
L 1159 4863 
L 1159 1991 
L 2875 3500 
L 3609 3500 
L 1753 1863 
L 3688 0 
L 2938 0 
L 1159 1709 
L 1159 0 
L 581 0 
L 581 4863 
z
" transform="scale(0.015625)"/>
      <path id="DejaVuSans-2d" d="M 313 2009 
L 1997 2009 
L 1997 1497 
L 313 1497 
L 313 2009 
z
" transform="scale(0.015625)"/>
      <path id="DejaVuSans-6f" d="M 1959 3097 
Q 1497 3097 1228 2736 
Q 959 2375 959 1747 
Q 959 1119 1226 758 
Q 1494 397 1959 397 
Q 2419 397 2687 759 
Q 2956 1122 2956 1747 
Q 2956 2369 2687 2733 
Q 2419 3097 1959 3097 
z
M 1959 3584 
Q 2709 3584 3137 3096 
Q 3566 2609 3566 1747 
Q 3566 888 3137 398 
Q 2709 -91 1959 -91 
Q 1206 -91 779 398 
Q 353 888 353 1747 
Q 353 2609 779 3096 
Q 1206 3584 1959 3584 
z
" transform="scale(0.015625)"/>
      <path id="DejaVuSans-6c" d="M 603 4863 
L 1178 4863 
L 1178 0 
L 603 0 
L 603 4863 
z
" transform="scale(0.015625)"/>
      <path id="DejaVuSans-52" d="M 2841 2188 
Q 3044 2119 3236 1894 
Q 3428 1669 3622 1275 
L 4263 0 
L 3584 0 
L 2988 1197 
Q 2756 1666 2539 1819 
Q 2322 1972 1947 1972 
L 1259 1972 
L 1259 0 
L 628 0 
L 628 4666 
L 2053 4666 
Q 2853 4666 3247 4331 
Q 3641 3997 3641 3322 
Q 3641 2881 3436 2590 
Q 3231 2300 2841 2188 
z
M 1259 4147 
L 1259 2491 
L 2053 2491 
Q 2509 2491 2742 2702 
Q 2975 2913 2975 3322 
Q 2975 3731 2742 3939 
Q 2509 4147 2053 4147 
L 1259 4147 
z
" transform="scale(0.015625)"/>
      <path id="DejaVuSans-73" d="M 2834 3397 
L 2834 2853 
Q 2591 2978 2328 3040 
Q 2066 3103 1784 3103 
Q 1356 3103 1142 2972 
Q 928 2841 928 2578 
Q 928 2378 1081 2264 
Q 1234 2150 1697 2047 
L 1894 2003 
Q 2506 1872 2764 1633 
Q 3022 1394 3022 966 
Q 3022 478 2636 193 
Q 2250 -91 1575 -91 
Q 1294 -91 989 -36 
Q 684 19 347 128 
L 347 722 
Q 666 556 975 473 
Q 1284 391 1588 391 
Q 1994 391 2212 530 
Q 2431 669 2431 922 
Q 2431 1156 2273 1281 
Q 2116 1406 1581 1522 
L 1381 1569 
Q 847 1681 609 1914 
Q 372 2147 372 2553 
Q 372 3047 722 3315 
Q 1072 3584 1716 3584 
Q 2034 3584 2315 3537 
Q 2597 3491 2834 3397 
z
" transform="scale(0.015625)"/>
      <path id="DejaVuSans-70" d="M 1159 525 
L 1159 -1331 
L 581 -1331 
L 581 3500 
L 1159 3500 
L 1159 2969 
Q 1341 3281 1617 3432 
Q 1894 3584 2278 3584 
Q 2916 3584 3314 3078 
Q 3713 2572 3713 1747 
Q 3713 922 3314 415 
Q 2916 -91 2278 -91 
Q 1894 -91 1617 61 
Q 1341 213 1159 525 
z
M 3116 1747 
Q 3116 2381 2855 2742 
Q 2594 3103 2138 3103 
Q 1681 3103 1420 2742 
Q 1159 2381 1159 1747 
Q 1159 1113 1420 752 
Q 1681 391 2138 391 
Q 2594 391 2855 752 
Q 3116 1113 3116 1747 
z
" transform="scale(0.015625)"/>
     </defs>
     <use xlink:href="#DejaVuSans-53"/>
     <use xlink:href="#DejaVuSans-61" transform="translate(63.476562 0)"/>
     <use xlink:href="#DejaVuSans-76" transform="translate(124.755859 0)"/>
     <use xlink:href="#DejaVuSans-69" transform="translate(183.935547 0)"/>
     <use xlink:href="#DejaVuSans-74" transform="translate(211.71875 0)"/>
     <use xlink:href="#DejaVuSans-7a" transform="translate(250.927734 0)"/>
     <use xlink:href="#DejaVuSans-6b" transform="translate(303.417969 0)"/>
     <use xlink:href="#DejaVuSans-79" transform="translate(357.703125 0)"/>
     <use xlink:href="#DejaVuSans-2d" transform="translate(415.132812 0)"/>
     <use xlink:href="#DejaVuSans-47" transform="translate(454.841797 0)"/>
     <use xlink:href="#DejaVuSans-6f" transform="translate(532.332031 0)"/>
     <use xlink:href="#DejaVuSans-6c" transform="translate(593.513672 0)"/>
     <use xlink:href="#DejaVuSans-61" transform="translate(621.296875 0)"/>
     <use xlink:href="#DejaVuSans-79" transform="translate(682.576172 0)"/>
     <use xlink:href="#DejaVuSans-20" transform="translate(741.755859 0)"/>
     <use xlink:href="#DejaVuSans-46" transform="translate(773.542969 0)"/>
     <use xlink:href="#DejaVuSans-69" transform="translate(823.8125 0)"/>
     <use xlink:href="#DejaVuSans-6c" transform="translate(851.595703 0)"/>
     <use xlink:href="#DejaVuSans-74" transform="translate(879.378906 0)"/>
     <use xlink:href="#DejaVuSans-65" transform="translate(918.587891 0)"/>
     <use xlink:href="#DejaVuSans-72" transform="translate(980.111328 0)"/>
     <use xlink:href="#DejaVuSans-20" transform="translate(1021.224609 0)"/>
     <use xlink:href="#DejaVuSans-52" transform="translate(1053.011719 0)"/>
     <use xlink:href="#DejaVuSans-65" transform="translate(1117.994141 0)"/>
     <use xlink:href="#DejaVuSans-73" transform="translate(1179.517578 0)"/>
     <use xlink:href="#DejaVuSans-70" transform="translate(1231.617188 0)"/>
     <use xlink:href="#DejaVuSans-6f" transform="translate(1295.09375 0)"/>
     <use xlink:href="#DejaVuSans-6e" transform="translate(1356.275391 0)"/>
     <use xlink:href="#DejaVuSans-73" transform="translate(1419.654297 0)"/>
     <use xlink:href="#DejaVuSans-65" transform="translate(1471.753906 0)"/>
    </g>
    <!-- (Order=3, Window=35, Fs=1000.0 Hz) -->
    <g transform="translate(189.769375 35.856) scale(0.12 -0.12)">
     <defs>
      <path id="DejaVuSans-4f" d="M 2522 4238 
Q 1834 4238 1429 3725 
Q 1025 3213 1025 2328 
Q 1025 1447 1429 934 
Q 1834 422 2522 422 
Q 3209 422 3611 934 
Q 4013 1447 4013 2328 
Q 4013 3213 3611 3725 
Q 3209 4238 2522 4238 
z
M 2522 4750 
Q 3503 4750 4090 4092 
Q 4678 3434 4678 2328 
Q 4678 1225 4090 567 
Q 3503 -91 2522 -91 
Q 1538 -91 948 565 
Q 359 1222 359 2328 
Q 359 3434 948 4092 
Q 1538 4750 2522 4750 
z
" transform="scale(0.015625)"/>
      <path id="DejaVuSans-64" d="M 2906 2969 
L 2906 4863 
L 3481 4863 
L 3481 0 
L 2906 0 
L 2906 525 
Q 2725 213 2448 61 
Q 2172 -91 1784 -91 
Q 1150 -91 751 415 
Q 353 922 353 1747 
Q 353 2572 751 3078 
Q 1150 3584 1784 3584 
Q 2172 3584 2448 3432 
Q 2725 3281 2906 2969 
z
M 947 1747 
Q 947 1113 1208 752 
Q 1469 391 1925 391 
Q 2381 391 2643 752 
Q 2906 1113 2906 1747 
Q 2906 2381 2643 2742 
Q 2381 3103 1925 3103 
Q 1469 3103 1208 2742 
Q 947 2381 947 1747 
z
" transform="scale(0.015625)"/>
      <path id="DejaVuSans-3d" d="M 678 2906 
L 4684 2906 
L 4684 2381 
L 678 2381 
L 678 2906 
z
M 678 1631 
L 4684 1631 
L 4684 1100 
L 678 1100 
L 678 1631 
z
" transform="scale(0.015625)"/>
      <path id="DejaVuSans-2c" d="M 750 794 
L 1409 794 
L 1409 256 
L 897 -744 
L 494 -744 
L 750 256 
L 750 794 
z
" transform="scale(0.015625)"/>
      <path id="DejaVuSans-57" d="M 213 4666 
L 850 4666 
L 1831 722 
L 2809 4666 
L 3519 4666 
L 4500 722 
L 5478 4666 
L 6119 4666 
L 4947 0 
L 4153 0 
L 3169 4050 
L 2175 0 
L 1381 0 
L 213 4666 
z
" transform="scale(0.015625)"/>
      <path id="DejaVuSans-77" d="M 269 3500 
L 844 3500 
L 1563 769 
L 2278 3500 
L 2956 3500 
L 3675 769 
L 4391 3500 
L 4966 3500 
L 4050 0 
L 3372 0 
L 2619 2869 
L 1863 0 
L 1184 0 
L 269 3500 
z
" transform="scale(0.015625)"/>
     </defs>
     <use xlink:href="#DejaVuSans-28"/>
     <use xlink:href="#DejaVuSans-4f" transform="translate(39.013672 0)"/>
     <use xlink:href="#DejaVuSans-72" transform="translate(117.724609 0)"/>
     <use xlink:href="#DejaVuSans-64" transform="translate(157.087891 0)"/>
     <use xlink:href="#DejaVuSans-65" transform="translate(220.564453 0)"/>
     <use xlink:href="#DejaVuSans-72" transform="translate(282.087891 0)"/>
     <use xlink:href="#DejaVuSans-3d" transform="translate(323.201172 0)"/>
     <use xlink:href="#DejaVuSans-33" transform="translate(406.990234 0)"/>
     <use xlink:href="#DejaVuSans-2c" transform="translate(470.613281 0)"/>
     <use xlink:href="#DejaVuSans-20" transform="translate(502.400391 0)"/>
     <use xlink:href="#DejaVuSans-57" transform="translate(534.1875 0)"/>
     <use xlink:href="#DejaVuSans-69" transform="translate(630.814453 0)"/>
     <use xlink:href="#DejaVuSans-6e" transform="translate(658.597656 0)"/>
     <use xlink:href="#DejaVuSans-64" transform="translate(721.976562 0)"/>
     <use xlink:href="#DejaVuSans-6f" transform="translate(785.453125 0)"/>
     <use xlink:href="#DejaVuSans-77" transform="translate(846.634766 0)"/>
     <use xlink:href="#DejaVuSans-3d" transform="translate(928.421875 0)"/>
     <use xlink:href="#DejaVuSans-33" transform="translate(1012.210938 0)"/>
     <use xlink:href="#DejaVuSans-35" transform="translate(1075.833984 0)"/>
     <use xlink:href="#DejaVuSans-2c" transform="translate(1139.457031 0)"/>
     <use xlink:href="#DejaVuSans-20" transform="translate(1171.244141 0)"/>
     <use xlink:href="#DejaVuSans-46" transform="translate(1203.03125 0)"/>
     <use xlink:href="#DejaVuSans-73" transform="translate(1260.550781 0)"/>
     <use xlink:href="#DejaVuSans-3d" transform="translate(1312.650391 0)"/>
     <use xlink:href="#DejaVuSans-31" transform="translate(1396.439453 0)"/>
     <use xlink:href="#DejaVuSans-30" transform="translate(1460.0625 0)"/>
     <use xlink:href="#DejaVuSans-30" transform="translate(1523.685547 0)"/>
     <use xlink:href="#DejaVuSans-30" transform="translate(1587.308594 0)"/>
     <use xlink:href="#DejaVuSans-2e" transform="translate(1650.931641 0)"/>
     <use xlink:href="#DejaVuSans-30" transform="translate(1682.71875 0)"/>
     <use xlink:href="#DejaVuSans-20" transform="translate(1746.341797 0)"/>
     <use xlink:href="#DejaVuSans-48" transform="translate(1778.128906 0)"/>
     <use xlink:href="#DejaVuSans-7a" transform="translate(1853.324219 0)"/>
     <use xlink:href="#DejaVuSans-29" transform="translate(1905.814453 0)"/>
    </g>
   </g>
   <g id="legend_1">
    <g id="patch_7">
     <path d="M 457.054687 64.534125 
L 558.2 64.534125 
Q 560.2 64.534125 560.2 62.534125 
L 560.2 48.856 
Q 560.2 46.856 558.2 46.856 
L 457.054687 46.856 
Q 455.054687 46.856 455.054687 48.856 
L 455.054687 62.534125 
Q 455.054687 64.534125 457.054687 64.534125 
z
" style="fill: #ffffff; opacity: 0.8; stroke: #cccccc; stroke-linejoin: miter"/>
    </g>
    <g id="line2d_27">
     <path d="M 459.054687 54.954438 
L 469.054687 54.954438 
L 479.054687 54.954438 
" style="fill: none; stroke-dasharray: 5.55,2.4; stroke-dashoffset: 0; stroke: #ff0000; stroke-opacity: 0.7; stroke-width: 1.5"/>
    </g>
    <g id="text_16">
     <!-- ~50 Hz cutoff -->
     <g transform="translate(487.054687 58.454438) scale(0.1 -0.1)">
      <defs>
       <path id="DejaVuSans-7e" d="M 4684 2553 
L 4684 1997 
Q 4356 1750 4076 1644 
Q 3797 1538 3494 1538 
Q 3150 1538 2694 1722 
Q 2659 1734 2644 1741 
Q 2622 1750 2575 1766 
Q 2091 1959 1797 1959 
Q 1522 1959 1253 1839 
Q 984 1719 678 1459 
L 678 2016 
Q 1006 2263 1286 2370 
Q 1566 2478 1869 2478 
Q 2213 2478 2672 2291 
Q 2703 2278 2719 2272 
Q 2744 2263 2788 2247 
Q 3272 2053 3566 2053 
Q 3834 2053 4098 2172 
Q 4363 2291 4684 2553 
z
" transform="scale(0.015625)"/>
       <path id="DejaVuSans-66" d="M 2375 4863 
L 2375 4384 
L 1825 4384 
Q 1516 4384 1395 4259 
Q 1275 4134 1275 3809 
L 1275 3500 
L 2222 3500 
L 2222 3053 
L 1275 3053 
L 1275 0 
L 697 0 
L 697 3053 
L 147 3053 
L 147 3500 
L 697 3500 
L 697 3744 
Q 697 4328 969 4595 
Q 1241 4863 1831 4863 
L 2375 4863 
z
" transform="scale(0.015625)"/>
      </defs>
      <use xlink:href="#DejaVuSans-7e"/>
      <use xlink:href="#DejaVuSans-35" transform="translate(83.789062 0)"/>
      <use xlink:href="#DejaVuSans-30" transform="translate(147.412109 0)"/>
      <use xlink:href="#DejaVuSans-20" transform="translate(211.035156 0)"/>
      <use xlink:href="#DejaVuSans-48" transform="translate(242.822266 0)"/>
      <use xlink:href="#DejaVuSans-7a" transform="translate(318.017578 0)"/>
      <use xlink:href="#DejaVuSans-20" transform="translate(370.507812 0)"/>
      <use xlink:href="#DejaVuSans-63" transform="translate(402.294922 0)"/>
      <use xlink:href="#DejaVuSans-75" transform="translate(457.275391 0)"/>
      <use xlink:href="#DejaVuSans-74" transform="translate(520.654297 0)"/>
      <use xlink:href="#DejaVuSans-6f" transform="translate(559.863281 0)"/>
      <use xlink:href="#DejaVuSans-66" transform="translate(621.044922 0)"/>
      <use xlink:href="#DejaVuSans-66" transform="translate(656.25 0)"/>
     </g>
    </g>
   </g>
  </g>
 </g>
 <defs>
  <clipPath id="p6d87c50046">
   <rect x="47.72" y="41.856" width="517.48" height="276.184"/>
  </clipPath>
 </defs>
</svg>
