<?xml version="1.0" encoding="utf-8" standalone="no"?>
<!DOCTYPE svg PUBLIC "-//W3C//DTD SVG 1.1//EN"
  "http://www.w3.org/Graphics/SVG/1.1/DTD/svg11.dtd">
<svg xmlns:xlink="http://www.w3.org/1999/xlink" width="576pt" height="432pt" viewBox="0 0 576 432" xmlns="http://www.w3.org/2000/svg" version="1.1">
 <metadata>
  <rdf:RDF xmlns:dc="http://purl.org/dc/elements/1.1/" xmlns:cc="http://creativecommons.org/ns#" xmlns:rdf="http://www.w3.org/1999/02/22-rdf-syntax-ns#">
   <cc:Work>
    <dc:type rdf:resource="http://purl.org/dc/dcmitype/StillImage"/>
    <dc:date>2025-09-15T12:09:18.602936</dc:date>
    <dc:format>image/svg+xml</dc:format>
    <dc:creator>
     <cc:Agent>
      <dc:title>Matplotlib v3.10.3, https://matplotlib.org/</dc:title>
     </cc:Agent>
    </dc:creator>
   </cc:Work>
  </rdf:RDF>
 </metadata>
 <defs>
  <style type="text/css">*{stroke-linejoin: round; stroke-linecap: butt}</style>
 </defs>
 <g id="figure_1">
  <g id="patch_1">
   <path d="M 0 432 
L 576 432 
L 576 0 
L 0 0 
z
" style="fill: #ffffff"/>
  </g>
  <g id="axes_1">
   <g id="patch_2">
    <path d="M 50.87 390.04 
L 565.2 390.04 
L 565.2 26.88 
L 50.87 26.88 
z
" style="fill: #ffffff"/>
   </g>
   <g id="patch_3">
    <path d="M 74.248636 390.04 
L 90.371834 390.04 
L 90.371834 300.370864 
L 74.248636 300.370864 
z
" clip-path="url(#p51f83d02cb)" style="fill: #808080; opacity: 0.6"/>
   </g>
   <g id="patch_4">
    <path d="M 90.371834 390.04 
L 106.495031 390.04 
L 106.495031 44.173333 
L 90.371834 44.173333 
z
" clip-path="url(#p51f83d02cb)" style="fill: #808080; opacity: 0.6"/>
   </g>
   <g id="patch_5">
    <path d="M 106.495031 390.04 
L 122.618229 390.04 
L 122.618229 272.189136 
L 106.495031 272.189136 
z
" clip-path="url(#p51f83d02cb)" style="fill: #808080; opacity: 0.6"/>
   </g>
   <g id="patch_6">
    <path d="M 122.618229 390.04 
L 138.741426 390.04 
L 138.741426 328.552593 
L 122.618229 328.552593 
z
" clip-path="url(#p51f83d02cb)" style="fill: #808080; opacity: 0.6"/>
   </g>
   <g id="patch_7">
    <path d="M 138.741426 390.04 
L 154.864624 390.04 
L 154.864624 336.238519 
L 138.741426 336.238519 
z
" clip-path="url(#p51f83d02cb)" style="fill: #808080; opacity: 0.6"/>
   </g>
   <g id="patch_8">
    <path d="M 154.864624 390.04 
L 170.987821 390.04 
L 170.987821 351.61037 
L 154.864624 351.61037 
z
" clip-path="url(#p51f83d02cb)" style="fill: #808080; opacity: 0.6"/>
   </g>
   <g id="patch_9">
    <path d="M 170.987821 390.04 
L 187.111019 390.04 
L 187.111019 352.891358 
L 170.987821 352.891358 
z
" clip-path="url(#p51f83d02cb)" style="fill: #808080; opacity: 0.6"/>
   </g>
   <g id="patch_10">
    <path d="M 187.111019 390.04 
L 203.234216 390.04 
L 203.234216 368.26321 
L 187.111019 368.26321 
z
" clip-path="url(#p51f83d02cb)" style="fill: #808080; opacity: 0.6"/>
   </g>
   <g id="patch_11">
    <path d="M 203.234216 390.04 
L 219.357414 390.04 
L 219.357414 368.26321 
L 203.234216 368.26321 
z
" clip-path="url(#p51f83d02cb)" style="fill: #808080; opacity: 0.6"/>
   </g>
   <g id="patch_12">
    <path d="M 219.357414 390.04 
L 235.480611 390.04 
L 235.480611 374.668148 
L 219.357414 374.668148 
z
" clip-path="url(#p51f83d02cb)" style="fill: #808080; opacity: 0.6"/>
   </g>
   <g id="patch_13">
    <path d="M 235.480611 390.04 
L 251.603809 390.04 
L 251.603809 365.701235 
L 235.480611 365.701235 
z
" clip-path="url(#p51f83d02cb)" style="fill: #808080; opacity: 0.6"/>
   </g>
   <g id="patch_14">
    <path d="M 251.603809 390.04 
L 267.727006 390.04 
L 267.727006 361.858272 
L 251.603809 361.858272 
z
" clip-path="url(#p51f83d02cb)" style="fill: #808080; opacity: 0.6"/>
   </g>
   <g id="patch_15">
    <path d="M 267.727006 390.04 
L 283.850204 390.04 
L 283.850204 364.420247 
L 267.727006 364.420247 
z
" clip-path="url(#p51f83d02cb)" style="fill: #808080; opacity: 0.6"/>
   </g>
   <g id="patch_16">
    <path d="M 283.850204 390.04 
L 299.973401 390.04 
L 299.973401 374.668148 
L 283.850204 374.668148 
z
" clip-path="url(#p51f83d02cb)" style="fill: #808080; opacity: 0.6"/>
   </g>
   <g id="patch_17">
    <path d="M 299.973401 390.04 
L 316.096599 390.04 
L 316.096599 378.511111 
L 299.973401 378.511111 
z
" clip-path="url(#p51f83d02cb)" style="fill: #808080; opacity: 0.6"/>
   </g>
   <g id="patch_18">
    <path d="M 316.096599 390.04 
L 332.219796 390.04 
L 332.219796 381.073086 
L 316.096599 381.073086 
z
" clip-path="url(#p51f83d02cb)" style="fill: #808080; opacity: 0.6"/>
   </g>
   <g id="patch_19">
    <path d="M 332.219796 390.04 
L 348.342994 390.04 
L 348.342994 382.354074 
L 332.219796 382.354074 
z
" clip-path="url(#p51f83d02cb)" style="fill: #808080; opacity: 0.6"/>
   </g>
   <g id="patch_20">
    <path d="M 348.342994 390.04 
L 364.466191 390.04 
L 364.466191 384.916049 
L 348.342994 384.916049 
z
" clip-path="url(#p51f83d02cb)" style="fill: #808080; opacity: 0.6"/>
   </g>
   <g id="patch_21">
    <path d="M 364.466191 390.04 
L 380.589389 390.04 
L 380.589389 388.759012 
L 364.466191 388.759012 
z
" clip-path="url(#p51f83d02cb)" style="fill: #808080; opacity: 0.6"/>
   </g>
   <g id="patch_22">
    <path d="M 380.589389 390.04 
L 396.712586 390.04 
L 396.712586 386.197037 
L 380.589389 386.197037 
z
" clip-path="url(#p51f83d02cb)" style="fill: #808080; opacity: 0.6"/>
   </g>
   <g id="patch_23">
    <path d="M 396.712586 390.04 
L 412.835784 390.04 
L 412.835784 388.759012 
L 396.712586 388.759012 
z
" clip-path="url(#p51f83d02cb)" style="fill: #808080; opacity: 0.6"/>
   </g>
   <g id="patch_24">
    <path d="M 412.835784 390.04 
L 428.958981 390.04 
L 428.958981 386.197037 
L 412.835784 386.197037 
z
" clip-path="url(#p51f83d02cb)" style="fill: #808080; opacity: 0.6"/>
   </g>
   <g id="patch_25">
    <path d="M 428.958981 390.04 
L 445.082179 390.04 
L 445.082179 387.478025 
L 428.958981 387.478025 
z
" clip-path="url(#p51f83d02cb)" style="fill: #808080; opacity: 0.6"/>
   </g>
   <g id="patch_26">
    <path d="M 445.082179 390.04 
L 461.205376 390.04 
L 461.205376 387.478025 
L 445.082179 387.478025 
z
" clip-path="url(#p51f83d02cb)" style="fill: #808080; opacity: 0.6"/>
   </g>
   <g id="patch_27">
    <path d="M 461.205376 390.04 
L 477.328574 390.04 
L 477.328574 390.04 
L 461.205376 390.04 
z
" clip-path="url(#p51f83d02cb)" style="fill: #808080; opacity: 0.6"/>
   </g>
   <g id="patch_28">
    <path d="M 477.328574 390.04 
L 493.451771 390.04 
L 493.451771 390.04 
L 477.328574 390.04 
z
" clip-path="url(#p51f83d02cb)" style="fill: #808080; opacity: 0.6"/>
   </g>
   <g id="patch_29">
    <path d="M 493.451771 390.04 
L 509.574969 390.04 
L 509.574969 390.04 
L 493.451771 390.04 
z
" clip-path="url(#p51f83d02cb)" style="fill: #808080; opacity: 0.6"/>
   </g>
   <g id="patch_30">
    <path d="M 509.574969 390.04 
L 525.698166 390.04 
L 525.698166 390.04 
L 509.574969 390.04 
z
" clip-path="url(#p51f83d02cb)" style="fill: #808080; opacity: 0.6"/>
   </g>
   <g id="patch_31">
    <path d="M 525.698166 390.04 
L 541.821364 390.04 
L 541.821364 387.478025 
L 525.698166 387.478025 
z
" clip-path="url(#p51f83d02cb)" style="fill: #808080; opacity: 0.6"/>
   </g>
   <g id="patch_32">
    <path d="M 74.248636 390.04 
L 90.371834 390.04 
L 90.371834 340.081481 
L 74.248636 340.081481 
z
" clip-path="url(#p51f83d02cb)" style="fill: #ff0000; opacity: 0.7"/>
   </g>
   <g id="patch_33">
    <path d="M 90.371834 390.04 
L 106.495031 390.04 
L 106.495031 220.94963 
L 90.371834 220.94963 
z
" clip-path="url(#p51f83d02cb)" style="fill: #ff0000; opacity: 0.7"/>
   </g>
   <g id="patch_34">
    <path d="M 106.495031 390.04 
L 122.618229 390.04 
L 122.618229 334.957531 
L 106.495031 334.957531 
z
" clip-path="url(#p51f83d02cb)" style="fill: #ff0000; opacity: 0.7"/>
   </g>
   <g id="patch_35">
    <path d="M 122.618229 390.04 
L 138.741426 390.04 
L 138.741426 366.982222 
L 122.618229 366.982222 
z
" clip-path="url(#p51f83d02cb)" style="fill: #ff0000; opacity: 0.7"/>
   </g>
   <g id="patch_36">
    <path d="M 138.741426 390.04 
L 154.864624 390.04 
L 154.864624 359.296296 
L 138.741426 359.296296 
z
" clip-path="url(#p51f83d02cb)" style="fill: #ff0000; opacity: 0.7"/>
   </g>
   <g id="patch_37">
    <path d="M 154.864624 390.04 
L 170.987821 390.04 
L 170.987821 370.825185 
L 154.864624 370.825185 
z
" clip-path="url(#p51f83d02cb)" style="fill: #ff0000; opacity: 0.7"/>
   </g>
   <g id="patch_38">
    <path d="M 170.987821 390.04 
L 187.111019 390.04 
L 187.111019 368.26321 
L 170.987821 368.26321 
z
" clip-path="url(#p51f83d02cb)" style="fill: #ff0000; opacity: 0.7"/>
   </g>
   <g id="patch_39">
    <path d="M 187.111019 390.04 
L 203.234216 390.04 
L 203.234216 373.38716 
L 187.111019 373.38716 
z
" clip-path="url(#p51f83d02cb)" style="fill: #ff0000; opacity: 0.7"/>
   </g>
   <g id="patch_40">
    <path d="M 203.234216 390.04 
L 219.357414 390.04 
L 219.357414 375.949136 
L 203.234216 375.949136 
z
" clip-path="url(#p51f83d02cb)" style="fill: #ff0000; opacity: 0.7"/>
   </g>
   <g id="patch_41">
    <path d="M 219.357414 390.04 
L 235.480611 390.04 
L 235.480611 382.354074 
L 219.357414 382.354074 
z
" clip-path="url(#p51f83d02cb)" style="fill: #ff0000; opacity: 0.7"/>
   </g>
   <g id="patch_42">
    <path d="M 235.480611 390.04 
L 251.603809 390.04 
L 251.603809 375.949136 
L 235.480611 375.949136 
z
" clip-path="url(#p51f83d02cb)" style="fill: #ff0000; opacity: 0.7"/>
   </g>
   <g id="patch_43">
    <path d="M 251.603809 390.04 
L 267.727006 390.04 
L 267.727006 381.073086 
L 251.603809 381.073086 
z
" clip-path="url(#p51f83d02cb)" style="fill: #ff0000; opacity: 0.7"/>
   </g>
   <g id="patch_44">
    <path d="M 267.727006 390.04 
L 283.850204 390.04 
L 283.850204 379.792099 
L 267.727006 379.792099 
z
" clip-path="url(#p51f83d02cb)" style="fill: #ff0000; opacity: 0.7"/>
   </g>
   <g id="patch_45">
    <path d="M 283.850204 390.04 
L 299.973401 390.04 
L 299.973401 384.916049 
L 283.850204 384.916049 
z
" clip-path="url(#p51f83d02cb)" style="fill: #ff0000; opacity: 0.7"/>
   </g>
   <g id="patch_46">
    <path d="M 299.973401 390.04 
L 316.096599 390.04 
L 316.096599 387.478025 
L 299.973401 387.478025 
z
" clip-path="url(#p51f83d02cb)" style="fill: #ff0000; opacity: 0.7"/>
   </g>
   <g id="patch_47">
    <path d="M 316.096599 390.04 
L 332.219796 390.04 
L 332.219796 384.916049 
L 316.096599 384.916049 
z
" clip-path="url(#p51f83d02cb)" style="fill: #ff0000; opacity: 0.7"/>
   </g>
   <g id="patch_48">
    <path d="M 332.219796 390.04 
L 348.342994 390.04 
L 348.342994 386.197037 
L 332.219796 386.197037 
z
" clip-path="url(#p51f83d02cb)" style="fill: #ff0000; opacity: 0.7"/>
   </g>
   <g id="patch_49">
    <path d="M 348.342994 390.04 
L 364.466191 390.04 
L 364.466191 386.197037 
L 348.342994 386.197037 
z
" clip-path="url(#p51f83d02cb)" style="fill: #ff0000; opacity: 0.7"/>
   </g>
   <g id="patch_50">
    <path d="M 364.466191 390.04 
L 380.589389 390.04 
L 380.589389 388.759012 
L 364.466191 388.759012 
z
" clip-path="url(#p51f83d02cb)" style="fill: #ff0000; opacity: 0.7"/>
   </g>
   <g id="patch_51">
    <path d="M 380.589389 390.04 
L 396.712586 390.04 
L 396.712586 388.759012 
L 380.589389 388.759012 
z
" clip-path="url(#p51f83d02cb)" style="fill: #ff0000; opacity: 0.7"/>
   </g>
   <g id="patch_52">
    <path d="M 396.712586 390.04 
L 412.835784 390.04 
L 412.835784 390.04 
L 396.712586 390.04 
z
" clip-path="url(#p51f83d02cb)" style="fill: #ff0000; opacity: 0.7"/>
   </g>
   <g id="patch_53">
    <path d="M 412.835784 390.04 
L 428.958981 390.04 
L 428.958981 390.04 
L 412.835784 390.04 
z
" clip-path="url(#p51f83d02cb)" style="fill: #ff0000; opacity: 0.7"/>
   </g>
   <g id="patch_54">
    <path d="M 428.958981 390.04 
L 445.082179 390.04 
L 445.082179 387.478025 
L 428.958981 387.478025 
z
" clip-path="url(#p51f83d02cb)" style="fill: #ff0000; opacity: 0.7"/>
   </g>
   <g id="patch_55">
    <path d="M 445.082179 390.04 
L 461.205376 390.04 
L 461.205376 387.478025 
L 445.082179 387.478025 
z
" clip-path="url(#p51f83d02cb)" style="fill: #ff0000; opacity: 0.7"/>
   </g>
   <g id="patch_56">
    <path d="M 461.205376 390.04 
L 477.328574 390.04 
L 477.328574 390.04 
L 461.205376 390.04 
z
" clip-path="url(#p51f83d02cb)" style="fill: #ff0000; opacity: 0.7"/>
   </g>
   <g id="patch_57">
    <path d="M 477.328574 390.04 
L 493.451771 390.04 
L 493.451771 390.04 
L 477.328574 390.04 
z
" clip-path="url(#p51f83d02cb)" style="fill: #ff0000; opacity: 0.7"/>
   </g>
   <g id="patch_58">
    <path d="M 493.451771 390.04 
L 509.574969 390.04 
L 509.574969 390.04 
L 493.451771 390.04 
z
" clip-path="url(#p51f83d02cb)" style="fill: #ff0000; opacity: 0.7"/>
   </g>
   <g id="patch_59">
    <path d="M 509.574969 390.04 
L 525.698166 390.04 
L 525.698166 390.04 
L 509.574969 390.04 
z
" clip-path="url(#p51f83d02cb)" style="fill: #ff0000; opacity: 0.7"/>
   </g>
   <g id="patch_60">
    <path d="M 525.698166 390.04 
L 541.821364 390.04 
L 541.821364 390.04 
L 525.698166 390.04 
z
" clip-path="url(#p51f83d02cb)" style="fill: #ff0000; opacity: 0.7"/>
   </g>
   <g id="patch_61">
    <path d="M 74.248636 390.04 
L 90.371834 390.04 
L 90.371834 350.329383 
L 74.248636 350.329383 
z
" clip-path="url(#p51f83d02cb)" style="fill: #0000ff; opacity: 0.7"/>
   </g>
   <g id="patch_62">
    <path d="M 90.371834 390.04 
L 106.495031 390.04 
L 106.495031 213.263704 
L 90.371834 213.263704 
z
" clip-path="url(#p51f83d02cb)" style="fill: #0000ff; opacity: 0.7"/>
   </g>
   <g id="patch_63">
    <path d="M 106.495031 390.04 
L 122.618229 390.04 
L 122.618229 327.271605 
L 106.495031 327.271605 
z
" clip-path="url(#p51f83d02cb)" style="fill: #0000ff; opacity: 0.7"/>
   </g>
   <g id="patch_64">
    <path d="M 122.618229 390.04 
L 138.741426 390.04 
L 138.741426 351.61037 
L 122.618229 351.61037 
z
" clip-path="url(#p51f83d02cb)" style="fill: #0000ff; opacity: 0.7"/>
   </g>
   <g id="patch_65">
    <path d="M 138.741426 390.04 
L 154.864624 390.04 
L 154.864624 366.982222 
L 138.741426 366.982222 
z
" clip-path="url(#p51f83d02cb)" style="fill: #0000ff; opacity: 0.7"/>
   </g>
   <g id="patch_66">
    <path d="M 154.864624 390.04 
L 170.987821 390.04 
L 170.987821 370.825185 
L 154.864624 370.825185 
z
" clip-path="url(#p51f83d02cb)" style="fill: #0000ff; opacity: 0.7"/>
   </g>
   <g id="patch_67">
    <path d="M 170.987821 390.04 
L 187.111019 390.04 
L 187.111019 374.668148 
L 170.987821 374.668148 
z
" clip-path="url(#p51f83d02cb)" style="fill: #0000ff; opacity: 0.7"/>
   </g>
   <g id="patch_68">
    <path d="M 187.111019 390.04 
L 203.234216 390.04 
L 203.234216 384.916049 
L 187.111019 384.916049 
z
" clip-path="url(#p51f83d02cb)" style="fill: #0000ff; opacity: 0.7"/>
   </g>
   <g id="patch_69">
    <path d="M 203.234216 390.04 
L 219.357414 390.04 
L 219.357414 382.354074 
L 203.234216 382.354074 
z
" clip-path="url(#p51f83d02cb)" style="fill: #0000ff; opacity: 0.7"/>
   </g>
   <g id="patch_70">
    <path d="M 219.357414 390.04 
L 235.480611 390.04 
L 235.480611 382.354074 
L 219.357414 382.354074 
z
" clip-path="url(#p51f83d02cb)" style="fill: #0000ff; opacity: 0.7"/>
   </g>
   <g id="patch_71">
    <path d="M 235.480611 390.04 
L 251.603809 390.04 
L 251.603809 379.792099 
L 235.480611 379.792099 
z
" clip-path="url(#p51f83d02cb)" style="fill: #0000ff; opacity: 0.7"/>
   </g>
   <g id="patch_72">
    <path d="M 251.603809 390.04 
L 267.727006 390.04 
L 267.727006 370.825185 
L 251.603809 370.825185 
z
" clip-path="url(#p51f83d02cb)" style="fill: #0000ff; opacity: 0.7"/>
   </g>
   <g id="patch_73">
    <path d="M 267.727006 390.04 
L 283.850204 390.04 
L 283.850204 374.668148 
L 267.727006 374.668148 
z
" clip-path="url(#p51f83d02cb)" style="fill: #0000ff; opacity: 0.7"/>
   </g>
   <g id="patch_74">
    <path d="M 283.850204 390.04 
L 299.973401 390.04 
L 299.973401 379.792099 
L 283.850204 379.792099 
z
" clip-path="url(#p51f83d02cb)" style="fill: #0000ff; opacity: 0.7"/>
   </g>
   <g id="patch_75">
    <path d="M 299.973401 390.04 
L 316.096599 390.04 
L 316.096599 381.073086 
L 299.973401 381.073086 
z
" clip-path="url(#p51f83d02cb)" style="fill: #0000ff; opacity: 0.7"/>
   </g>
   <g id="patch_76">
    <path d="M 316.096599 390.04 
L 332.219796 390.04 
L 332.219796 386.197037 
L 316.096599 386.197037 
z
" clip-path="url(#p51f83d02cb)" style="fill: #0000ff; opacity: 0.7"/>
   </g>
   <g id="patch_77">
    <path d="M 332.219796 390.04 
L 348.342994 390.04 
L 348.342994 386.197037 
L 332.219796 386.197037 
z
" clip-path="url(#p51f83d02cb)" style="fill: #0000ff; opacity: 0.7"/>
   </g>
   <g id="patch_78">
    <path d="M 348.342994 390.04 
L 364.466191 390.04 
L 364.466191 388.759012 
L 348.342994 388.759012 
z
" clip-path="url(#p51f83d02cb)" style="fill: #0000ff; opacity: 0.7"/>
   </g>
   <g id="patch_79">
    <path d="M 364.466191 390.04 
L 380.589389 390.04 
L 380.589389 390.04 
L 364.466191 390.04 
z
" clip-path="url(#p51f83d02cb)" style="fill: #0000ff; opacity: 0.7"/>
   </g>
   <g id="patch_80">
    <path d="M 380.589389 390.04 
L 396.712586 390.04 
L 396.712586 387.478025 
L 380.589389 387.478025 
z
" clip-path="url(#p51f83d02cb)" style="fill: #0000ff; opacity: 0.7"/>
   </g>
   <g id="patch_81">
    <path d="M 396.712586 390.04 
L 412.835784 390.04 
L 412.835784 388.759012 
L 396.712586 388.759012 
z
" clip-path="url(#p51f83d02cb)" style="fill: #0000ff; opacity: 0.7"/>
   </g>
   <g id="patch_82">
    <path d="M 412.835784 390.04 
L 428.958981 390.04 
L 428.958981 386.197037 
L 412.835784 386.197037 
z
" clip-path="url(#p51f83d02cb)" style="fill: #0000ff; opacity: 0.7"/>
   </g>
   <g id="patch_83">
    <path d="M 428.958981 390.04 
L 445.082179 390.04 
L 445.082179 390.04 
L 428.958981 390.04 
z
" clip-path="url(#p51f83d02cb)" style="fill: #0000ff; opacity: 0.7"/>
   </g>
   <g id="patch_84">
    <path d="M 445.082179 390.04 
L 461.205376 390.04 
L 461.205376 390.04 
L 445.082179 390.04 
z
" clip-path="url(#p51f83d02cb)" style="fill: #0000ff; opacity: 0.7"/>
   </g>
   <g id="patch_85">
    <path d="M 461.205376 390.04 
L 477.328574 390.04 
L 477.328574 390.04 
L 461.205376 390.04 
z
" clip-path="url(#p51f83d02cb)" style="fill: #0000ff; opacity: 0.7"/>
   </g>
   <g id="patch_86">
    <path d="M 477.328574 390.04 
L 493.451771 390.04 
L 493.451771 390.04 
L 477.328574 390.04 
z
" clip-path="url(#p51f83d02cb)" style="fill: #0000ff; opacity: 0.7"/>
   </g>
   <g id="patch_87">
    <path d="M 493.451771 390.04 
L 509.574969 390.04 
L 509.574969 390.04 
L 493.451771 390.04 
z
" clip-path="url(#p51f83d02cb)" style="fill: #0000ff; opacity: 0.7"/>
   </g>
   <g id="patch_88">
    <path d="M 509.574969 390.04 
L 525.698166 390.04 
L 525.698166 390.04 
L 509.574969 390.04 
z
" clip-path="url(#p51f83d02cb)" style="fill: #0000ff; opacity: 0.7"/>
   </g>
   <g id="patch_89">
    <path d="M 525.698166 390.04 
L 541.821364 390.04 
L 541.821364 387.478025 
L 525.698166 387.478025 
z
" clip-path="url(#p51f83d02cb)" style="fill: #0000ff; opacity: 0.7"/>
   </g>
   <g id="matplotlib.axis_1">
    <g id="xtick_1">
     <g id="line2d_1">
      <defs>
       <path id="me3677ffb89" d="M 0 0 
L 0 3.5 
" style="stroke: #000000; stroke-width: 0.8"/>
      </defs>
      <g>
       <use xlink:href="#me3677ffb89" x="110.746002" y="390.04" style="stroke: #000000; stroke-width: 0.8"/>
      </g>
     </g>
     <g id="text_1">
      <!-- 10 -->
      <g transform="translate(104.383502 404.638438) scale(0.1 -0.1)">
       <defs>
        <path id="DejaVuSans-31" d="M 794 531 
L 1825 531 
L 1825 4091 
L 703 3866 
L 703 4441 
L 1819 4666 
L 2450 4666 
L 2450 531 
L 3481 531 
L 3481 0 
L 794 0 
L 794 531 
z
" transform="scale(0.015625)"/>
        <path id="DejaVuSans-30" d="M 2034 4250 
Q 1547 4250 1301 3770 
Q 1056 3291 1056 2328 
Q 1056 1369 1301 889 
Q 1547 409 2034 409 
Q 2525 409 2770 889 
Q 3016 1369 3016 2328 
Q 3016 3291 2770 3770 
Q 2525 4250 2034 4250 
z
M 2034 4750 
Q 2819 4750 3233 4129 
Q 3647 3509 3647 2328 
Q 3647 1150 3233 529 
Q 2819 -91 2034 -91 
Q 1250 -91 836 529 
Q 422 1150 422 2328 
Q 422 3509 836 4129 
Q 1250 4750 2034 4750 
z
" transform="scale(0.015625)"/>
       </defs>
       <use xlink:href="#DejaVuSans-31"/>
       <use xlink:href="#DejaVuSans-30" transform="translate(63.623047 0)"/>
      </g>
     </g>
    </g>
    <g id="xtick_2">
     <g id="line2d_2">
      <g>
       <use xlink:href="#me3677ffb89" x="212.132329" y="390.04" style="stroke: #000000; stroke-width: 0.8"/>
      </g>
     </g>
     <g id="text_2">
      <!-- 20 -->
      <g transform="translate(205.769829 404.638438) scale(0.1 -0.1)">
       <defs>
        <path id="DejaVuSans-32" d="M 1228 531 
L 3431 531 
L 3431 0 
L 469 0 
L 469 531 
Q 828 903 1448 1529 
Q 2069 2156 2228 2338 
Q 2531 2678 2651 2914 
Q 2772 3150 2772 3378 
Q 2772 3750 2511 3984 
Q 2250 4219 1831 4219 
Q 1534 4219 1204 4116 
Q 875 4013 500 3803 
L 500 4441 
Q 881 4594 1212 4672 
Q 1544 4750 1819 4750 
Q 2544 4750 2975 4387 
Q 3406 4025 3406 3419 
Q 3406 3131 3298 2873 
Q 3191 2616 2906 2266 
Q 2828 2175 2409 1742 
Q 1991 1309 1228 531 
z
" transform="scale(0.015625)"/>
       </defs>
       <use xlink:href="#DejaVuSans-32"/>
       <use xlink:href="#DejaVuSans-30" transform="translate(63.623047 0)"/>
      </g>
     </g>
    </g>
    <g id="xtick_3">
     <g id="line2d_3">
      <g>
       <use xlink:href="#me3677ffb89" x="313.518656" y="390.04" style="stroke: #000000; stroke-width: 0.8"/>
      </g>
     </g>
     <g id="text_3">
      <!-- 30 -->
      <g transform="translate(307.156156 404.638438) scale(0.1 -0.1)">
       <defs>
        <path id="DejaVuSans-33" d="M 2597 2516 
Q 3050 2419 3304 2112 
Q 3559 1806 3559 1356 
Q 3559 666 3084 287 
Q 2609 -91 1734 -91 
Q 1441 -91 1130 -33 
Q 819 25 488 141 
L 488 750 
Q 750 597 1062 519 
Q 1375 441 1716 441 
Q 2309 441 2620 675 
Q 2931 909 2931 1356 
Q 2931 1769 2642 2001 
Q 2353 2234 1838 2234 
L 1294 2234 
L 1294 2753 
L 1863 2753 
Q 2328 2753 2575 2939 
Q 2822 3125 2822 3475 
Q 2822 3834 2567 4026 
Q 2313 4219 1838 4219 
Q 1578 4219 1281 4162 
Q 984 4106 628 3988 
L 628 4550 
Q 988 4650 1302 4700 
Q 1616 4750 1894 4750 
Q 2613 4750 3031 4423 
Q 3450 4097 3450 3541 
Q 3450 3153 3228 2886 
Q 3006 2619 2597 2516 
z
" transform="scale(0.015625)"/>
       </defs>
       <use xlink:href="#DejaVuSans-33"/>
       <use xlink:href="#DejaVuSans-30" transform="translate(63.623047 0)"/>
      </g>
     </g>
    </g>
    <g id="xtick_4">
     <g id="line2d_4">
      <g>
       <use xlink:href="#me3677ffb89" x="414.904983" y="390.04" style="stroke: #000000; stroke-width: 0.8"/>
      </g>
     </g>
     <g id="text_4">
      <!-- 40 -->
      <g transform="translate(408.542483 404.638438) scale(0.1 -0.1)">
       <defs>
        <path id="DejaVuSans-34" d="M 2419 4116 
L 825 1625 
L 2419 1625 
L 2419 4116 
z
M 2253 4666 
L 3047 4666 
L 3047 1625 
L 3713 1625 
L 3713 1100 
L 3047 1100 
L 3047 0 
L 2419 0 
L 2419 1100 
L 313 1100 
L 313 1709 
L 2253 4666 
z
" transform="scale(0.015625)"/>
       </defs>
       <use xlink:href="#DejaVuSans-34"/>
       <use xlink:href="#DejaVuSans-30" transform="translate(63.623047 0)"/>
      </g>
     </g>
    </g>
    <g id="xtick_5">
     <g id="line2d_5">
      <g>
       <use xlink:href="#me3677ffb89" x="516.291311" y="390.04" style="stroke: #000000; stroke-width: 0.8"/>
      </g>
     </g>
     <g id="text_5">
      <!-- 50 -->
      <g transform="translate(509.928811 404.638438) scale(0.1 -0.1)">
       <defs>
        <path id="DejaVuSans-35" d="M 691 4666 
L 3169 4666 
L 3169 4134 
L 1269 4134 
L 1269 2991 
Q 1406 3038 1543 3061 
Q 1681 3084 1819 3084 
Q 2600 3084 3056 2656 
Q 3513 2228 3513 1497 
Q 3513 744 3044 326 
Q 2575 -91 1722 -91 
Q 1428 -91 1123 -41 
Q 819 9 494 109 
L 494 744 
Q 775 591 1075 516 
Q 1375 441 1709 441 
Q 2250 441 2565 725 
Q 2881 1009 2881 1497 
Q 2881 1984 2565 2268 
Q 2250 2553 1709 2553 
Q 1456 2553 1204 2497 
Q 953 2441 691 2322 
L 691 4666 
z
" transform="scale(0.015625)"/>
       </defs>
       <use xlink:href="#DejaVuSans-35"/>
       <use xlink:href="#DejaVuSans-30" transform="translate(63.623047 0)"/>
      </g>
     </g>
    </g>
    <g id="text_6">
     <!-- Path Length (arbitrary units) -->
     <g transform="translate(237.067812 418.316562) scale(0.1 -0.1)">
      <defs>
       <path id="DejaVuSans-50" d="M 1259 4147 
L 1259 2394 
L 2053 2394 
Q 2494 2394 2734 2622 
Q 2975 2850 2975 3272 
Q 2975 3691 2734 3919 
Q 2494 4147 2053 4147 
L 1259 4147 
z
M 628 4666 
L 2053 4666 
Q 2838 4666 3239 4311 
Q 3641 3956 3641 3272 
Q 3641 2581 3239 2228 
Q 2838 1875 2053 1875 
L 1259 1875 
L 1259 0 
L 628 0 
L 628 4666 
z
" transform="scale(0.015625)"/>
       <path id="DejaVuSans-61" d="M 2194 1759 
Q 1497 1759 1228 1600 
Q 959 1441 959 1056 
Q 959 750 1161 570 
Q 1363 391 1709 391 
Q 2188 391 2477 730 
Q 2766 1069 2766 1631 
L 2766 1759 
L 2194 1759 
z
M 3341 1997 
L 3341 0 
L 2766 0 
L 2766 531 
Q 2569 213 2275 61 
Q 1981 -91 1556 -91 
Q 1019 -91 701 211 
Q 384 513 384 1019 
Q 384 1609 779 1909 
Q 1175 2209 1959 2209 
L 2766 2209 
L 2766 2266 
Q 2766 2663 2505 2880 
Q 2244 3097 1772 3097 
Q 1472 3097 1187 3025 
Q 903 2953 641 2809 
L 641 3341 
Q 956 3463 1253 3523 
Q 1550 3584 1831 3584 
Q 2591 3584 2966 3190 
Q 3341 2797 3341 1997 
z
" transform="scale(0.015625)"/>
       <path id="DejaVuSans-74" d="M 1172 4494 
L 1172 3500 
L 2356 3500 
L 2356 3053 
L 1172 3053 
L 1172 1153 
Q 1172 725 1289 603 
Q 1406 481 1766 481 
L 2356 481 
L 2356 0 
L 1766 0 
Q 1100 0 847 248 
Q 594 497 594 1153 
L 594 3053 
L 172 3053 
L 172 3500 
L 594 3500 
L 594 4494 
L 1172 4494 
z
" transform="scale(0.015625)"/>
       <path id="DejaVuSans-68" d="M 3513 2113 
L 3513 0 
L 2938 0 
L 2938 2094 
Q 2938 2591 2744 2837 
Q 2550 3084 2163 3084 
Q 1697 3084 1428 2787 
Q 1159 2491 1159 1978 
L 1159 0 
L 581 0 
L 581 4863 
L 1159 4863 
L 1159 2956 
Q 1366 3272 1645 3428 
Q 1925 3584 2291 3584 
Q 2894 3584 3203 3211 
Q 3513 2838 3513 2113 
z
" transform="scale(0.015625)"/>
       <path id="DejaVuSans-20" transform="scale(0.015625)"/>
       <path id="DejaVuSans-4c" d="M 628 4666 
L 1259 4666 
L 1259 531 
L 3531 531 
L 3531 0 
L 628 0 
L 628 4666 
z
" transform="scale(0.015625)"/>
       <path id="DejaVuSans-65" d="M 3597 1894 
L 3597 1613 
L 953 1613 
Q 991 1019 1311 708 
Q 1631 397 2203 397 
Q 2534 397 2845 478 
Q 3156 559 3463 722 
L 3463 178 
Q 3153 47 2828 -22 
Q 2503 -91 2169 -91 
Q 1331 -91 842 396 
Q 353 884 353 1716 
Q 353 2575 817 3079 
Q 1281 3584 2069 3584 
Q 2775 3584 3186 3129 
Q 3597 2675 3597 1894 
z
M 3022 2063 
Q 3016 2534 2758 2815 
Q 2500 3097 2075 3097 
Q 1594 3097 1305 2825 
Q 1016 2553 972 2059 
L 3022 2063 
z
" transform="scale(0.015625)"/>
       <path id="DejaVuSans-6e" d="M 3513 2113 
L 3513 0 
L 2938 0 
L 2938 2094 
Q 2938 2591 2744 2837 
Q 2550 3084 2163 3084 
Q 1697 3084 1428 2787 
Q 1159 2491 1159 1978 
L 1159 0 
L 581 0 
L 581 3500 
L 1159 3500 
L 1159 2956 
Q 1366 3272 1645 3428 
Q 1925 3584 2291 3584 
Q 2894 3584 3203 3211 
Q 3513 2838 3513 2113 
z
" transform="scale(0.015625)"/>
       <path id="DejaVuSans-67" d="M 2906 1791 
Q 2906 2416 2648 2759 
Q 2391 3103 1925 3103 
Q 1463 3103 1205 2759 
Q 947 2416 947 1791 
Q 947 1169 1205 825 
Q 1463 481 1925 481 
Q 2391 481 2648 825 
Q 2906 1169 2906 1791 
z
M 3481 434 
Q 3481 -459 3084 -895 
Q 2688 -1331 1869 -1331 
Q 1566 -1331 1297 -1286 
Q 1028 -1241 775 -1147 
L 775 -588 
Q 1028 -725 1275 -790 
Q 1522 -856 1778 -856 
Q 2344 -856 2625 -561 
Q 2906 -266 2906 331 
L 2906 616 
Q 2728 306 2450 153 
Q 2172 0 1784 0 
Q 1141 0 747 490 
Q 353 981 353 1791 
Q 353 2603 747 3093 
Q 1141 3584 1784 3584 
Q 2172 3584 2450 3431 
Q 2728 3278 2906 2969 
L 2906 3500 
L 3481 3500 
L 3481 434 
z
" transform="scale(0.015625)"/>
       <path id="DejaVuSans-28" d="M 1984 4856 
Q 1566 4138 1362 3434 
Q 1159 2731 1159 2009 
Q 1159 1288 1364 580 
Q 1569 -128 1984 -844 
L 1484 -844 
Q 1016 -109 783 600 
Q 550 1309 550 2009 
Q 550 2706 781 3412 
Q 1013 4119 1484 4856 
L 1984 4856 
z
" transform="scale(0.015625)"/>
       <path id="DejaVuSans-72" d="M 2631 2963 
Q 2534 3019 2420 3045 
Q 2306 3072 2169 3072 
Q 1681 3072 1420 2755 
Q 1159 2438 1159 1844 
L 1159 0 
L 581 0 
L 581 3500 
L 1159 3500 
L 1159 2956 
Q 1341 3275 1631 3429 
Q 1922 3584 2338 3584 
Q 2397 3584 2469 3576 
Q 2541 3569 2628 3553 
L 2631 2963 
z
" transform="scale(0.015625)"/>
       <path id="DejaVuSans-62" d="M 3116 1747 
Q 3116 2381 2855 2742 
Q 2594 3103 2138 3103 
Q 1681 3103 1420 2742 
Q 1159 2381 1159 1747 
Q 1159 1113 1420 752 
Q 1681 391 2138 391 
Q 2594 391 2855 752 
Q 3116 1113 3116 1747 
z
M 1159 2969 
Q 1341 3281 1617 3432 
Q 1894 3584 2278 3584 
Q 2916 3584 3314 3078 
Q 3713 2572 3713 1747 
Q 3713 922 3314 415 
Q 2916 -91 2278 -91 
Q 1894 -91 1617 61 
Q 1341 213 1159 525 
L 1159 0 
L 581 0 
L 581 4863 
L 1159 4863 
L 1159 2969 
z
" transform="scale(0.015625)"/>
       <path id="DejaVuSans-69" d="M 603 3500 
L 1178 3500 
L 1178 0 
L 603 0 
L 603 3500 
z
M 603 4863 
L 1178 4863 
L 1178 4134 
L 603 4134 
L 603 4863 
z
" transform="scale(0.015625)"/>
       <path id="DejaVuSans-79" d="M 2059 -325 
Q 1816 -950 1584 -1140 
Q 1353 -1331 966 -1331 
L 506 -1331 
L 506 -850 
L 844 -850 
Q 1081 -850 1212 -737 
Q 1344 -625 1503 -206 
L 1606 56 
L 191 3500 
L 800 3500 
L 1894 763 
L 2988 3500 
L 3597 3500 
L 2059 -325 
z
" transform="scale(0.015625)"/>
       <path id="DejaVuSans-75" d="M 544 1381 
L 544 3500 
L 1119 3500 
L 1119 1403 
Q 1119 906 1312 657 
Q 1506 409 1894 409 
Q 2359 409 2629 706 
Q 2900 1003 2900 1516 
L 2900 3500 
L 3475 3500 
L 3475 0 
L 2900 0 
L 2900 538 
Q 2691 219 2414 64 
Q 2138 -91 1772 -91 
Q 1169 -91 856 284 
Q 544 659 544 1381 
z
M 1991 3584 
L 1991 3584 
z
" transform="scale(0.015625)"/>
       <path id="DejaVuSans-73" d="M 2834 3397 
L 2834 2853 
Q 2591 2978 2328 3040 
Q 2066 3103 1784 3103 
Q 1356 3103 1142 2972 
Q 928 2841 928 2578 
Q 928 2378 1081 2264 
Q 1234 2150 1697 2047 
L 1894 2003 
Q 2506 1872 2764 1633 
Q 3022 1394 3022 966 
Q 3022 478 2636 193 
Q 2250 -91 1575 -91 
Q 1294 -91 989 -36 
Q 684 19 347 128 
L 347 722 
Q 666 556 975 473 
Q 1284 391 1588 391 
Q 1994 391 2212 530 
Q 2431 669 2431 922 
Q 2431 1156 2273 1281 
Q 2116 1406 1581 1522 
L 1381 1569 
Q 847 1681 609 1914 
Q 372 2147 372 2553 
Q 372 3047 722 3315 
Q 1072 3584 1716 3584 
Q 2034 3584 2315 3537 
Q 2597 3491 2834 3397 
z
" transform="scale(0.015625)"/>
       <path id="DejaVuSans-29" d="M 513 4856 
L 1013 4856 
Q 1481 4119 1714 3412 
Q 1947 2706 1947 2009 
Q 1947 1309 1714 600 
Q 1481 -109 1013 -844 
L 513 -844 
Q 928 -128 1133 580 
Q 1338 1288 1338 2009 
Q 1338 2731 1133 3434 
Q 928 4138 513 4856 
z
" transform="scale(0.015625)"/>
      </defs>
      <use xlink:href="#DejaVuSans-50"/>
      <use xlink:href="#DejaVuSans-61" transform="translate(55.802734 0)"/>
      <use xlink:href="#DejaVuSans-74" transform="translate(117.082031 0)"/>
      <use xlink:href="#DejaVuSans-68" transform="translate(156.291016 0)"/>
      <use xlink:href="#DejaVuSans-20" transform="translate(219.669922 0)"/>
      <use xlink:href="#DejaVuSans-4c" transform="translate(251.457031 0)"/>
      <use xlink:href="#DejaVuSans-65" transform="translate(305.419922 0)"/>
      <use xlink:href="#DejaVuSans-6e" transform="translate(366.943359 0)"/>
      <use xlink:href="#DejaVuSans-67" transform="translate(430.322266 0)"/>
      <use xlink:href="#DejaVuSans-74" transform="translate(493.798828 0)"/>
      <use xlink:href="#DejaVuSans-68" transform="translate(533.007812 0)"/>
      <use xlink:href="#DejaVuSans-20" transform="translate(596.386719 0)"/>
      <use xlink:href="#DejaVuSans-28" transform="translate(628.173828 0)"/>
      <use xlink:href="#DejaVuSans-61" transform="translate(667.1875 0)"/>
      <use xlink:href="#DejaVuSans-72" transform="translate(728.466797 0)"/>
      <use xlink:href="#DejaVuSans-62" transform="translate(769.580078 0)"/>
      <use xlink:href="#DejaVuSans-69" transform="translate(833.056641 0)"/>
      <use xlink:href="#DejaVuSans-74" transform="translate(860.839844 0)"/>
      <use xlink:href="#DejaVuSans-72" transform="translate(900.048828 0)"/>
      <use xlink:href="#DejaVuSans-61" transform="translate(941.162109 0)"/>
      <use xlink:href="#DejaVuSans-72" transform="translate(1002.441406 0)"/>
      <use xlink:href="#DejaVuSans-79" transform="translate(1043.554688 0)"/>
      <use xlink:href="#DejaVuSans-20" transform="translate(1102.734375 0)"/>
      <use xlink:href="#DejaVuSans-75" transform="translate(1134.521484 0)"/>
      <use xlink:href="#DejaVuSans-6e" transform="translate(1197.900391 0)"/>
      <use xlink:href="#DejaVuSans-69" transform="translate(1261.279297 0)"/>
      <use xlink:href="#DejaVuSans-74" transform="translate(1289.0625 0)"/>
      <use xlink:href="#DejaVuSans-73" transform="translate(1328.271484 0)"/>
      <use xlink:href="#DejaVuSans-29" transform="translate(1380.371094 0)"/>
     </g>
    </g>
   </g>
   <g id="matplotlib.axis_2">
    <g id="ytick_1">
     <g id="line2d_6">
      <defs>
       <path id="mcfac6d53ff" d="M 0 0 
L -3.5 0 
" style="stroke: #000000; stroke-width: 0.8"/>
      </defs>
      <g>
       <use xlink:href="#mcfac6d53ff" x="50.87" y="390.04" style="stroke: #000000; stroke-width: 0.8"/>
      </g>
     </g>
     <g id="text_7">
      <!-- 0 -->
      <g transform="translate(37.5075 393.839219) scale(0.1 -0.1)">
       <use xlink:href="#DejaVuSans-30"/>
      </g>
     </g>
    </g>
    <g id="ytick_2">
     <g id="line2d_7">
      <g>
       <use xlink:href="#mcfac6d53ff" x="50.87" y="325.990617" style="stroke: #000000; stroke-width: 0.8"/>
      </g>
     </g>
     <g id="text_8">
      <!-- 50 -->
      <g transform="translate(31.145 329.789836) scale(0.1 -0.1)">
       <use xlink:href="#DejaVuSans-35"/>
       <use xlink:href="#DejaVuSans-30" transform="translate(63.623047 0)"/>
      </g>
     </g>
    </g>
    <g id="ytick_3">
     <g id="line2d_8">
      <g>
       <use xlink:href="#mcfac6d53ff" x="50.87" y="261.941235" style="stroke: #000000; stroke-width: 0.8"/>
      </g>
     </g>
     <g id="text_9">
      <!-- 100 -->
      <g transform="translate(24.7825 265.740453) scale(0.1 -0.1)">
       <use xlink:href="#DejaVuSans-31"/>
       <use xlink:href="#DejaVuSans-30" transform="translate(63.623047 0)"/>
       <use xlink:href="#DejaVuSans-30" transform="translate(127.246094 0)"/>
      </g>
     </g>
    </g>
    <g id="ytick_4">
     <g id="line2d_9">
      <g>
       <use xlink:href="#mcfac6d53ff" x="50.87" y="197.891852" style="stroke: #000000; stroke-width: 0.8"/>
      </g>
     </g>
     <g id="text_10">
      <!-- 150 -->
      <g transform="translate(24.7825 201.691071) scale(0.1 -0.1)">
       <use xlink:href="#DejaVuSans-31"/>
       <use xlink:href="#DejaVuSans-35" transform="translate(63.623047 0)"/>
       <use xlink:href="#DejaVuSans-30" transform="translate(127.246094 0)"/>
      </g>
     </g>
    </g>
    <g id="ytick_5">
     <g id="line2d_10">
      <g>
       <use xlink:href="#mcfac6d53ff" x="50.87" y="133.842469" style="stroke: #000000; stroke-width: 0.8"/>
      </g>
     </g>
     <g id="text_11">
      <!-- 200 -->
      <g transform="translate(24.7825 137.641688) scale(0.1 -0.1)">
       <use xlink:href="#DejaVuSans-32"/>
       <use xlink:href="#DejaVuSans-30" transform="translate(63.623047 0)"/>
       <use xlink:href="#DejaVuSans-30" transform="translate(127.246094 0)"/>
      </g>
     </g>
    </g>
    <g id="ytick_6">
     <g id="line2d_11">
      <g>
       <use xlink:href="#mcfac6d53ff" x="50.87" y="69.793086" style="stroke: #000000; stroke-width: 0.8"/>
      </g>
     </g>
     <g id="text_12">
      <!-- 250 -->
      <g transform="translate(24.7825 73.592305) scale(0.1 -0.1)">
       <use xlink:href="#DejaVuSans-32"/>
       <use xlink:href="#DejaVuSans-35" transform="translate(63.623047 0)"/>
       <use xlink:href="#DejaVuSans-30" transform="translate(127.246094 0)"/>
      </g>
     </g>
    </g>
    <g id="text_13">
     <!-- Number of Trials -->
     <g transform="translate(18.702813 249.362344) rotate(-90) scale(0.1 -0.1)">
      <defs>
       <path id="DejaVuSans-4e" d="M 628 4666 
L 1478 4666 
L 3547 763 
L 3547 4666 
L 4159 4666 
L 4159 0 
L 3309 0 
L 1241 3903 
L 1241 0 
L 628 0 
L 628 4666 
z
" transform="scale(0.015625)"/>
       <path id="DejaVuSans-6d" d="M 3328 2828 
Q 3544 3216 3844 3400 
Q 4144 3584 4550 3584 
Q 5097 3584 5394 3201 
Q 5691 2819 5691 2113 
L 5691 0 
L 5113 0 
L 5113 2094 
Q 5113 2597 4934 2840 
Q 4756 3084 4391 3084 
Q 3944 3084 3684 2787 
Q 3425 2491 3425 1978 
L 3425 0 
L 2847 0 
L 2847 2094 
Q 2847 2600 2669 2842 
Q 2491 3084 2119 3084 
Q 1678 3084 1418 2786 
Q 1159 2488 1159 1978 
L 1159 0 
L 581 0 
L 581 3500 
L 1159 3500 
L 1159 2956 
Q 1356 3278 1631 3431 
Q 1906 3584 2284 3584 
Q 2666 3584 2933 3390 
Q 3200 3197 3328 2828 
z
" transform="scale(0.015625)"/>
       <path id="DejaVuSans-6f" d="M 1959 3097 
Q 1497 3097 1228 2736 
Q 959 2375 959 1747 
Q 959 1119 1226 758 
Q 1494 397 1959 397 
Q 2419 397 2687 759 
Q 2956 1122 2956 1747 
Q 2956 2369 2687 2733 
Q 2419 3097 1959 3097 
z
M 1959 3584 
Q 2709 3584 3137 3096 
Q 3566 2609 3566 1747 
Q 3566 888 3137 398 
Q 2709 -91 1959 -91 
Q 1206 -91 779 398 
Q 353 888 353 1747 
Q 353 2609 779 3096 
Q 1206 3584 1959 3584 
z
" transform="scale(0.015625)"/>
       <path id="DejaVuSans-66" d="M 2375 4863 
L 2375 4384 
L 1825 4384 
Q 1516 4384 1395 4259 
Q 1275 4134 1275 3809 
L 1275 3500 
L 2222 3500 
L 2222 3053 
L 1275 3053 
L 1275 0 
L 697 0 
L 697 3053 
L 147 3053 
L 147 3500 
L 697 3500 
L 697 3744 
Q 697 4328 969 4595 
Q 1241 4863 1831 4863 
L 2375 4863 
z
" transform="scale(0.015625)"/>
       <path id="DejaVuSans-54" d="M -19 4666 
L 3928 4666 
L 3928 4134 
L 2272 4134 
L 2272 0 
L 1638 0 
L 1638 4134 
L -19 4134 
L -19 4666 
z
" transform="scale(0.015625)"/>
       <path id="DejaVuSans-6c" d="M 603 4863 
L 1178 4863 
L 1178 0 
L 603 0 
L 603 4863 
z
" transform="scale(0.015625)"/>
      </defs>
      <use xlink:href="#DejaVuSans-4e"/>
      <use xlink:href="#DejaVuSans-75" transform="translate(74.804688 0)"/>
      <use xlink:href="#DejaVuSans-6d" transform="translate(138.183594 0)"/>
      <use xlink:href="#DejaVuSans-62" transform="translate(235.595703 0)"/>
      <use xlink:href="#DejaVuSans-65" transform="translate(299.072266 0)"/>
      <use xlink:href="#DejaVuSans-72" transform="translate(360.595703 0)"/>
      <use xlink:href="#DejaVuSans-20" transform="translate(401.708984 0)"/>
      <use xlink:href="#DejaVuSans-6f" transform="translate(433.496094 0)"/>
      <use xlink:href="#DejaVuSans-66" transform="translate(494.677734 0)"/>
      <use xlink:href="#DejaVuSans-20" transform="translate(529.882812 0)"/>
      <use xlink:href="#DejaVuSans-54" transform="translate(561.669922 0)"/>
      <use xlink:href="#DejaVuSans-72" transform="translate(608.003906 0)"/>
      <use xlink:href="#DejaVuSans-69" transform="translate(649.117188 0)"/>
      <use xlink:href="#DejaVuSans-61" transform="translate(676.900391 0)"/>
      <use xlink:href="#DejaVuSans-6c" transform="translate(738.179688 0)"/>
      <use xlink:href="#DejaVuSans-73" transform="translate(765.962891 0)"/>
     </g>
    </g>
   </g>
   <g id="line2d_12">
    <path d="M 144.77031 306.775802 
L 144.77031 300.370864 
L 149.228867 300.370864 
L 149.228867 306.775802 
" clip-path="url(#p51f83d02cb)" style="fill: none; stroke: #000000; stroke-width: 1.5; stroke-linecap: square"/>
   </g>
   <g id="line2d_13">
    <path d="M 74.248636 390.04 
L 74.248636 26.88 
" clip-path="url(#p51f83d02cb)" style="fill: none; stroke-dasharray: 5.55,2.4; stroke-dashoffset: 0; stroke: #000000; stroke-opacity: 0.5; stroke-width: 1.5"/>
   </g>
   <g id="line2d_14">
    <path d="M 97.363469 390.04 
L 97.363469 26.88 
" clip-path="url(#p51f83d02cb)" style="fill: none; stroke-dasharray: 5.55,2.4; stroke-dashoffset: 0; stroke: #000000; stroke-opacity: 0.5; stroke-width: 1.5"/>
   </g>
   <g id="line2d_15">
    <path d="M 109.605163 390.04 
L 109.605163 26.88 
" clip-path="url(#p51f83d02cb)" style="fill: none; stroke-dasharray: 5.55,2.4; stroke-dashoffset: 0; stroke: #000000; stroke-opacity: 0.5; stroke-width: 1.5"/>
   </g>
   <g id="line2d_16">
    <path d="M 171.873235 390.04 
L 171.873235 26.88 
" clip-path="url(#p51f83d02cb)" style="fill: none; stroke-dasharray: 5.55,2.4; stroke-dashoffset: 0; stroke: #000000; stroke-opacity: 0.5; stroke-width: 1.5"/>
   </g>
   <g id="line2d_17">
    <path d="M 541.821364 390.04 
L 541.821364 26.88 
" clip-path="url(#p51f83d02cb)" style="fill: none; stroke-dasharray: 5.55,2.4; stroke-dashoffset: 0; stroke: #000000; stroke-opacity: 0.5; stroke-width: 1.5"/>
   </g>
   <g id="patch_90">
    <path d="M 50.87 390.04 
L 50.87 26.88 
" style="fill: none; stroke: #000000; stroke-width: 0.8; stroke-linejoin: miter; stroke-linecap: square"/>
   </g>
   <g id="patch_91">
    <path d="M 565.2 390.04 
L 565.2 26.88 
" style="fill: none; stroke: #000000; stroke-width: 0.8; stroke-linejoin: miter; stroke-linecap: square"/>
   </g>
   <g id="patch_92">
    <path d="M 50.87 390.04 
L 565.2 390.04 
" style="fill: none; stroke: #000000; stroke-width: 0.8; stroke-linejoin: miter; stroke-linecap: square"/>
   </g>
   <g id="patch_93">
    <path d="M 50.87 26.88 
L 565.2 26.88 
" style="fill: none; stroke: #000000; stroke-width: 0.8; stroke-linejoin: miter; stroke-linecap: square"/>
   </g>
   <g id="text_14">
    <!-- n.s. -->
    <g transform="translate(138.048026 298.291177) scale(0.1 -0.1)">
     <defs>
      <path id="DejaVuSans-2e" d="M 684 794 
L 1344 794 
L 1344 0 
L 684 0 
L 684 794 
z
" transform="scale(0.015625)"/>
     </defs>
     <use xlink:href="#DejaVuSans-6e"/>
     <use xlink:href="#DejaVuSans-2e" transform="translate(63.378906 0)"/>
     <use xlink:href="#DejaVuSans-73" transform="translate(95.166016 0)"/>
     <use xlink:href="#DejaVuSans-2e" transform="translate(147.265625 0)"/>
    </g>
   </g>
   <g id="text_15">
    <!-- Distribution of Path Lengths (0-0.3s) -->
    <g transform="translate(199.28875 20.88) scale(0.12 -0.12)">
     <defs>
      <path id="DejaVuSans-44" d="M 1259 4147 
L 1259 519 
L 2022 519 
Q 2988 519 3436 956 
Q 3884 1394 3884 2338 
Q 3884 3275 3436 3711 
Q 2988 4147 2022 4147 
L 1259 4147 
z
M 628 4666 
L 1925 4666 
Q 3281 4666 3915 4102 
Q 4550 3538 4550 2338 
Q 4550 1131 3912 565 
Q 3275 0 1925 0 
L 628 0 
L 628 4666 
z
" transform="scale(0.015625)"/>
      <path id="DejaVuSans-2d" d="M 313 2009 
L 1997 2009 
L 1997 1497 
L 313 1497 
L 313 2009 
z
" transform="scale(0.015625)"/>
     </defs>
     <use xlink:href="#DejaVuSans-44"/>
     <use xlink:href="#DejaVuSans-69" transform="translate(77.001953 0)"/>
     <use xlink:href="#DejaVuSans-73" transform="translate(104.785156 0)"/>
     <use xlink:href="#DejaVuSans-74" transform="translate(156.884766 0)"/>
     <use xlink:href="#DejaVuSans-72" transform="translate(196.09375 0)"/>
     <use xlink:href="#DejaVuSans-69" transform="translate(237.207031 0)"/>
     <use xlink:href="#DejaVuSans-62" transform="translate(264.990234 0)"/>
     <use xlink:href="#DejaVuSans-75" transform="translate(328.466797 0)"/>
     <use xlink:href="#DejaVuSans-74" transform="translate(391.845703 0)"/>
     <use xlink:href="#DejaVuSans-69" transform="translate(431.054688 0)"/>
     <use xlink:href="#DejaVuSans-6f" transform="translate(458.837891 0)"/>
     <use xlink:href="#DejaVuSans-6e" transform="translate(520.019531 0)"/>
     <use xlink:href="#DejaVuSans-20" transform="translate(583.398438 0)"/>
     <use xlink:href="#DejaVuSans-6f" transform="translate(615.185547 0)"/>
     <use xlink:href="#DejaVuSans-66" transform="translate(676.367188 0)"/>
     <use xlink:href="#DejaVuSans-20" transform="translate(711.572266 0)"/>
     <use xlink:href="#DejaVuSans-50" transform="translate(743.359375 0)"/>
     <use xlink:href="#DejaVuSans-61" transform="translate(799.162109 0)"/>
     <use xlink:href="#DejaVuSans-74" transform="translate(860.441406 0)"/>
     <use xlink:href="#DejaVuSans-68" transform="translate(899.650391 0)"/>
     <use xlink:href="#DejaVuSans-20" transform="translate(963.029297 0)"/>
     <use xlink:href="#DejaVuSans-4c" transform="translate(994.816406 0)"/>
     <use xlink:href="#DejaVuSans-65" transform="translate(1048.779297 0)"/>
     <use xlink:href="#DejaVuSans-6e" transform="translate(1110.302734 0)"/>
     <use xlink:href="#DejaVuSans-67" transform="translate(1173.681641 0)"/>
     <use xlink:href="#DejaVuSans-74" transform="translate(1237.158203 0)"/>
     <use xlink:href="#DejaVuSans-68" transform="translate(1276.367188 0)"/>
     <use xlink:href="#DejaVuSans-73" transform="translate(1339.746094 0)"/>
     <use xlink:href="#DejaVuSans-20" transform="translate(1391.845703 0)"/>
     <use xlink:href="#DejaVuSans-28" transform="translate(1423.632812 0)"/>
     <use xlink:href="#DejaVuSans-30" transform="translate(1462.646484 0)"/>
     <use xlink:href="#DejaVuSans-2d" transform="translate(1526.269531 0)"/>
     <use xlink:href="#DejaVuSans-30" transform="translate(1562.353516 0)"/>
     <use xlink:href="#DejaVuSans-2e" transform="translate(1625.976562 0)"/>
     <use xlink:href="#DejaVuSans-33" transform="translate(1657.763672 0)"/>
     <use xlink:href="#DejaVuSans-73" transform="translate(1721.386719 0)"/>
     <use xlink:href="#DejaVuSans-29" transform="translate(1773.486328 0)"/>
    </g>
   </g>
   <g id="PathCollection_1">
    <defs>
     <path id="m0b4e5c9f9d" d="M -0 5 
L 5 -5 
L -5 -5 
z
" style="stroke: #ff0000"/>
    </defs>
    <g clip-path="url(#p51f83d02cb)">
     <use xlink:href="#m0b4e5c9f9d" x="144.77031" y="313.180741" style="fill: #ff0000; stroke: #ff0000"/>
    </g>
   </g>
   <g id="PathCollection_2">
    <defs>
     <path id="m8c726bb759" d="M -0 5 
L 5 -5 
L -5 -5 
z
" style="stroke: #0000ff"/>
    </defs>
    <g clip-path="url(#p51f83d02cb)">
     <use xlink:href="#m8c726bb759" x="149.228867" y="313.180741" style="fill: #0000ff; stroke: #0000ff"/>
    </g>
   </g>
   <g id="legend_1">
    <g id="patch_94">
     <path d="M 247.339687 122.94875 
L 368.730312 122.94875 
Q 370.730312 122.94875 370.730312 120.94875 
L 370.730312 33.88 
Q 370.730312 31.88 368.730312 31.88 
L 247.339687 31.88 
Q 245.339687 31.88 245.339687 33.88 
L 245.339687 120.94875 
Q 245.339687 122.94875 247.339687 122.94875 
z
" style="fill: #ffffff; opacity: 0.8; stroke: #cccccc; stroke-linejoin: miter"/>
    </g>
    <g id="patch_95">
     <path d="M 249.339687 43.478438 
L 269.339687 43.478438 
L 269.339687 36.478438 
L 249.339687 36.478438 
z
" style="fill: #808080; opacity: 0.6"/>
    </g>
    <g id="text_16">
     <!-- All Trials -->
     <g transform="translate(277.339687 43.478438) scale(0.1 -0.1)">
      <defs>
       <path id="DejaVuSans-41" d="M 2188 4044 
L 1331 1722 
L 3047 1722 
L 2188 4044 
z
M 1831 4666 
L 2547 4666 
L 4325 0 
L 3669 0 
L 3244 1197 
L 1141 1197 
L 716 0 
L 50 0 
L 1831 4666 
z
" transform="scale(0.015625)"/>
      </defs>
      <use xlink:href="#DejaVuSans-41"/>
      <use xlink:href="#DejaVuSans-6c" transform="translate(68.408203 0)"/>
      <use xlink:href="#DejaVuSans-6c" transform="translate(96.191406 0)"/>
      <use xlink:href="#DejaVuSans-20" transform="translate(123.974609 0)"/>
      <use xlink:href="#DejaVuSans-54" transform="translate(155.761719 0)"/>
      <use xlink:href="#DejaVuSans-72" transform="translate(202.095703 0)"/>
      <use xlink:href="#DejaVuSans-69" transform="translate(243.208984 0)"/>
      <use xlink:href="#DejaVuSans-61" transform="translate(270.992188 0)"/>
      <use xlink:href="#DejaVuSans-6c" transform="translate(332.271484 0)"/>
      <use xlink:href="#DejaVuSans-73" transform="translate(360.054688 0)"/>
     </g>
    </g>
    <g id="patch_96">
     <path d="M 249.339687 58.156563 
L 269.339687 58.156563 
L 269.339687 51.156563 
L 249.339687 51.156563 
z
" style="fill: #ff0000; opacity: 0.7"/>
    </g>
    <g id="text_17">
     <!-- Attended -->
     <g transform="translate(277.339687 58.156563) scale(0.1 -0.1)">
      <defs>
       <path id="DejaVuSans-64" d="M 2906 2969 
L 2906 4863 
L 3481 4863 
L 3481 0 
L 2906 0 
L 2906 525 
Q 2725 213 2448 61 
Q 2172 -91 1784 -91 
Q 1150 -91 751 415 
Q 353 922 353 1747 
Q 353 2572 751 3078 
Q 1150 3584 1784 3584 
Q 2172 3584 2448 3432 
Q 2725 3281 2906 2969 
z
M 947 1747 
Q 947 1113 1208 752 
Q 1469 391 1925 391 
Q 2381 391 2643 752 
Q 2906 1113 2906 1747 
Q 2906 2381 2643 2742 
Q 2381 3103 1925 3103 
Q 1469 3103 1208 2742 
Q 947 2381 947 1747 
z
" transform="scale(0.015625)"/>
      </defs>
      <use xlink:href="#DejaVuSans-41"/>
      <use xlink:href="#DejaVuSans-74" transform="translate(66.658203 0)"/>
      <use xlink:href="#DejaVuSans-74" transform="translate(105.867188 0)"/>
      <use xlink:href="#DejaVuSans-65" transform="translate(145.076172 0)"/>
      <use xlink:href="#DejaVuSans-6e" transform="translate(206.599609 0)"/>
      <use xlink:href="#DejaVuSans-64" transform="translate(269.978516 0)"/>
      <use xlink:href="#DejaVuSans-65" transform="translate(333.455078 0)"/>
      <use xlink:href="#DejaVuSans-64" transform="translate(394.978516 0)"/>
     </g>
    </g>
    <g id="patch_97">
     <path d="M 249.339687 72.834688 
L 269.339687 72.834688 
L 269.339687 65.834688 
L 249.339687 65.834688 
z
" style="fill: #0000ff; opacity: 0.7"/>
    </g>
    <g id="text_18">
     <!-- Unattended -->
     <g transform="translate(277.339687 72.834688) scale(0.1 -0.1)">
      <defs>
       <path id="DejaVuSans-55" d="M 556 4666 
L 1191 4666 
L 1191 1831 
Q 1191 1081 1462 751 
Q 1734 422 2344 422 
Q 2950 422 3222 751 
Q 3494 1081 3494 1831 
L 3494 4666 
L 4128 4666 
L 4128 1753 
Q 4128 841 3676 375 
Q 3225 -91 2344 -91 
Q 1459 -91 1007 375 
Q 556 841 556 1753 
L 556 4666 
z
" transform="scale(0.015625)"/>
      </defs>
      <use xlink:href="#DejaVuSans-55"/>
      <use xlink:href="#DejaVuSans-6e" transform="translate(73.193359 0)"/>
      <use xlink:href="#DejaVuSans-61" transform="translate(136.572266 0)"/>
      <use xlink:href="#DejaVuSans-74" transform="translate(197.851562 0)"/>
      <use xlink:href="#DejaVuSans-74" transform="translate(237.060547 0)"/>
      <use xlink:href="#DejaVuSans-65" transform="translate(276.269531 0)"/>
      <use xlink:href="#DejaVuSans-6e" transform="translate(337.792969 0)"/>
      <use xlink:href="#DejaVuSans-64" transform="translate(401.171875 0)"/>
      <use xlink:href="#DejaVuSans-65" transform="translate(464.648438 0)"/>
      <use xlink:href="#DejaVuSans-64" transform="translate(526.171875 0)"/>
     </g>
    </g>
    <g id="PathCollection_3">
     <g>
      <use xlink:href="#m0b4e5c9f9d" x="259.339687" y="84.887813" style="fill: #ff0000; stroke: #ff0000"/>
     </g>
    </g>
    <g id="text_19">
     <!-- Attended Mean -->
     <g transform="translate(277.339687 87.512813) scale(0.1 -0.1)">
      <defs>
       <path id="DejaVuSans-4d" d="M 628 4666 
L 1569 4666 
L 2759 1491 
L 3956 4666 
L 4897 4666 
L 4897 0 
L 4281 0 
L 4281 4097 
L 3078 897 
L 2444 897 
L 1241 4097 
L 1241 0 
L 628 0 
L 628 4666 
z
" transform="scale(0.015625)"/>
      </defs>
      <use xlink:href="#DejaVuSans-41"/>
      <use xlink:href="#DejaVuSans-74" transform="translate(66.658203 0)"/>
      <use xlink:href="#DejaVuSans-74" transform="translate(105.867188 0)"/>
      <use xlink:href="#DejaVuSans-65" transform="translate(145.076172 0)"/>
      <use xlink:href="#DejaVuSans-6e" transform="translate(206.599609 0)"/>
      <use xlink:href="#DejaVuSans-64" transform="translate(269.978516 0)"/>
      <use xlink:href="#DejaVuSans-65" transform="translate(333.455078 0)"/>
      <use xlink:href="#DejaVuSans-64" transform="translate(394.978516 0)"/>
      <use xlink:href="#DejaVuSans-20" transform="translate(458.455078 0)"/>
      <use xlink:href="#DejaVuSans-4d" transform="translate(490.242188 0)"/>
      <use xlink:href="#DejaVuSans-65" transform="translate(576.521484 0)"/>
      <use xlink:href="#DejaVuSans-61" transform="translate(638.044922 0)"/>
      <use xlink:href="#DejaVuSans-6e" transform="translate(699.324219 0)"/>
     </g>
    </g>
    <g id="PathCollection_4">
     <g>
      <use xlink:href="#m8c726bb759" x="259.339687" y="99.565938" style="fill: #0000ff; stroke: #0000ff"/>
     </g>
    </g>
    <g id="text_20">
     <!-- Unattended Mean -->
     <g transform="translate(277.339687 102.190938) scale(0.1 -0.1)">
      <use xlink:href="#DejaVuSans-55"/>
      <use xlink:href="#DejaVuSans-6e" transform="translate(73.193359 0)"/>
      <use xlink:href="#DejaVuSans-61" transform="translate(136.572266 0)"/>
      <use xlink:href="#DejaVuSans-74" transform="translate(197.851562 0)"/>
      <use xlink:href="#DejaVuSans-74" transform="translate(237.060547 0)"/>
      <use xlink:href="#DejaVuSans-65" transform="translate(276.269531 0)"/>
      <use xlink:href="#DejaVuSans-6e" transform="translate(337.792969 0)"/>
      <use xlink:href="#DejaVuSans-64" transform="translate(401.171875 0)"/>
      <use xlink:href="#DejaVuSans-65" transform="translate(464.648438 0)"/>
      <use xlink:href="#DejaVuSans-64" transform="translate(526.171875 0)"/>
      <use xlink:href="#DejaVuSans-20" transform="translate(589.648438 0)"/>
      <use xlink:href="#DejaVuSans-4d" transform="translate(621.435547 0)"/>
      <use xlink:href="#DejaVuSans-65" transform="translate(707.714844 0)"/>
      <use xlink:href="#DejaVuSans-61" transform="translate(769.238281 0)"/>
      <use xlink:href="#DejaVuSans-6e" transform="translate(830.517578 0)"/>
     </g>
    </g>
    <g id="line2d_18">
     <path d="M 249.339687 113.369063 
L 259.339687 113.369063 
L 269.339687 113.369063 
" style="fill: none; stroke-dasharray: 5.55,2.4; stroke-dashoffset: 0; stroke: #000000; stroke-opacity: 0.5; stroke-width: 1.5"/>
    </g>
    <g id="text_21">
     <!-- Quartile edges -->
     <g transform="translate(277.339687 116.869063) scale(0.1 -0.1)">
      <defs>
       <path id="DejaVuSans-51" d="M 2522 4238 
Q 1834 4238 1429 3725 
Q 1025 3213 1025 2328 
Q 1025 1447 1429 934 
Q 1834 422 2522 422 
Q 3209 422 3611 934 
Q 4013 1447 4013 2328 
Q 4013 3213 3611 3725 
Q 3209 4238 2522 4238 
z
M 3406 84 
L 4238 -825 
L 3475 -825 
L 2784 -78 
Q 2681 -84 2626 -87 
Q 2572 -91 2522 -91 
Q 1538 -91 948 567 
Q 359 1225 359 2328 
Q 359 3434 948 4092 
Q 1538 4750 2522 4750 
Q 3503 4750 4090 4092 
Q 4678 3434 4678 2328 
Q 4678 1516 4351 937 
Q 4025 359 3406 84 
z
" transform="scale(0.015625)"/>
      </defs>
      <use xlink:href="#DejaVuSans-51"/>
      <use xlink:href="#DejaVuSans-75" transform="translate(78.710938 0)"/>
      <use xlink:href="#DejaVuSans-61" transform="translate(142.089844 0)"/>
      <use xlink:href="#DejaVuSans-72" transform="translate(203.369141 0)"/>
      <use xlink:href="#DejaVuSans-74" transform="translate(244.482422 0)"/>
      <use xlink:href="#DejaVuSans-69" transform="translate(283.691406 0)"/>
      <use xlink:href="#DejaVuSans-6c" transform="translate(311.474609 0)"/>
      <use xlink:href="#DejaVuSans-65" transform="translate(339.257812 0)"/>
      <use xlink:href="#DejaVuSans-20" transform="translate(400.78125 0)"/>
      <use xlink:href="#DejaVuSans-65" transform="translate(432.568359 0)"/>
      <use xlink:href="#DejaVuSans-64" transform="translate(494.091797 0)"/>
      <use xlink:href="#DejaVuSans-67" transform="translate(557.568359 0)"/>
      <use xlink:href="#DejaVuSans-65" transform="translate(621.044922 0)"/>
      <use xlink:href="#DejaVuSans-73" transform="translate(682.568359 0)"/>
     </g>
    </g>
   </g>
  </g>
 </g>
 <defs>
  <clipPath id="p51f83d02cb">
   <rect x="50.87" y="26.88" width="514.33" height="363.16"/>
  </clipPath>
 </defs>
</svg>
