<?xml version="1.0" encoding="utf-8" standalone="no"?>
<!DOCTYPE svg PUBLIC "-//W3C//DTD SVG 1.1//EN"
  "http://www.w3.org/Graphics/SVG/1.1/DTD/svg11.dtd">
<svg xmlns:xlink="http://www.w3.org/1999/xlink" width="460.8pt" height="345.6pt" viewBox="0 0 460.8 345.6" xmlns="http://www.w3.org/2000/svg" version="1.1">
 <metadata>
  <rdf:RDF xmlns:dc="http://purl.org/dc/elements/1.1/" xmlns:cc="http://creativecommons.org/ns#" xmlns:rdf="http://www.w3.org/1999/02/22-rdf-syntax-ns#">
   <cc:Work>
    <dc:type rdf:resource="http://purl.org/dc/dcmitype/StillImage"/>
    <dc:date>2025-09-12T10:58:17.384978</dc:date>
    <dc:format>image/svg+xml</dc:format>
    <dc:creator>
     <cc:Agent>
      <dc:title>Matplotlib v3.10.5, https://matplotlib.org/</dc:title>
     </cc:Agent>
    </dc:creator>
   </cc:Work>
  </rdf:RDF>
 </metadata>
 <defs>
  <style type="text/css">*{stroke-linejoin: round; stroke-linecap: butt}</style>
 </defs>
 <g id="figure_1">
  <g id="patch_1">
   <path d="M 0 345.6 
L 460.8 345.6 
L 460.8 0 
L 0 0 
z
" style="fill: #ffffff"/>
  </g>
  <g id="axes_1">
   <g id="patch_2">
    <path d="M 57.6 307.584 
L 414.72 307.584 
L 414.72 41.472 
L 57.6 41.472 
z
" style="fill: #ffffff"/>
   </g>
   <g id="matplotlib.axis_1">
    <g id="xtick_1">
     <g id="line2d_1">
      <path d="M 73.832727 307.584 
L 73.832727 41.472 
" clip-path="url(#pda7ae5b5a1)" style="fill: none; stroke: #b0b0b0; stroke-width: 0.8; stroke-linecap: square"/>
     </g>
     <g id="line2d_2">
      <defs>
       <path id="mb4a4bc8d04" d="M 0 0 
L 0 3.5 
" style="stroke: #000000; stroke-width: 0.8"/>
      </defs>
      <g>
       <use xlink:href="#mb4a4bc8d04" x="73.832727" y="307.584" style="stroke: #000000; stroke-width: 0.8"/>
      </g>
     </g>
     <g id="text_1">
      <!-- −0.2 -->
      <g transform="translate(61.691321 322.182437) scale(0.1 -0.1)">
       <defs>
        <path id="DejaVuSans-2212" d="M 678 2272 
L 4684 2272 
L 4684 1741 
L 678 1741 
L 678 2272 
z
" transform="scale(0.015625)"/>
        <path id="DejaVuSans-30" d="M 2034 4250 
Q 1547 4250 1301 3770 
Q 1056 3291 1056 2328 
Q 1056 1369 1301 889 
Q 1547 409 2034 409 
Q 2525 409 2770 889 
Q 3016 1369 3016 2328 
Q 3016 3291 2770 3770 
Q 2525 4250 2034 4250 
z
M 2034 4750 
Q 2819 4750 3233 4129 
Q 3647 3509 3647 2328 
Q 3647 1150 3233 529 
Q 2819 -91 2034 -91 
Q 1250 -91 836 529 
Q 422 1150 422 2328 
Q 422 3509 836 4129 
Q 1250 4750 2034 4750 
z
" transform="scale(0.015625)"/>
        <path id="DejaVuSans-2e" d="M 684 794 
L 1344 794 
L 1344 0 
L 684 0 
L 684 794 
z
" transform="scale(0.015625)"/>
        <path id="DejaVuSans-32" d="M 1228 531 
L 3431 531 
L 3431 0 
L 469 0 
L 469 531 
Q 828 903 1448 1529 
Q 2069 2156 2228 2338 
Q 2531 2678 2651 2914 
Q 2772 3150 2772 3378 
Q 2772 3750 2511 3984 
Q 2250 4219 1831 4219 
Q 1534 4219 1204 4116 
Q 875 4013 500 3803 
L 500 4441 
Q 881 4594 1212 4672 
Q 1544 4750 1819 4750 
Q 2544 4750 2975 4387 
Q 3406 4025 3406 3419 
Q 3406 3131 3298 2873 
Q 3191 2616 2906 2266 
Q 2828 2175 2409 1742 
Q 1991 1309 1228 531 
z
" transform="scale(0.015625)"/>
       </defs>
       <use xlink:href="#DejaVuSans-2212"/>
       <use xlink:href="#DejaVuSans-30" transform="translate(83.789062 0)"/>
       <use xlink:href="#DejaVuSans-2e" transform="translate(147.412109 0)"/>
       <use xlink:href="#DejaVuSans-32" transform="translate(179.199219 0)"/>
      </g>
     </g>
    </g>
    <g id="xtick_2">
     <g id="line2d_3">
      <path d="M 120.278299 307.584 
L 120.278299 41.472 
" clip-path="url(#pda7ae5b5a1)" style="fill: none; stroke: #b0b0b0; stroke-width: 0.8; stroke-linecap: square"/>
     </g>
     <g id="line2d_4">
      <g>
       <use xlink:href="#mb4a4bc8d04" x="120.278299" y="307.584" style="stroke: #000000; stroke-width: 0.8"/>
      </g>
     </g>
     <g id="text_2">
      <!-- −0.1 -->
      <g transform="translate(108.136893 322.182437) scale(0.1 -0.1)">
       <defs>
        <path id="DejaVuSans-31" d="M 794 531 
L 1825 531 
L 1825 4091 
L 703 3866 
L 703 4441 
L 1819 4666 
L 2450 4666 
L 2450 531 
L 3481 531 
L 3481 0 
L 794 0 
L 794 531 
z
" transform="scale(0.015625)"/>
       </defs>
       <use xlink:href="#DejaVuSans-2212"/>
       <use xlink:href="#DejaVuSans-30" transform="translate(83.789062 0)"/>
       <use xlink:href="#DejaVuSans-2e" transform="translate(147.412109 0)"/>
       <use xlink:href="#DejaVuSans-31" transform="translate(179.199219 0)"/>
      </g>
     </g>
    </g>
    <g id="xtick_3">
     <g id="line2d_5">
      <path d="M 166.72387 307.584 
L 166.72387 41.472 
" clip-path="url(#pda7ae5b5a1)" style="fill: none; stroke: #b0b0b0; stroke-width: 0.8; stroke-linecap: square"/>
     </g>
     <g id="line2d_6">
      <g>
       <use xlink:href="#mb4a4bc8d04" x="166.72387" y="307.584" style="stroke: #000000; stroke-width: 0.8"/>
      </g>
     </g>
     <g id="text_3">
      <!-- 0.0 -->
      <g transform="translate(158.772308 322.182437) scale(0.1 -0.1)">
       <use xlink:href="#DejaVuSans-30"/>
       <use xlink:href="#DejaVuSans-2e" transform="translate(63.623047 0)"/>
       <use xlink:href="#DejaVuSans-30" transform="translate(95.410156 0)"/>
      </g>
     </g>
    </g>
    <g id="xtick_4">
     <g id="line2d_7">
      <path d="M 213.169442 307.584 
L 213.169442 41.472 
" clip-path="url(#pda7ae5b5a1)" style="fill: none; stroke: #b0b0b0; stroke-width: 0.8; stroke-linecap: square"/>
     </g>
     <g id="line2d_8">
      <g>
       <use xlink:href="#mb4a4bc8d04" x="213.169442" y="307.584" style="stroke: #000000; stroke-width: 0.8"/>
      </g>
     </g>
     <g id="text_4">
      <!-- 0.1 -->
      <g transform="translate(205.21788 322.182437) scale(0.1 -0.1)">
       <use xlink:href="#DejaVuSans-30"/>
       <use xlink:href="#DejaVuSans-2e" transform="translate(63.623047 0)"/>
       <use xlink:href="#DejaVuSans-31" transform="translate(95.410156 0)"/>
      </g>
     </g>
    </g>
    <g id="xtick_5">
     <g id="line2d_9">
      <path d="M 259.615014 307.584 
L 259.615014 41.472 
" clip-path="url(#pda7ae5b5a1)" style="fill: none; stroke: #b0b0b0; stroke-width: 0.8; stroke-linecap: square"/>
     </g>
     <g id="line2d_10">
      <g>
       <use xlink:href="#mb4a4bc8d04" x="259.615014" y="307.584" style="stroke: #000000; stroke-width: 0.8"/>
      </g>
     </g>
     <g id="text_5">
      <!-- 0.2 -->
      <g transform="translate(251.663451 322.182437) scale(0.1 -0.1)">
       <use xlink:href="#DejaVuSans-30"/>
       <use xlink:href="#DejaVuSans-2e" transform="translate(63.623047 0)"/>
       <use xlink:href="#DejaVuSans-32" transform="translate(95.410156 0)"/>
      </g>
     </g>
    </g>
    <g id="xtick_6">
     <g id="line2d_11">
      <path d="M 306.060585 307.584 
L 306.060585 41.472 
" clip-path="url(#pda7ae5b5a1)" style="fill: none; stroke: #b0b0b0; stroke-width: 0.8; stroke-linecap: square"/>
     </g>
     <g id="line2d_12">
      <g>
       <use xlink:href="#mb4a4bc8d04" x="306.060585" y="307.584" style="stroke: #000000; stroke-width: 0.8"/>
      </g>
     </g>
     <g id="text_6">
      <!-- 0.3 -->
      <g transform="translate(298.109023 322.182437) scale(0.1 -0.1)">
       <defs>
        <path id="DejaVuSans-33" d="M 2597 2516 
Q 3050 2419 3304 2112 
Q 3559 1806 3559 1356 
Q 3559 666 3084 287 
Q 2609 -91 1734 -91 
Q 1441 -91 1130 -33 
Q 819 25 488 141 
L 488 750 
Q 750 597 1062 519 
Q 1375 441 1716 441 
Q 2309 441 2620 675 
Q 2931 909 2931 1356 
Q 2931 1769 2642 2001 
Q 2353 2234 1838 2234 
L 1294 2234 
L 1294 2753 
L 1863 2753 
Q 2328 2753 2575 2939 
Q 2822 3125 2822 3475 
Q 2822 3834 2567 4026 
Q 2313 4219 1838 4219 
Q 1578 4219 1281 4162 
Q 984 4106 628 3988 
L 628 4550 
Q 988 4650 1302 4700 
Q 1616 4750 1894 4750 
Q 2613 4750 3031 4423 
Q 3450 4097 3450 3541 
Q 3450 3153 3228 2886 
Q 3006 2619 2597 2516 
z
" transform="scale(0.015625)"/>
       </defs>
       <use xlink:href="#DejaVuSans-30"/>
       <use xlink:href="#DejaVuSans-2e" transform="translate(63.623047 0)"/>
       <use xlink:href="#DejaVuSans-33" transform="translate(95.410156 0)"/>
      </g>
     </g>
    </g>
    <g id="xtick_7">
     <g id="line2d_13">
      <path d="M 352.506157 307.584 
L 352.506157 41.472 
" clip-path="url(#pda7ae5b5a1)" style="fill: none; stroke: #b0b0b0; stroke-width: 0.8; stroke-linecap: square"/>
     </g>
     <g id="line2d_14">
      <g>
       <use xlink:href="#mb4a4bc8d04" x="352.506157" y="307.584" style="stroke: #000000; stroke-width: 0.8"/>
      </g>
     </g>
     <g id="text_7">
      <!-- 0.4 -->
      <g transform="translate(344.554594 322.182437) scale(0.1 -0.1)">
       <defs>
        <path id="DejaVuSans-34" d="M 2419 4116 
L 825 1625 
L 2419 1625 
L 2419 4116 
z
M 2253 4666 
L 3047 4666 
L 3047 1625 
L 3713 1625 
L 3713 1100 
L 3047 1100 
L 3047 0 
L 2419 0 
L 2419 1100 
L 313 1100 
L 313 1709 
L 2253 4666 
z
" transform="scale(0.015625)"/>
       </defs>
       <use xlink:href="#DejaVuSans-30"/>
       <use xlink:href="#DejaVuSans-2e" transform="translate(63.623047 0)"/>
       <use xlink:href="#DejaVuSans-34" transform="translate(95.410156 0)"/>
      </g>
     </g>
    </g>
    <g id="xtick_8">
     <g id="line2d_15">
      <path d="M 398.951728 307.584 
L 398.951728 41.472 
" clip-path="url(#pda7ae5b5a1)" style="fill: none; stroke: #b0b0b0; stroke-width: 0.8; stroke-linecap: square"/>
     </g>
     <g id="line2d_16">
      <g>
       <use xlink:href="#mb4a4bc8d04" x="398.951728" y="307.584" style="stroke: #000000; stroke-width: 0.8"/>
      </g>
     </g>
     <g id="text_8">
      <!-- 0.5 -->
      <g transform="translate(391.000166 322.182437) scale(0.1 -0.1)">
       <defs>
        <path id="DejaVuSans-35" d="M 691 4666 
L 3169 4666 
L 3169 4134 
L 1269 4134 
L 1269 2991 
Q 1406 3038 1543 3061 
Q 1681 3084 1819 3084 
Q 2600 3084 3056 2656 
Q 3513 2228 3513 1497 
Q 3513 744 3044 326 
Q 2575 -91 1722 -91 
Q 1428 -91 1123 -41 
Q 819 9 494 109 
L 494 744 
Q 775 591 1075 516 
Q 1375 441 1709 441 
Q 2250 441 2565 725 
Q 2881 1009 2881 1497 
Q 2881 1984 2565 2268 
Q 2250 2553 1709 2553 
Q 1456 2553 1204 2497 
Q 953 2441 691 2322 
L 691 4666 
z
" transform="scale(0.015625)"/>
       </defs>
       <use xlink:href="#DejaVuSans-30"/>
       <use xlink:href="#DejaVuSans-2e" transform="translate(63.623047 0)"/>
       <use xlink:href="#DejaVuSans-35" transform="translate(95.410156 0)"/>
      </g>
     </g>
    </g>
    <g id="text_9">
     <!-- Time (ms) -->
     <g transform="translate(210.960781 335.860562) scale(0.1 -0.1)">
      <defs>
       <path id="DejaVuSans-54" d="M -19 4666 
L 3928 4666 
L 3928 4134 
L 2272 4134 
L 2272 0 
L 1638 0 
L 1638 4134 
L -19 4134 
L -19 4666 
z
" transform="scale(0.015625)"/>
       <path id="DejaVuSans-69" d="M 603 3500 
L 1178 3500 
L 1178 0 
L 603 0 
L 603 3500 
z
M 603 4863 
L 1178 4863 
L 1178 4134 
L 603 4134 
L 603 4863 
z
" transform="scale(0.015625)"/>
       <path id="DejaVuSans-6d" d="M 3328 2828 
Q 3544 3216 3844 3400 
Q 4144 3584 4550 3584 
Q 5097 3584 5394 3201 
Q 5691 2819 5691 2113 
L 5691 0 
L 5113 0 
L 5113 2094 
Q 5113 2597 4934 2840 
Q 4756 3084 4391 3084 
Q 3944 3084 3684 2787 
Q 3425 2491 3425 1978 
L 3425 0 
L 2847 0 
L 2847 2094 
Q 2847 2600 2669 2842 
Q 2491 3084 2119 3084 
Q 1678 3084 1418 2786 
Q 1159 2488 1159 1978 
L 1159 0 
L 581 0 
L 581 3500 
L 1159 3500 
L 1159 2956 
Q 1356 3278 1631 3431 
Q 1906 3584 2284 3584 
Q 2666 3584 2933 3390 
Q 3200 3197 3328 2828 
z
" transform="scale(0.015625)"/>
       <path id="DejaVuSans-65" d="M 3597 1894 
L 3597 1613 
L 953 1613 
Q 991 1019 1311 708 
Q 1631 397 2203 397 
Q 2534 397 2845 478 
Q 3156 559 3463 722 
L 3463 178 
Q 3153 47 2828 -22 
Q 2503 -91 2169 -91 
Q 1331 -91 842 396 
Q 353 884 353 1716 
Q 353 2575 817 3079 
Q 1281 3584 2069 3584 
Q 2775 3584 3186 3129 
Q 3597 2675 3597 1894 
z
M 3022 2063 
Q 3016 2534 2758 2815 
Q 2500 3097 2075 3097 
Q 1594 3097 1305 2825 
Q 1016 2553 972 2059 
L 3022 2063 
z
" transform="scale(0.015625)"/>
       <path id="DejaVuSans-20" transform="scale(0.015625)"/>
       <path id="DejaVuSans-28" d="M 1984 4856 
Q 1566 4138 1362 3434 
Q 1159 2731 1159 2009 
Q 1159 1288 1364 580 
Q 1569 -128 1984 -844 
L 1484 -844 
Q 1016 -109 783 600 
Q 550 1309 550 2009 
Q 550 2706 781 3412 
Q 1013 4119 1484 4856 
L 1984 4856 
z
" transform="scale(0.015625)"/>
       <path id="DejaVuSans-73" d="M 2834 3397 
L 2834 2853 
Q 2591 2978 2328 3040 
Q 2066 3103 1784 3103 
Q 1356 3103 1142 2972 
Q 928 2841 928 2578 
Q 928 2378 1081 2264 
Q 1234 2150 1697 2047 
L 1894 2003 
Q 2506 1872 2764 1633 
Q 3022 1394 3022 966 
Q 3022 478 2636 193 
Q 2250 -91 1575 -91 
Q 1294 -91 989 -36 
Q 684 19 347 128 
L 347 722 
Q 666 556 975 473 
Q 1284 391 1588 391 
Q 1994 391 2212 530 
Q 2431 669 2431 922 
Q 2431 1156 2273 1281 
Q 2116 1406 1581 1522 
L 1381 1569 
Q 847 1681 609 1914 
Q 372 2147 372 2553 
Q 372 3047 722 3315 
Q 1072 3584 1716 3584 
Q 2034 3584 2315 3537 
Q 2597 3491 2834 3397 
z
" transform="scale(0.015625)"/>
       <path id="DejaVuSans-29" d="M 513 4856 
L 1013 4856 
Q 1481 4119 1714 3412 
Q 1947 2706 1947 2009 
Q 1947 1309 1714 600 
Q 1481 -109 1013 -844 
L 513 -844 
Q 928 -128 1133 580 
Q 1338 1288 1338 2009 
Q 1338 2731 1133 3434 
Q 928 4138 513 4856 
z
" transform="scale(0.015625)"/>
      </defs>
      <use xlink:href="#DejaVuSans-54"/>
      <use xlink:href="#DejaVuSans-69" transform="translate(57.958984 0)"/>
      <use xlink:href="#DejaVuSans-6d" transform="translate(85.742188 0)"/>
      <use xlink:href="#DejaVuSans-65" transform="translate(183.154297 0)"/>
      <use xlink:href="#DejaVuSans-20" transform="translate(244.677734 0)"/>
      <use xlink:href="#DejaVuSans-28" transform="translate(276.464844 0)"/>
      <use xlink:href="#DejaVuSans-6d" transform="translate(315.478516 0)"/>
      <use xlink:href="#DejaVuSans-73" transform="translate(412.890625 0)"/>
      <use xlink:href="#DejaVuSans-29" transform="translate(464.990234 0)"/>
     </g>
    </g>
   </g>
   <g id="matplotlib.axis_2">
    <g id="ytick_1">
     <g id="line2d_17">
      <path d="M 57.6 266.537497 
L 414.72 266.537497 
" clip-path="url(#pda7ae5b5a1)" style="fill: none; stroke: #b0b0b0; stroke-width: 0.8; stroke-linecap: square"/>
     </g>
     <g id="line2d_18">
      <defs>
       <path id="mec6c60f46c" d="M 0 0 
L -3.5 0 
" style="stroke: #000000; stroke-width: 0.8"/>
      </defs>
      <g>
       <use xlink:href="#mec6c60f46c" x="57.6" y="266.537497" style="stroke: #000000; stroke-width: 0.8"/>
      </g>
     </g>
     <g id="text_10">
      <!-- 0.0 -->
      <g transform="translate(34.696875 270.336715) scale(0.1 -0.1)">
       <use xlink:href="#DejaVuSans-30"/>
       <use xlink:href="#DejaVuSans-2e" transform="translate(63.623047 0)"/>
       <use xlink:href="#DejaVuSans-30" transform="translate(95.410156 0)"/>
      </g>
     </g>
    </g>
    <g id="ytick_2">
     <g id="line2d_19">
      <path d="M 57.6 223.023149 
L 414.72 223.023149 
" clip-path="url(#pda7ae5b5a1)" style="fill: none; stroke: #b0b0b0; stroke-width: 0.8; stroke-linecap: square"/>
     </g>
     <g id="line2d_20">
      <g>
       <use xlink:href="#mec6c60f46c" x="57.6" y="223.023149" style="stroke: #000000; stroke-width: 0.8"/>
      </g>
     </g>
     <g id="text_11">
      <!-- 0.2 -->
      <g transform="translate(34.696875 226.822368) scale(0.1 -0.1)">
       <use xlink:href="#DejaVuSans-30"/>
       <use xlink:href="#DejaVuSans-2e" transform="translate(63.623047 0)"/>
       <use xlink:href="#DejaVuSans-32" transform="translate(95.410156 0)"/>
      </g>
     </g>
    </g>
    <g id="ytick_3">
     <g id="line2d_21">
      <path d="M 57.6 179.508802 
L 414.72 179.508802 
" clip-path="url(#pda7ae5b5a1)" style="fill: none; stroke: #b0b0b0; stroke-width: 0.8; stroke-linecap: square"/>
     </g>
     <g id="line2d_22">
      <g>
       <use xlink:href="#mec6c60f46c" x="57.6" y="179.508802" style="stroke: #000000; stroke-width: 0.8"/>
      </g>
     </g>
     <g id="text_12">
      <!-- 0.4 -->
      <g transform="translate(34.696875 183.308021) scale(0.1 -0.1)">
       <use xlink:href="#DejaVuSans-30"/>
       <use xlink:href="#DejaVuSans-2e" transform="translate(63.623047 0)"/>
       <use xlink:href="#DejaVuSans-34" transform="translate(95.410156 0)"/>
      </g>
     </g>
    </g>
    <g id="ytick_4">
     <g id="line2d_23">
      <path d="M 57.6 135.994454 
L 414.72 135.994454 
" clip-path="url(#pda7ae5b5a1)" style="fill: none; stroke: #b0b0b0; stroke-width: 0.8; stroke-linecap: square"/>
     </g>
     <g id="line2d_24">
      <g>
       <use xlink:href="#mec6c60f46c" x="57.6" y="135.994454" style="stroke: #000000; stroke-width: 0.8"/>
      </g>
     </g>
     <g id="text_13">
      <!-- 0.6 -->
      <g transform="translate(34.696875 139.793673) scale(0.1 -0.1)">
       <defs>
        <path id="DejaVuSans-36" d="M 2113 2584 
Q 1688 2584 1439 2293 
Q 1191 2003 1191 1497 
Q 1191 994 1439 701 
Q 1688 409 2113 409 
Q 2538 409 2786 701 
Q 3034 994 3034 1497 
Q 3034 2003 2786 2293 
Q 2538 2584 2113 2584 
z
M 3366 4563 
L 3366 3988 
Q 3128 4100 2886 4159 
Q 2644 4219 2406 4219 
Q 1781 4219 1451 3797 
Q 1122 3375 1075 2522 
Q 1259 2794 1537 2939 
Q 1816 3084 2150 3084 
Q 2853 3084 3261 2657 
Q 3669 2231 3669 1497 
Q 3669 778 3244 343 
Q 2819 -91 2113 -91 
Q 1303 -91 875 529 
Q 447 1150 447 2328 
Q 447 3434 972 4092 
Q 1497 4750 2381 4750 
Q 2619 4750 2861 4703 
Q 3103 4656 3366 4563 
z
" transform="scale(0.015625)"/>
       </defs>
       <use xlink:href="#DejaVuSans-30"/>
       <use xlink:href="#DejaVuSans-2e" transform="translate(63.623047 0)"/>
       <use xlink:href="#DejaVuSans-36" transform="translate(95.410156 0)"/>
      </g>
     </g>
    </g>
    <g id="ytick_5">
     <g id="line2d_25">
      <path d="M 57.6 92.480107 
L 414.72 92.480107 
" clip-path="url(#pda7ae5b5a1)" style="fill: none; stroke: #b0b0b0; stroke-width: 0.8; stroke-linecap: square"/>
     </g>
     <g id="line2d_26">
      <g>
       <use xlink:href="#mec6c60f46c" x="57.6" y="92.480107" style="stroke: #000000; stroke-width: 0.8"/>
      </g>
     </g>
     <g id="text_14">
      <!-- 0.8 -->
      <g transform="translate(34.696875 96.279326) scale(0.1 -0.1)">
       <defs>
        <path id="DejaVuSans-38" d="M 2034 2216 
Q 1584 2216 1326 1975 
Q 1069 1734 1069 1313 
Q 1069 891 1326 650 
Q 1584 409 2034 409 
Q 2484 409 2743 651 
Q 3003 894 3003 1313 
Q 3003 1734 2745 1975 
Q 2488 2216 2034 2216 
z
M 1403 2484 
Q 997 2584 770 2862 
Q 544 3141 544 3541 
Q 544 4100 942 4425 
Q 1341 4750 2034 4750 
Q 2731 4750 3128 4425 
Q 3525 4100 3525 3541 
Q 3525 3141 3298 2862 
Q 3072 2584 2669 2484 
Q 3125 2378 3379 2068 
Q 3634 1759 3634 1313 
Q 3634 634 3220 271 
Q 2806 -91 2034 -91 
Q 1263 -91 848 271 
Q 434 634 434 1313 
Q 434 1759 690 2068 
Q 947 2378 1403 2484 
z
M 1172 3481 
Q 1172 3119 1398 2916 
Q 1625 2713 2034 2713 
Q 2441 2713 2670 2916 
Q 2900 3119 2900 3481 
Q 2900 3844 2670 4047 
Q 2441 4250 2034 4250 
Q 1625 4250 1398 4047 
Q 1172 3844 1172 3481 
z
" transform="scale(0.015625)"/>
       </defs>
       <use xlink:href="#DejaVuSans-30"/>
       <use xlink:href="#DejaVuSans-2e" transform="translate(63.623047 0)"/>
       <use xlink:href="#DejaVuSans-38" transform="translate(95.410156 0)"/>
      </g>
     </g>
    </g>
    <g id="ytick_6">
     <g id="line2d_27">
      <path d="M 57.6 48.965759 
L 414.72 48.965759 
" clip-path="url(#pda7ae5b5a1)" style="fill: none; stroke: #b0b0b0; stroke-width: 0.8; stroke-linecap: square"/>
     </g>
     <g id="line2d_28">
      <g>
       <use xlink:href="#mec6c60f46c" x="57.6" y="48.965759" style="stroke: #000000; stroke-width: 0.8"/>
      </g>
     </g>
     <g id="text_15">
      <!-- 1.0 -->
      <g transform="translate(34.696875 52.764978) scale(0.1 -0.1)">
       <use xlink:href="#DejaVuSans-31"/>
       <use xlink:href="#DejaVuSans-2e" transform="translate(63.623047 0)"/>
       <use xlink:href="#DejaVuSans-30" transform="translate(95.410156 0)"/>
      </g>
     </g>
    </g>
    <g id="text_16">
     <!-- Normalized MUA -->
     <g transform="translate(28.617187 215.866281) rotate(-90) scale(0.1 -0.1)">
      <defs>
       <path id="DejaVuSans-4e" d="M 628 4666 
L 1478 4666 
L 3547 763 
L 3547 4666 
L 4159 4666 
L 4159 0 
L 3309 0 
L 1241 3903 
L 1241 0 
L 628 0 
L 628 4666 
z
" transform="scale(0.015625)"/>
       <path id="DejaVuSans-6f" d="M 1959 3097 
Q 1497 3097 1228 2736 
Q 959 2375 959 1747 
Q 959 1119 1226 758 
Q 1494 397 1959 397 
Q 2419 397 2687 759 
Q 2956 1122 2956 1747 
Q 2956 2369 2687 2733 
Q 2419 3097 1959 3097 
z
M 1959 3584 
Q 2709 3584 3137 3096 
Q 3566 2609 3566 1747 
Q 3566 888 3137 398 
Q 2709 -91 1959 -91 
Q 1206 -91 779 398 
Q 353 888 353 1747 
Q 353 2609 779 3096 
Q 1206 3584 1959 3584 
z
" transform="scale(0.015625)"/>
       <path id="DejaVuSans-72" d="M 2631 2963 
Q 2534 3019 2420 3045 
Q 2306 3072 2169 3072 
Q 1681 3072 1420 2755 
Q 1159 2438 1159 1844 
L 1159 0 
L 581 0 
L 581 3500 
L 1159 3500 
L 1159 2956 
Q 1341 3275 1631 3429 
Q 1922 3584 2338 3584 
Q 2397 3584 2469 3576 
Q 2541 3569 2628 3553 
L 2631 2963 
z
" transform="scale(0.015625)"/>
       <path id="DejaVuSans-61" d="M 2194 1759 
Q 1497 1759 1228 1600 
Q 959 1441 959 1056 
Q 959 750 1161 570 
Q 1363 391 1709 391 
Q 2188 391 2477 730 
Q 2766 1069 2766 1631 
L 2766 1759 
L 2194 1759 
z
M 3341 1997 
L 3341 0 
L 2766 0 
L 2766 531 
Q 2569 213 2275 61 
Q 1981 -91 1556 -91 
Q 1019 -91 701 211 
Q 384 513 384 1019 
Q 384 1609 779 1909 
Q 1175 2209 1959 2209 
L 2766 2209 
L 2766 2266 
Q 2766 2663 2505 2880 
Q 2244 3097 1772 3097 
Q 1472 3097 1187 3025 
Q 903 2953 641 2809 
L 641 3341 
Q 956 3463 1253 3523 
Q 1550 3584 1831 3584 
Q 2591 3584 2966 3190 
Q 3341 2797 3341 1997 
z
" transform="scale(0.015625)"/>
       <path id="DejaVuSans-6c" d="M 603 4863 
L 1178 4863 
L 1178 0 
L 603 0 
L 603 4863 
z
" transform="scale(0.015625)"/>
       <path id="DejaVuSans-7a" d="M 353 3500 
L 3084 3500 
L 3084 2975 
L 922 459 
L 3084 459 
L 3084 0 
L 275 0 
L 275 525 
L 2438 3041 
L 353 3041 
L 353 3500 
z
" transform="scale(0.015625)"/>
       <path id="DejaVuSans-64" d="M 2906 2969 
L 2906 4863 
L 3481 4863 
L 3481 0 
L 2906 0 
L 2906 525 
Q 2725 213 2448 61 
Q 2172 -91 1784 -91 
Q 1150 -91 751 415 
Q 353 922 353 1747 
Q 353 2572 751 3078 
Q 1150 3584 1784 3584 
Q 2172 3584 2448 3432 
Q 2725 3281 2906 2969 
z
M 947 1747 
Q 947 1113 1208 752 
Q 1469 391 1925 391 
Q 2381 391 2643 752 
Q 2906 1113 2906 1747 
Q 2906 2381 2643 2742 
Q 2381 3103 1925 3103 
Q 1469 3103 1208 2742 
Q 947 2381 947 1747 
z
" transform="scale(0.015625)"/>
       <path id="DejaVuSans-4d" d="M 628 4666 
L 1569 4666 
L 2759 1491 
L 3956 4666 
L 4897 4666 
L 4897 0 
L 4281 0 
L 4281 4097 
L 3078 897 
L 2444 897 
L 1241 4097 
L 1241 0 
L 628 0 
L 628 4666 
z
" transform="scale(0.015625)"/>
       <path id="DejaVuSans-55" d="M 556 4666 
L 1191 4666 
L 1191 1831 
Q 1191 1081 1462 751 
Q 1734 422 2344 422 
Q 2950 422 3222 751 
Q 3494 1081 3494 1831 
L 3494 4666 
L 4128 4666 
L 4128 1753 
Q 4128 841 3676 375 
Q 3225 -91 2344 -91 
Q 1459 -91 1007 375 
Q 556 841 556 1753 
L 556 4666 
z
" transform="scale(0.015625)"/>
       <path id="DejaVuSans-41" d="M 2188 4044 
L 1331 1722 
L 3047 1722 
L 2188 4044 
z
M 1831 4666 
L 2547 4666 
L 4325 0 
L 3669 0 
L 3244 1197 
L 1141 1197 
L 716 0 
L 50 0 
L 1831 4666 
z
" transform="scale(0.015625)"/>
      </defs>
      <use xlink:href="#DejaVuSans-4e"/>
      <use xlink:href="#DejaVuSans-6f" transform="translate(74.804688 0)"/>
      <use xlink:href="#DejaVuSans-72" transform="translate(135.986328 0)"/>
      <use xlink:href="#DejaVuSans-6d" transform="translate(175.349609 0)"/>
      <use xlink:href="#DejaVuSans-61" transform="translate(272.761719 0)"/>
      <use xlink:href="#DejaVuSans-6c" transform="translate(334.041016 0)"/>
      <use xlink:href="#DejaVuSans-69" transform="translate(361.824219 0)"/>
      <use xlink:href="#DejaVuSans-7a" transform="translate(389.607422 0)"/>
      <use xlink:href="#DejaVuSans-65" transform="translate(442.097656 0)"/>
      <use xlink:href="#DejaVuSans-64" transform="translate(503.621094 0)"/>
      <use xlink:href="#DejaVuSans-20" transform="translate(567.097656 0)"/>
      <use xlink:href="#DejaVuSans-4d" transform="translate(598.884766 0)"/>
      <use xlink:href="#DejaVuSans-55" transform="translate(685.164062 0)"/>
      <use xlink:href="#DejaVuSans-41" transform="translate(758.357422 0)"/>
     </g>
    </g>
   </g>
   <g id="line2d_29">
    <path d="M 73.832727 255.832631 
L 74.297183 256.343768 
L 74.761639 255.419006 
L 75.226094 255.526697 
L 75.69055 257.077311 
L 76.155006 257.027641 
L 76.619462 255.443874 
L 77.083917 255.863202 
L 77.548373 256.962172 
L 78.012829 258.558897 
L 78.477284 258.9277 
L 78.94174 258.845574 
L 79.406196 259.111189 
L 79.870652 258.935697 
L 80.335107 257.961846 
L 80.799563 259.099806 
L 81.264019 263.279285 
L 81.728474 264.993115 
L 82.19293 263.904371 
L 83.121842 259.628977 
L 83.586297 258.618828 
L 84.515209 257.699201 
L 84.979664 256.529385 
L 85.44412 255.724233 
L 85.908576 256.759969 
L 86.373032 258.690682 
L 86.837487 257.544275 
L 87.766399 254.431805 
L 88.230854 255.39666 
L 88.69531 256.723654 
L 89.159766 257.359965 
L 89.624222 259.999201 
L 90.088677 261.688504 
L 90.553133 262.235927 
L 91.017589 262.416174 
L 91.482044 264.938335 
L 91.9465 266.785537 
L 92.410956 265.688509 
L 92.875412 262.716486 
L 93.339867 261.444439 
L 93.804323 262.541111 
L 94.268779 262.755427 
L 94.733234 263.769175 
L 95.19769 263.036408 
L 95.662146 260.675946 
L 96.126602 259.028816 
L 96.591057 258.961138 
L 97.055513 260.14101 
L 97.519969 260.634079 
L 97.984425 260.060097 
L 98.44888 260.294172 
L 98.913336 258.735533 
L 99.377792 254.942455 
L 99.842247 254.639774 
L 101.235615 259.591648 
L 101.70007 259.077784 
L 102.164526 260.253818 
L 102.628982 265.238342 
L 103.093437 268.197636 
L 103.557893 267.025522 
L 104.486805 260.604703 
L 104.95126 259.31226 
L 105.880172 261.289602 
L 106.344627 264.522348 
L 106.809083 266.360673 
L 107.737995 263.902772 
L 108.20245 264.812266 
L 109.131362 268.545973 
L 109.595817 268.544694 
L 110.060273 266.039012 
L 110.524729 265.196023 
L 110.989185 268.025723 
L 111.45364 272.223489 
L 111.918096 272.351003 
L 112.382552 270.375161 
L 112.847007 270.46227 
L 113.311463 272.410127 
L 113.775919 272.668793 
L 114.240375 271.167873 
L 114.70483 272.66153 
L 115.169286 276.301171 
L 115.633742 276.605319 
L 116.562653 273.399186 
L 117.027109 272.809893 
L 117.491565 272.871754 
L 117.95602 270.774789 
L 118.420476 267.364256 
L 118.884932 267.115277 
L 119.813843 273.474797 
L 120.278299 274.559604 
L 120.742755 272.904733 
L 121.20721 271.992943 
L 121.671666 272.216563 
L 122.136122 271.092416 
L 122.600577 271.15703 
L 123.065033 273.56853 
L 123.529489 277.004797 
L 123.993945 278.224913 
L 124.4584 277.438304 
L 124.922856 275.544738 
L 125.387312 274.171048 
L 125.851767 274.939187 
L 126.316223 276.985051 
L 127.245135 279.443395 
L 127.70959 279.214873 
L 129.102957 275.101224 
L 130.031869 276.184598 
L 130.496325 274.656412 
L 130.96078 273.624995 
L 131.425236 273.814363 
L 131.889692 274.556795 
L 132.354147 273.649709 
L 132.818603 271.380719 
L 133.283059 271.535321 
L 133.747515 271.086697 
L 134.21197 269.129708 
L 134.676426 269.515473 
L 135.140882 271.40604 
L 136.534249 273.988122 
L 137.46316 273.608161 
L 137.927616 273.055408 
L 139.320983 268.229401 
L 139.785439 267.933886 
L 140.71435 269.958348 
L 141.178806 269.843467 
L 142.107718 272.966508 
L 142.572173 272.719481 
L 143.501085 266.328639 
L 143.96554 266.342772 
L 144.429996 268.00234 
L 144.894452 269.074355 
L 145.358908 268.897451 
L 146.287819 266.287167 
L 146.752275 266.540799 
L 147.21673 266.922128 
L 147.681186 266.825585 
L 148.145642 269.056958 
L 148.610098 270.476304 
L 149.074553 271.037157 
L 150.003465 267.802304 
L 150.46792 268.446458 
L 151.396832 273.455798 
L 151.861288 271.974335 
L 152.325743 271.00122 
L 152.790199 271.817895 
L 153.254655 273.366186 
L 153.71911 273.241449 
L 154.183566 271.710702 
L 154.648022 269.289137 
L 155.112478 267.65557 
L 156.041389 269.598797 
L 156.505845 269.54177 
L 156.9703 268.11041 
L 157.434756 266.199574 
L 157.899212 263.115618 
L 158.363668 262.138429 
L 159.292579 265.533759 
L 159.757035 265.750633 
L 160.685946 260.423502 
L 161.150402 259.871047 
L 162.079313 267.572332 
L 162.543769 267.566473 
L 163.937136 261.357603 
L 164.401592 262.54146 
L 164.866048 265.800145 
L 165.330503 267.575446 
L 166.259415 265.28531 
L 166.72387 264.995069 
L 167.188326 264.313436 
L 167.652782 264.794428 
L 168.117238 268.153233 
L 168.581693 269.501908 
L 169.046149 266.951625 
L 169.510605 262.040298 
L 169.97506 259.916805 
L 170.903972 263.710903 
L 171.368428 264.05234 
L 171.832883 265.12499 
L 172.297339 265.354468 
L 172.761795 264.350409 
L 173.22625 266.441942 
L 173.690706 269.398207 
L 174.155162 269.340485 
L 174.619618 269.066473 
L 175.084073 266.241551 
L 176.012985 258.594705 
L 176.941896 252.953232 
L 177.406352 247.35598 
L 178.335263 233.035462 
L 178.799719 227.309731 
L 179.264175 218.499924 
L 181.121998 168.865037 
L 182.515365 122.472334 
L 183.908732 79.845181 
L 184.373188 70.574239 
L 184.837643 66.204811 
L 186.695466 55.552116 
L 187.159922 55.292569 
L 187.624378 57.719189 
L 188.088833 60.815194 
L 188.553289 66.452565 
L 190.411112 98.180307 
L 192.268935 153.373939 
L 192.733391 162.707847 
L 193.197846 169.571127 
L 194.591213 194.145242 
L 195.520125 205.536781 
L 195.984581 205.276614 
L 196.449036 206.589848 
L 197.377948 217.063376 
L 198.306859 227.818569 
L 198.771315 228.786354 
L 199.235771 225.159836 
L 199.700226 223.716728 
L 200.629138 228.40835 
L 201.093593 228.885395 
L 202.022505 226.57988 
L 202.486961 227.985766 
L 203.415872 233.859442 
L 203.880328 235.336143 
L 204.344783 235.230529 
L 204.809239 232.633741 
L 205.273695 232.576361 
L 205.738151 233.844259 
L 206.202606 234.467054 
L 206.667062 236.480315 
L 207.131518 235.717309 
L 207.595973 232.770041 
L 208.060429 232.725674 
L 208.989341 237.459012 
L 209.453796 236.607849 
L 209.918252 236.001924 
L 210.382708 236.297867 
L 210.847163 236.341171 
L 211.311619 237.185019 
L 211.776075 239.690869 
L 212.240531 240.836287 
L 212.704986 240.215139 
L 213.169442 238.689323 
L 213.633898 239.512366 
L 214.098353 240.66503 
L 214.562809 242.216131 
L 215.027265 245.709365 
L 215.491721 245.008149 
L 215.956176 241.091364 
L 216.420632 239.849311 
L 217.349544 236.892678 
L 217.813999 237.915372 
L 218.278455 238.355095 
L 218.742911 238.47949 
L 219.207366 239.468018 
L 221.065189 245.937768 
L 221.994101 243.116096 
L 222.458556 242.802574 
L 222.923012 242.303261 
L 223.387468 242.103804 
L 223.851924 243.710178 
L 224.316379 245.924305 
L 225.245291 248.844394 
L 225.709746 248.63 
L 226.174202 247.712945 
L 226.638658 247.739034 
L 227.103114 247.995348 
L 228.032025 249.778931 
L 228.496481 248.466105 
L 229.425392 243.142699 
L 229.889848 243.782546 
L 230.354304 245.483643 
L 230.818759 245.70804 
L 231.283215 243.134326 
L 231.747671 242.3835 
L 232.212126 242.838807 
L 232.676582 244.780831 
L 233.141038 245.477661 
L 233.605494 243.349474 
L 234.534405 238.243487 
L 234.998861 237.476781 
L 235.927772 241.600451 
L 236.392228 240.340976 
L 236.856684 238.303113 
L 237.321139 237.400654 
L 237.785595 235.340171 
L 238.250051 234.803579 
L 238.714506 236.062877 
L 239.178962 236.875603 
L 240.107874 231.089228 
L 240.572329 230.703003 
L 241.036785 229.258569 
L 241.501241 228.399099 
L 241.965696 229.210528 
L 242.430152 229.153971 
L 242.894608 227.137704 
L 243.359064 226.312495 
L 244.287975 230.529143 
L 245.216886 226.639775 
L 245.681342 228.1403 
L 246.145798 230.469098 
L 246.610254 231.163221 
L 247.074709 230.507773 
L 247.539165 229.215533 
L 248.468076 225.862777 
L 248.932532 225.60668 
L 249.396988 227.59371 
L 249.861444 230.877309 
L 250.325899 231.243217 
L 250.790355 228.76935 
L 251.254811 225.404656 
L 251.719266 223.123143 
L 252.183722 224.138427 
L 252.648178 226.532744 
L 253.112634 225.479165 
L 253.577089 222.349287 
L 254.041545 221.266316 
L 254.506001 221.711094 
L 254.970456 221.235081 
L 255.434912 221.004104 
L 255.899368 220.647426 
L 256.363824 221.260663 
L 256.828279 222.343471 
L 257.292735 220.082315 
L 257.757191 216.469268 
L 258.221647 214.523607 
L 258.686102 211.138042 
L 259.150558 209.220694 
L 259.615014 210.593761 
L 260.079469 212.73702 
L 260.543925 214.163383 
L 261.008381 213.705802 
L 261.472837 211.010551 
L 262.401748 206.991357 
L 263.330659 209.09313 
L 263.795115 208.700343 
L 264.259571 208.106554 
L 265.188482 208.669356 
L 265.652938 208.836267 
L 266.581849 212.867616 
L 267.046305 213.540759 
L 267.510761 214.593687 
L 267.975217 214.160104 
L 268.439672 213.32276 
L 268.904128 213.397796 
L 269.368584 212.876791 
L 269.833039 213.935544 
L 270.297495 216.0691 
L 270.761951 216.390493 
L 272.155318 220.470225 
L 272.619774 221.554493 
L 273.084229 223.149807 
L 273.548685 223.477452 
L 274.942052 216.905334 
L 275.406508 217.560676 
L 276.799875 225.518799 
L 277.264331 226.987299 
L 277.728787 228.848815 
L 278.193242 229.589192 
L 278.657698 228.506321 
L 279.122154 226.494756 
L 279.586609 225.066054 
L 280.051065 222.866102 
L 280.515521 219.959259 
L 280.979977 219.497411 
L 281.444432 220.902857 
L 281.908888 224.873332 
L 282.373344 226.343375 
L 282.837799 224.301846 
L 283.302255 222.947994 
L 283.766711 223.296871 
L 284.231167 223.309618 
L 284.695622 222.315247 
L 285.160078 220.913149 
L 285.624534 218.659126 
L 286.088989 218.314439 
L 286.553445 219.216686 
L 287.017901 217.918892 
L 287.482357 217.796906 
L 288.875724 222.416538 
L 289.340179 226.024328 
L 289.804635 230.719412 
L 290.269091 233.240757 
L 290.733547 231.702269 
L 291.198002 228.886459 
L 291.662458 228.22075 
L 292.126914 229.486865 
L 292.591369 229.317322 
L 293.055825 228.717342 
L 293.520281 228.584467 
L 293.984737 228.727634 
L 294.449192 231.489349 
L 294.913648 236.056929 
L 295.378104 237.867133 
L 295.84256 238.674792 
L 296.307015 238.201503 
L 296.771471 238.102928 
L 297.700382 235.655039 
L 298.164838 236.215491 
L 298.629294 235.915249 
L 299.09375 234.221262 
L 299.558205 233.190029 
L 300.022661 232.692141 
L 300.487117 234.145797 
L 300.951572 236.668807 
L 301.416028 238.036018 
L 301.880484 238.88986 
L 302.34494 239.38635 
L 302.809395 238.109637 
L 303.273851 238.61424 
L 303.738307 236.783386 
L 304.202762 231.81447 
L 304.667218 230.717348 
L 305.131674 230.583935 
L 305.59613 230.800088 
L 306.060585 232.430578 
L 306.525041 232.602969 
L 306.989497 231.86824 
L 307.918408 234.487061 
L 308.382864 234.711017 
L 309.311775 236.248317 
L 309.776231 236.00115 
L 310.705142 232.48329 
L 311.169598 235.222505 
L 311.634054 240.263953 
L 312.09851 243.915309 
L 312.562965 242.422656 
L 313.027421 239.387413 
L 313.491877 237.617502 
L 313.956332 238.501035 
L 314.420788 241.063802 
L 315.814155 244.734702 
L 316.278611 244.033052 
L 316.743067 240.852589 
L 317.207522 240.556974 
L 317.671978 241.771384 
L 318.136434 242.462162 
L 319.529801 236.38052 
L 319.994257 236.268584 
L 320.458712 235.986559 
L 320.923168 236.434038 
L 321.387624 236.28563 
L 321.85208 237.636801 
L 322.316535 240.477229 
L 322.780991 241.146273 
L 323.245447 240.487578 
L 324.174358 238.449215 
L 324.638814 238.395528 
L 325.10327 238.051755 
L 325.567725 237.908288 
L 326.032181 238.643256 
L 326.496637 238.375533 
L 326.961092 237.768346 
L 327.425548 237.840459 
L 328.818915 239.049958 
L 329.747827 238.391126 
L 330.212282 237.300619 
L 330.676738 236.643531 
L 331.141194 236.635173 
L 331.60565 237.846099 
L 332.070105 240.761604 
L 332.534561 240.022485 
L 332.999017 237.547204 
L 333.463472 236.763686 
L 333.927928 236.743234 
L 334.392384 237.664942 
L 335.321295 244.582384 
L 335.785751 244.916957 
L 336.250207 244.03879 
L 336.714663 243.540124 
L 337.179118 243.470146 
L 337.643574 244.277248 
L 339.036941 242.262914 
L 339.501397 241.95406 
L 339.965853 242.391096 
L 340.430308 242.104041 
L 340.894764 242.403036 
L 341.35922 245.794747 
L 341.823675 247.477637 
L 342.288131 247.829402 
L 342.752587 246.251048 
L 343.217043 242.323636 
L 343.681498 241.485137 
L 344.61041 246.928481 
L 345.539321 242.966405 
L 346.003777 243.954842 
L 346.468233 245.692068 
L 346.932688 245.82181 
L 347.397144 244.934091 
L 348.326055 248.80021 
L 348.790511 246.825326 
L 349.254967 245.454984 
L 349.719423 245.847559 
L 350.183878 244.889881 
L 351.11279 241.170692 
L 351.577245 241.50997 
L 352.041701 242.229053 
L 352.506157 246.010805 
L 352.970613 248.69026 
L 353.899524 242.225342 
L 354.36398 242.990655 
L 354.828435 245.205998 
L 355.292891 245.486207 
L 355.757347 242.535718 
L 356.221803 241.211274 
L 356.686258 242.738537 
L 357.150714 242.440728 
L 357.61517 241.699786 
L 358.079625 243.238396 
L 359.008537 249.849481 
L 359.472993 249.885042 
L 359.937448 247.837177 
L 360.401904 247.552164 
L 360.86636 250.191176 
L 361.330815 251.734322 
L 361.795271 250.591635 
L 362.724183 246.343035 
L 363.188638 246.715506 
L 363.653094 247.255792 
L 364.11755 249.323336 
L 364.582005 251.980236 
L 365.510917 255.915336 
L 365.975373 256.736951 
L 366.439828 255.948296 
L 367.36874 252.69977 
L 367.833195 250.107256 
L 368.297651 249.477256 
L 368.762107 251.459921 
L 369.691018 249.094845 
L 370.155474 248.986855 
L 370.61993 249.824453 
L 371.084385 252.499354 
L 371.548841 254.409332 
L 372.013297 254.855652 
L 372.477753 253.479118 
L 372.942208 250.88879 
L 373.406664 247.174241 
L 373.87112 245.682931 
L 374.335575 247.846539 
L 374.800031 250.924238 
L 375.264487 252.135447 
L 375.728943 251.539156 
L 376.193398 251.464671 
L 377.12231 256.43637 
L 377.586766 255.833025 
L 378.051221 254.313893 
L 378.515677 253.81144 
L 378.980133 255.857496 
L 379.444588 257.067982 
L 379.909044 254.571614 
L 380.3735 254.690704 
L 380.837956 256.989977 
L 381.766867 258.270466 
L 382.231323 258.017637 
L 382.695778 257.289302 
L 383.160234 257.618065 
L 384.089146 255.706976 
L 384.553601 257.214959 
L 385.482513 263.880647 
L 385.946968 264.892128 
L 386.87588 260.757587 
L 387.340336 261.66981 
L 387.804791 262.945268 
L 388.269247 263.386733 
L 388.733703 264.030558 
L 389.662614 267.327662 
L 390.12707 268.267338 
L 390.591526 268.103218 
L 391.055981 269.141241 
L 391.984893 272.660293 
L 392.449348 272.820386 
L 393.37826 264.492729 
L 393.842716 265.156342 
L 394.307171 267.003043 
L 394.771627 264.688011 
L 395.236083 261.339521 
L 395.700538 259.21865 
L 396.164994 258.178369 
L 396.62945 257.573339 
L 397.093906 256.7802 
L 397.558361 257.011225 
L 398.022817 257.385185 
L 398.487273 257.357949 
L 398.487273 257.357949 
" clip-path="url(#pda7ae5b5a1)" style="fill: none; stroke: #808080; stroke-opacity: 0.7; stroke-width: 1.5; stroke-linecap: square"/>
   </g>
   <g id="line2d_30">
    <path d="M 73.832727 253.081968 
L 74.297183 257.363862 
L 74.761639 258.59829 
L 75.226094 259.32973 
L 75.69055 259.568217 
L 76.155006 255.625034 
L 76.619462 249.114895 
L 77.083917 248.616099 
L 78.012829 255.071961 
L 78.477284 254.491333 
L 78.94174 252.064765 
L 79.406196 251.629491 
L 79.870652 254.906103 
L 80.335107 256.640896 
L 81.264019 262.442772 
L 81.728474 261.132589 
L 82.19293 258.098193 
L 83.121842 247.441413 
L 83.586297 245.886139 
L 84.515209 251.697698 
L 84.979664 250.372188 
L 85.44412 248.039396 
L 85.908576 248.073283 
L 86.373032 252.528583 
L 86.837487 253.631331 
L 87.301943 250.681934 
L 87.766399 249.20851 
L 88.230854 250.984041 
L 88.69531 253.542985 
L 89.159766 253.034635 
L 89.624222 252.199976 
L 90.088677 250.644873 
L 90.553133 247.767514 
L 91.017589 249.80405 
L 91.482044 257.66893 
L 91.9465 261.728265 
L 92.410956 264.356582 
L 92.875412 262.737499 
L 93.804323 252.154985 
L 94.268779 250.505493 
L 94.733234 253.871452 
L 95.19769 255.568784 
L 96.126602 249.797234 
L 96.591057 249.337899 
L 97.519969 254.304287 
L 97.984425 253.567544 
L 98.44888 253.300307 
L 98.913336 251.898538 
L 99.377792 249.817543 
L 99.842247 251.666981 
L 100.771159 257.846447 
L 101.235615 260.8406 
L 101.70007 257.085473 
L 102.164526 255.795462 
L 103.093437 269.28333 
L 103.557893 269.025147 
L 104.486805 262.535422 
L 104.95126 260.443569 
L 105.415716 260.975998 
L 106.344627 269.456849 
L 106.809083 269.129673 
L 107.273539 266.854499 
L 108.20245 264.928254 
L 108.666906 267.734201 
L 109.131362 273.490459 
L 109.595817 274.109316 
L 110.060273 269.842194 
L 110.524729 266.895575 
L 110.989185 270.589054 
L 111.45364 277.875915 
L 111.918096 277.529432 
L 112.382552 273.306143 
L 112.847007 273.140491 
L 113.311463 277.293203 
L 113.775919 280.271573 
L 114.70483 282.459285 
L 115.169286 282.836465 
L 115.633742 281.168931 
L 116.098197 278.608793 
L 116.562653 276.788574 
L 117.027109 277.250205 
L 117.491565 279.124684 
L 117.95602 277.405207 
L 118.884932 269.120825 
L 119.349387 268.992269 
L 119.813843 273.484302 
L 120.278299 275.671461 
L 120.742755 275.286691 
L 121.20721 276.421883 
L 121.671666 278.275666 
L 122.136122 278.256778 
L 122.600577 276.94359 
L 123.065033 276.860519 
L 123.993945 279.667419 
L 124.4584 281.553748 
L 124.922856 282.16585 
L 125.851767 281.757345 
L 126.316223 281.02526 
L 126.780679 281.791044 
L 127.245135 283.576935 
L 127.70959 284.755925 
L 128.174046 287.179367 
L 128.638502 287.065997 
L 129.567413 280.330375 
L 130.496325 276.190782 
L 130.96078 276.081636 
L 131.889692 277.684906 
L 132.354147 277.840531 
L 132.818603 276.60935 
L 133.283059 276.507238 
L 133.747515 274.069098 
L 134.21197 270.650326 
L 134.676426 271.499916 
L 135.140882 273.682305 
L 135.605337 274.863497 
L 136.534249 274.23143 
L 136.998705 273.058533 
L 137.46316 270.861247 
L 137.927616 270.159821 
L 138.392072 270.0444 
L 138.856528 268.592111 
L 139.320983 265.880852 
L 139.785439 264.689386 
L 140.249895 265.644081 
L 140.71435 266.329164 
L 141.178806 266.401326 
L 141.643262 267.416852 
L 142.107718 269.729343 
L 142.572173 270.926367 
L 143.501085 264.892407 
L 143.96554 265.75691 
L 144.894452 271.957415 
L 145.358908 272.929458 
L 145.823363 269.557576 
L 146.287819 267.03675 
L 147.21673 273.971332 
L 147.681186 274.657714 
L 148.145642 275.081495 
L 148.610098 275.163321 
L 149.074553 274.530293 
L 149.539009 272.796969 
L 150.003465 271.56832 
L 150.46792 270.87302 
L 151.396832 276.492454 
L 152.325743 267.947654 
L 152.790199 268.405448 
L 153.254655 270.769107 
L 153.71911 273.959732 
L 154.183566 275.607893 
L 155.576933 265.574441 
L 156.041389 262.872987 
L 156.505845 262.588688 
L 157.434756 269.60945 
L 158.363668 268.456636 
L 158.828123 267.168803 
L 159.292579 267.814578 
L 159.757035 269.951578 
L 160.22149 267.446929 
L 160.685946 262.716952 
L 161.150402 261.96695 
L 162.079313 270.434823 
L 162.543769 268.95089 
L 163.47268 260.4347 
L 163.937136 261.674622 
L 164.866048 271.089135 
L 165.330503 271.897851 
L 165.794959 269.008076 
L 166.259415 264.719243 
L 166.72387 263.18807 
L 167.188326 262.52319 
L 167.652782 263.200467 
L 168.117238 267.786566 
L 168.581693 270.382338 
L 169.046149 267.261623 
L 169.510605 261.640912 
L 169.97506 259.805062 
L 170.903972 269.69655 
L 171.368428 271.239274 
L 171.832883 270.024431 
L 172.761795 262.771991 
L 173.22625 263.417003 
L 173.690706 269.084732 
L 174.155162 273.286048 
L 174.619618 272.541357 
L 175.548529 259.910987 
L 176.012985 256.385509 
L 176.47744 254.445792 
L 176.941896 255.327166 
L 177.406352 251.638286 
L 178.335263 236.576129 
L 179.264175 220.477794 
L 180.657542 189.07819 
L 182.515365 130.187807 
L 183.444276 99.19763 
L 184.373188 83.544622 
L 185.766555 64.60787 
L 186.695466 57.158415 
L 187.159922 57.042606 
L 187.624378 60.190579 
L 188.088833 64.348967 
L 188.553289 71.850834 
L 189.017745 76.793256 
L 189.482201 79.11955 
L 189.946656 86.682302 
L 190.411112 99.614054 
L 191.340023 132.257785 
L 192.268935 154.746051 
L 194.126758 191.715048 
L 194.591213 201.24183 
L 195.055669 208.064807 
L 195.520125 211.232968 
L 195.984581 208.653578 
L 196.449036 208.256075 
L 196.913492 212.434546 
L 198.306859 231.455989 
L 198.771315 234.502612 
L 199.700226 229.450669 
L 200.164682 230.709654 
L 200.629138 231.614752 
L 201.093593 233.43968 
L 201.558049 232.687413 
L 202.022505 230.195726 
L 202.486961 231.933132 
L 203.415872 239.652513 
L 203.880328 242.731525 
L 204.344783 243.980708 
L 204.809239 243.177028 
L 205.273695 244.37824 
L 205.738151 246.200759 
L 206.667062 245.439465 
L 207.131518 244.100648 
L 207.595973 239.576815 
L 208.060429 238.264561 
L 208.524885 240.02916 
L 209.918252 243.206191 
L 210.382708 242.757172 
L 210.847163 242.84455 
L 211.311619 244.065157 
L 211.776075 244.724431 
L 212.240531 244.819313 
L 212.704986 245.630541 
L 213.633898 240.077173 
L 214.098353 241.536162 
L 215.027265 248.917146 
L 215.491721 250.093364 
L 216.420632 246.238876 
L 216.885088 244.781049 
L 217.349544 244.638938 
L 217.813999 247.268331 
L 218.278455 247.549936 
L 218.742911 245.281169 
L 219.207366 244.773372 
L 220.136278 250.755925 
L 220.600734 251.192907 
L 221.065189 252.793 
L 221.529645 253.020547 
L 222.458556 247.202486 
L 222.923012 247.992139 
L 223.387468 249.410681 
L 223.851924 249.872505 
L 224.780835 254.32739 
L 225.245291 256.962312 
L 225.709746 254.431202 
L 226.174202 249.98293 
L 227.103114 247.427083 
L 227.567569 247.899557 
L 228.032025 250.165368 
L 228.496481 249.377263 
L 228.960936 247.144072 
L 229.425392 245.929734 
L 229.889848 247.894272 
L 230.354304 247.760373 
L 231.283215 242.092493 
L 232.212126 248.872519 
L 232.676582 250.485628 
L 233.141038 250.30876 
L 233.605494 249.723618 
L 234.069949 248.100283 
L 234.534405 245.839799 
L 234.998861 246.332882 
L 235.463316 249.680446 
L 235.927772 251.058575 
L 236.392228 248.764422 
L 236.856684 247.451782 
L 237.785595 246.070278 
L 238.250051 246.655243 
L 238.714506 248.205881 
L 239.178962 250.366687 
L 239.643418 249.709494 
L 240.107874 245.176457 
L 240.572329 242.843192 
L 241.036785 239.521178 
L 241.501241 238.137403 
L 241.965696 238.220531 
L 242.430152 238.929741 
L 242.894608 238.057114 
L 243.359064 234.927327 
L 243.823519 236.69433 
L 244.287975 241.610629 
L 244.752431 243.135032 
L 245.216886 243.556833 
L 245.681342 246.500116 
L 246.145798 248.238143 
L 246.610254 246.696402 
L 248.468076 232.792618 
L 248.932532 233.167773 
L 249.396988 237.793989 
L 249.861444 245.501429 
L 250.325899 247.915915 
L 251.254811 241.309212 
L 251.719266 239.72214 
L 252.648178 241.575867 
L 253.112634 239.168248 
L 253.577089 233.023873 
L 254.041545 230.597004 
L 254.506001 232.118769 
L 254.970456 233.075371 
L 255.899368 240.239089 
L 256.363824 242.858032 
L 256.828279 244.42203 
L 257.292735 241.528601 
L 257.757191 234.922437 
L 258.221647 232.266812 
L 258.686102 233.216451 
L 259.150558 233.070575 
L 259.615014 234.158124 
L 260.079469 233.032475 
L 260.543925 230.298286 
L 261.008381 229.405265 
L 261.472837 227.278071 
L 261.937292 226.254953 
L 262.866204 232.084087 
L 263.330659 232.07804 
L 263.795115 229.806303 
L 264.259571 225.646373 
L 264.724027 223.791052 
L 265.188482 226.123428 
L 265.652938 227.530833 
L 266.581849 232.182909 
L 267.046305 231.856885 
L 267.510761 232.413187 
L 267.975217 231.329409 
L 268.439672 228.532305 
L 268.904128 228.834426 
L 269.833039 236.545685 
L 270.297495 235.12825 
L 270.761951 232.604437 
L 271.226407 232.695363 
L 272.155318 235.85159 
L 272.619774 239.693369 
L 273.084229 246.168224 
L 273.548685 248.726786 
L 274.013141 246.284011 
L 274.942052 238.050765 
L 275.406508 239.153705 
L 275.870964 244.522569 
L 276.799875 256.956797 
L 277.264331 257.600366 
L 277.728787 257.169853 
L 278.193242 257.731522 
L 278.657698 256.367318 
L 279.122154 256.140765 
L 279.586609 258.721647 
L 280.051065 260.146202 
L 280.979977 253.975093 
L 281.444432 251.73057 
L 281.908888 253.236227 
L 282.373344 253.442707 
L 282.837799 250.883563 
L 283.302255 249.727265 
L 284.695622 252.134479 
L 285.160078 251.536723 
L 285.624534 247.267178 
L 286.088989 246.112359 
L 286.553445 245.68738 
L 287.017901 242.677763 
L 287.482357 241.51535 
L 287.946812 240.806063 
L 288.411268 241.637441 
L 289.340179 249.441849 
L 289.804635 256.743371 
L 290.269091 261.35585 
L 290.733547 261.358997 
L 291.662458 258.559313 
L 292.126914 257.819475 
L 292.591369 256.249887 
L 293.520281 252.5243 
L 293.984737 251.12303 
L 294.449192 254.146646 
L 294.913648 262.341869 
L 295.378104 267.065679 
L 295.84256 268.42934 
L 296.771471 267.174985 
L 297.235927 264.908142 
L 297.700382 264.384443 
L 298.164838 265.553982 
L 298.629294 264.310813 
L 299.558205 257.475083 
L 300.022661 255.737049 
L 300.487117 258.798278 
L 301.416028 266.026018 
L 301.880484 268.434056 
L 302.34494 269.6931 
L 303.273851 267.894252 
L 303.738307 265.313665 
L 304.202762 257.762946 
L 304.667218 254.65538 
L 305.131674 254.223583 
L 305.59613 254.30093 
L 306.525041 264.243698 
L 307.453952 262.028427 
L 307.918408 261.543639 
L 308.382864 262.118976 
L 309.311775 270.932839 
L 309.776231 271.654232 
L 310.705142 264.668303 
L 311.169598 266.27284 
L 311.634054 271.499482 
L 312.09851 274.255118 
L 312.562965 274.384487 
L 313.027421 274.315648 
L 313.956332 265.757272 
L 314.420788 266.285034 
L 315.3497 272.74594 
L 315.814155 273.905148 
L 317.207522 269.44487 
L 317.671978 269.708738 
L 318.136434 270.130707 
L 319.065345 260.8303 
L 319.529801 259.736429 
L 319.994257 262.985962 
L 320.458712 264.731485 
L 321.387624 266.761099 
L 321.85208 268.294447 
L 322.316535 270.578167 
L 322.780991 273.579837 
L 323.245447 277.607941 
L 323.709902 279.311639 
L 324.174358 278.295749 
L 324.638814 276.409484 
L 325.10327 275.011858 
L 325.567725 276.125245 
L 326.032181 278.000485 
L 326.496637 278.43483 
L 326.961092 278.320294 
L 327.425548 278.865857 
L 327.890004 278.264492 
L 328.35446 276.912692 
L 328.818915 274.520626 
L 329.283371 273.988433 
L 329.747827 277.742243 
L 330.676738 277.804189 
L 331.141194 276.55543 
L 331.60565 272.944559 
L 332.070105 274.484086 
L 332.534561 276.791812 
L 332.999017 274.31699 
L 333.927928 271.553534 
L 334.392384 272.012761 
L 335.321295 278.001258 
L 335.785751 277.98679 
L 336.250207 278.595227 
L 337.179118 278.706306 
L 337.643574 283.037155 
L 338.10803 284.589701 
L 338.572485 283.566108 
L 339.501397 275.953476 
L 339.965853 274.955948 
L 340.430308 275.27776 
L 340.894764 278.312856 
L 341.35922 284.098408 
L 341.823675 285.857747 
L 342.288131 285.849393 
L 342.752587 284.243676 
L 343.217043 280.016132 
L 343.681498 279.721028 
L 344.145954 283.512564 
L 344.61041 285.727004 
L 345.074865 283.015275 
L 345.539321 278.538031 
L 346.003777 275.74148 
L 346.468233 275.188798 
L 346.932688 275.095524 
L 347.397144 274.021442 
L 348.326055 276.209908 
L 348.790511 273.860675 
L 349.254967 273.375919 
L 349.719423 274.399075 
L 350.183878 273.25733 
L 351.11279 266.064161 
L 351.577245 266.683778 
L 352.041701 269.779902 
L 352.506157 274.752114 
L 352.970613 275.869335 
L 353.435068 269.613858 
L 353.899524 267.415294 
L 355.292891 278.208872 
L 356.221803 272.906861 
L 356.686258 272.950428 
L 357.150714 271.006234 
L 357.61517 269.693771 
L 359.008537 280.783421 
L 359.472993 280.02839 
L 359.937448 275.89857 
L 360.401904 274.140705 
L 361.330815 274.55098 
L 362.259727 271.077105 
L 362.724183 270.72837 
L 363.188638 269.962184 
L 363.653094 267.206529 
L 364.11755 267.64318 
L 364.582005 270.941522 
L 365.510917 284.07227 
L 365.975373 285.783077 
L 366.439828 284.153328 
L 367.36874 278.64538 
L 367.833195 275.713454 
L 368.297651 277.482447 
L 368.762107 280.987895 
L 369.226563 279.381865 
L 369.691018 278.546414 
L 370.155474 278.588605 
L 370.61993 278.755488 
L 371.084385 281.73713 
L 371.548841 282.259074 
L 372.013297 281.588465 
L 372.942208 276.505548 
L 373.406664 274.942185 
L 374.335575 274.137321 
L 375.264487 276.3962 
L 375.728943 275.728378 
L 376.193398 274.388758 
L 376.657854 276.299146 
L 377.12231 277.620777 
L 378.051221 271.672495 
L 378.515677 272.873728 
L 378.980133 277.871359 
L 379.444588 280.834784 
L 379.909044 279.401358 
L 380.3735 279.088934 
L 380.837956 278.155813 
L 381.302411 276.813263 
L 382.231323 284.306364 
L 382.695778 284.73339 
L 383.160234 284.177867 
L 383.62469 280.633561 
L 384.089146 275.990688 
L 384.553601 277.038354 
L 385.946968 295.488 
L 386.411424 293.917289 
L 386.87588 293.934619 
L 387.340336 294.9692 
L 388.733703 289.494979 
L 389.198158 289.597237 
L 389.662614 291.273476 
L 390.12707 290.88662 
L 390.591526 289.443408 
L 391.055981 290.145845 
L 391.520437 291.721621 
L 391.984893 292.331608 
L 392.913804 289.899583 
L 393.37826 287.832651 
L 393.842716 289.041351 
L 394.307171 288.371499 
L 395.236083 279.914533 
L 395.700538 276.972904 
L 396.164994 275.559239 
L 396.62945 274.759126 
L 397.093906 274.296941 
L 398.022817 279.999211 
L 398.487273 280.967837 
L 398.487273 280.967837 
" clip-path="url(#pda7ae5b5a1)" style="fill: none; stroke: #0000ff; stroke-width: 2; stroke-linecap: square"/>
   </g>
   <g id="line2d_31">
    <path d="M 73.832727 258.543264 
L 74.761639 252.28599 
L 75.226094 251.779009 
L 75.69055 254.622655 
L 76.619462 261.680747 
L 77.083917 263.004838 
L 77.548373 261.699454 
L 78.012829 261.995088 
L 78.477284 263.299504 
L 78.94174 265.527703 
L 79.406196 266.484006 
L 80.335107 259.263572 
L 80.799563 258.815065 
L 81.728474 268.797459 
L 82.657386 270.52162 
L 83.121842 271.639176 
L 83.586297 271.166218 
L 84.515209 263.613364 
L 84.979664 262.596976 
L 85.44412 263.297232 
L 85.908576 265.320237 
L 86.373032 264.763105 
L 86.837487 261.400275 
L 87.301943 261.124707 
L 87.766399 259.579085 
L 88.69531 259.858033 
L 89.159766 261.622349 
L 90.088677 272.571416 
L 90.553133 276.49378 
L 91.017589 274.844753 
L 91.482044 272.101947 
L 91.9465 271.769211 
L 92.875412 262.69578 
L 93.339867 266.041861 
L 93.804323 272.776088 
L 94.268779 274.827089 
L 94.733234 273.522857 
L 95.19769 270.395355 
L 95.662146 268.46921 
L 96.126602 268.126051 
L 96.591057 268.44433 
L 97.055513 268.221424 
L 97.519969 266.871753 
L 97.984425 266.458164 
L 98.44888 267.186255 
L 98.913336 265.47303 
L 99.377792 259.992783 
L 99.842247 257.569303 
L 101.235615 258.360872 
L 101.70007 261.0411 
L 102.164526 264.647292 
L 102.628982 267.224347 
L 103.093437 267.127743 
L 103.557893 265.054997 
L 104.022349 261.425349 
L 104.486805 258.702082 
L 104.95126 258.197414 
L 105.415716 259.808897 
L 105.880172 257.252911 
L 106.344627 259.659659 
L 106.809083 263.631971 
L 107.273539 263.254468 
L 107.737995 261.994909 
L 108.20245 264.697965 
L 108.666906 265.98943 
L 109.131362 263.673444 
L 110.060273 262.291177 
L 110.524729 263.521204 
L 110.989185 265.499697 
L 111.45364 266.653323 
L 111.918096 267.247937 
L 112.847007 267.823025 
L 113.311463 267.598114 
L 113.775919 265.176656 
L 114.240375 261.133888 
L 114.70483 263.006363 
L 115.169286 269.860984 
L 115.633742 272.108121 
L 116.098197 271.670168 
L 117.491565 266.709824 
L 118.420476 261.815617 
L 118.884932 265.138916 
L 119.349387 270.904626 
L 119.813843 273.465431 
L 120.278299 273.463928 
L 121.20721 267.628459 
L 121.671666 266.245638 
L 122.136122 264.032318 
L 122.600577 265.454682 
L 123.529489 275.894576 
L 123.993945 276.803399 
L 124.4584 273.382752 
L 124.922856 269.019983 
L 125.387312 266.448303 
L 125.851767 268.220255 
L 126.316223 273.003639 
L 126.780679 274.585096 
L 127.245135 275.370011 
L 127.70959 273.75446 
L 128.174046 268.740253 
L 128.638502 265.596297 
L 129.102957 266.810886 
L 130.031869 274.086921 
L 130.496325 273.144371 
L 130.96078 271.204105 
L 131.425236 270.785232 
L 131.889692 271.474208 
L 132.354147 269.519876 
L 132.818603 266.228182 
L 133.283059 266.635761 
L 133.747515 268.147699 
L 134.21197 267.63122 
L 134.676426 267.55991 
L 135.140882 269.162902 
L 135.605337 269.690709 
L 136.069793 271.414386 
L 136.534249 273.748354 
L 136.998705 274.633597 
L 137.46316 276.3151 
L 137.927616 275.908856 
L 138.392072 272.877498 
L 139.320983 270.543772 
L 139.785439 271.131169 
L 140.71435 273.534717 
L 141.178806 273.235515 
L 141.643262 275.652662 
L 142.107718 276.156563 
L 142.572173 274.486499 
L 143.501085 267.743969 
L 143.96554 266.920107 
L 144.429996 267.001523 
L 144.894452 266.233252 
L 145.358908 264.924122 
L 145.823363 265.802423 
L 146.287819 265.548492 
L 147.21673 259.975511 
L 147.681186 259.107437 
L 148.145642 263.120096 
L 148.610098 265.857497 
L 149.074553 267.594856 
L 150.003465 264.091096 
L 150.46792 266.05521 
L 150.932376 268.683038 
L 152.325743 274.010348 
L 152.790199 275.180681 
L 153.254655 275.92547 
L 153.71911 272.533619 
L 154.183566 267.870228 
L 154.648022 266.480057 
L 155.112478 267.196673 
L 156.041389 276.226726 
L 156.505845 276.393664 
L 157.899212 257.207497 
L 158.363668 255.91217 
L 158.828123 260.717114 
L 159.292579 263.286132 
L 159.757035 261.610823 
L 160.22149 259.36184 
L 160.685946 258.163428 
L 161.150402 257.805645 
L 161.614858 260.378841 
L 162.079313 264.7515 
L 162.543769 266.202203 
L 163.008225 266.446727 
L 163.47268 265.496023 
L 163.937136 261.045198 
L 164.401592 258.743709 
L 164.866048 260.588126 
L 165.330503 263.315945 
L 165.794959 263.994792 
L 166.259415 265.843139 
L 166.72387 266.77577 
L 167.188326 266.077628 
L 167.652782 266.365191 
L 168.117238 268.514563 
L 168.581693 268.634291 
L 169.046149 266.646138 
L 169.510605 262.433872 
L 169.97506 260.026922 
L 170.439516 259.665238 
L 170.903972 257.812366 
L 171.368428 256.969997 
L 172.297339 264.076227 
L 172.761795 265.905856 
L 173.22625 269.422859 
L 173.690706 269.70712 
L 174.155162 265.452341 
L 174.619618 265.642159 
L 175.084073 266.429455 
L 175.548529 264.025822 
L 176.012985 260.77175 
L 176.47744 256.61261 
L 176.941896 250.613845 
L 178.335263 229.546323 
L 178.799719 225.633708 
L 179.264175 216.550837 
L 180.193086 188.596443 
L 180.657542 177.951954 
L 181.586453 145.668053 
L 182.515365 114.869144 
L 183.444276 86.543942 
L 183.908732 69.47656 
L 184.373188 57.792615 
L 184.837643 55.817527 
L 185.302099 56.624037 
L 185.766555 56.326935 
L 186.231011 55.418317 
L 186.695466 53.969193 
L 187.159922 53.568 
L 188.088833 57.332848 
L 188.553289 61.132857 
L 189.946656 89.641772 
L 190.411112 96.767426 
L 190.875568 107.473162 
L 192.268935 152.021796 
L 192.733391 161.958688 
L 193.662302 176.693748 
L 194.126758 183.871952 
L 194.591213 187.151931 
L 195.055669 191.97086 
L 195.520125 199.923491 
L 195.984581 201.948795 
L 196.449036 204.94787 
L 197.377948 215.500117 
L 198.306859 224.234083 
L 198.771315 223.153285 
L 199.235771 218.460025 
L 199.700226 218.066233 
L 200.629138 225.248611 
L 201.093593 224.39739 
L 201.558049 222.519941 
L 202.022505 223.016656 
L 202.486961 224.095847 
L 203.415872 228.150678 
L 203.880328 228.048386 
L 204.344783 226.607691 
L 204.809239 222.24389 
L 205.273695 220.946235 
L 205.738151 221.667583 
L 206.202606 223.275444 
L 206.667062 227.651548 
L 207.131518 227.455974 
L 207.595973 226.062326 
L 208.060429 227.267394 
L 208.989341 233.922157 
L 209.918252 228.902501 
L 210.382708 229.932563 
L 210.847163 229.932436 
L 211.311619 230.405007 
L 211.776075 234.73056 
L 212.240531 236.911226 
L 212.704986 234.878548 
L 213.169442 234.532327 
L 213.633898 238.955778 
L 214.098353 239.806575 
L 214.562809 239.516149 
L 215.027265 242.548266 
L 215.491721 239.996939 
L 215.956176 234.34147 
L 216.420632 233.552733 
L 216.885088 231.797218 
L 217.349544 229.259149 
L 217.813999 228.698527 
L 218.278455 229.294067 
L 219.207366 234.239872 
L 219.671822 234.552644 
L 220.136278 235.329918 
L 220.600734 238.683398 
L 221.065189 239.1823 
L 221.529645 236.099643 
L 221.994101 236.374186 
L 222.458556 238.466694 
L 223.387468 234.903264 
L 224.316379 239.924325 
L 224.780835 240.252497 
L 225.245291 240.844616 
L 226.638658 246.875302 
L 227.567569 250.035472 
L 228.032025 249.398118 
L 228.496481 247.568208 
L 229.425392 240.396224 
L 229.889848 239.730658 
L 230.818759 246.437006 
L 231.283215 244.160998 
L 231.747671 239.572136 
L 232.212126 236.892904 
L 232.676582 239.159056 
L 233.141038 240.71687 
L 234.069949 233.111005 
L 234.998861 228.749562 
L 235.463316 229.180786 
L 235.927772 232.279972 
L 236.392228 232.040116 
L 236.856684 229.287585 
L 237.321139 228.24525 
L 237.785595 224.76622 
L 238.250051 223.124393 
L 238.714506 224.09659 
L 239.178962 223.580855 
L 239.643418 218.540339 
L 240.107874 217.20701 
L 240.572329 218.73949 
L 241.036785 219.145312 
L 241.501241 218.802517 
L 241.965696 220.331648 
L 242.430152 219.520468 
L 242.894608 216.377204 
L 243.359064 217.823034 
L 243.823519 220.04161 
L 244.287975 219.608925 
L 245.216886 209.968911 
L 245.681342 210.047674 
L 246.610254 215.856094 
L 247.074709 217.960415 
L 247.539165 218.410655 
L 248.003621 219.261605 
L 248.468076 219.033786 
L 248.932532 218.155624 
L 249.396988 217.541876 
L 249.861444 216.466014 
L 250.790355 213.37617 
L 251.719266 206.765713 
L 252.183722 207.930955 
L 252.648178 211.708544 
L 253.112634 211.9893 
L 253.577089 211.830048 
L 254.041545 212.071418 
L 254.506001 211.454883 
L 254.970456 209.567103 
L 255.899368 201.34088 
L 256.363824 199.977601 
L 256.828279 200.586221 
L 257.292735 198.948138 
L 257.757191 198.284647 
L 258.221647 197.038619 
L 258.686102 189.380941 
L 259.150558 185.717902 
L 259.615014 187.37233 
L 260.543925 198.263293 
L 261.008381 198.234814 
L 261.937292 192.185719 
L 262.401748 185.072981 
L 262.866204 184.301703 
L 263.330659 186.44272 
L 263.795115 187.901538 
L 264.724027 193.232135 
L 265.188482 191.469293 
L 265.652938 190.413764 
L 266.117394 192.390898 
L 267.510761 197.033513 
L 267.975217 197.240665 
L 268.439672 198.334561 
L 268.904128 198.185815 
L 269.368584 193.41043 
L 269.833039 191.654449 
L 270.297495 197.287318 
L 271.226407 203.237063 
L 271.690862 205.113092 
L 272.155318 205.312706 
L 272.619774 203.679592 
L 273.084229 200.466378 
L 274.013141 196.588192 
L 274.477597 196.52874 
L 274.942052 196.067632 
L 275.406508 196.281891 
L 275.870964 196.137005 
L 276.335419 194.713083 
L 276.799875 194.538318 
L 277.264331 196.819744 
L 277.728787 200.939934 
L 278.193242 201.856418 
L 278.657698 201.050786 
L 279.122154 197.280186 
L 280.051065 186.128541 
L 280.515521 183.582637 
L 280.979977 185.521484 
L 281.444432 190.523781 
L 281.908888 196.923202 
L 282.373344 199.63842 
L 283.302255 196.558442 
L 283.766711 196.390882 
L 284.231167 195.401358 
L 285.160078 190.73524 
L 285.624534 190.467407 
L 286.088989 190.921063 
L 286.553445 193.13122 
L 287.017901 193.520336 
L 287.482357 194.423636 
L 287.946812 198.113076 
L 288.411268 199.872194 
L 288.875724 199.942479 
L 289.340179 202.947602 
L 289.804635 205.074181 
L 290.269091 205.534823 
L 290.733547 202.477136 
L 291.198002 198.293238 
L 291.662458 198.323704 
L 292.126914 201.56658 
L 292.591369 202.776707 
L 293.055825 203.53822 
L 293.984737 206.658159 
L 294.449192 209.161785 
L 294.913648 210.154515 
L 295.378104 209.093514 
L 295.84256 209.353262 
L 296.307015 208.955868 
L 296.771471 209.453956 
L 297.235927 208.989973 
L 297.700382 207.343734 
L 298.164838 207.303964 
L 298.629294 207.932927 
L 299.09375 208.256853 
L 299.558205 209.258395 
L 300.022661 209.982606 
L 300.487117 209.852083 
L 300.951572 210.90121 
L 301.416028 210.453357 
L 301.880484 209.775622 
L 302.34494 209.520654 
L 302.809395 207.864718 
L 303.273851 209.760341 
L 303.738307 208.668309 
L 304.202762 206.243621 
L 304.667218 207.127686 
L 305.131674 207.288314 
L 305.59613 207.641254 
L 306.060585 205.652315 
L 306.525041 201.422708 
L 306.989497 200.958847 
L 307.453952 204.868869 
L 307.918408 207.824238 
L 308.382864 207.701925 
L 309.311775 202.06856 
L 309.776231 200.866928 
L 310.240687 200.656938 
L 310.705142 200.766665 
L 311.169598 204.624045 
L 312.09851 214.017036 
L 312.562965 210.925966 
L 313.027421 204.967489 
L 313.491877 205.433417 
L 313.956332 211.641459 
L 314.420788 216.209615 
L 314.885244 215.481831 
L 315.3497 214.541391 
L 315.814155 215.988773 
L 316.278611 216.192482 
L 316.743067 211.568381 
L 317.207522 212.089483 
L 317.671978 214.240602 
L 318.136434 215.196279 
L 318.60089 215.49253 
L 319.065345 215.337095 
L 319.529801 213.36451 
L 319.994257 209.940023 
L 320.458712 207.659958 
L 320.923168 207.518638 
L 321.387624 206.253671 
L 321.85208 207.425315 
L 322.316535 210.814351 
L 322.780991 209.184716 
L 323.245447 203.907428 
L 323.709902 200.156451 
L 324.174358 199.182568 
L 324.638814 200.934789 
L 325.10327 201.629532 
L 325.567725 200.247503 
L 326.032181 199.858794 
L 326.961092 197.80655 
L 327.425548 197.412104 
L 327.890004 198.873026 
L 328.35446 201.121438 
L 328.818915 204.095495 
L 329.283371 203.901885 
L 329.747827 199.612687 
L 330.212282 197.409149 
L 330.676738 196.081885 
L 331.141194 197.295877 
L 331.60565 203.258427 
L 332.070105 207.529885 
L 332.534561 203.788264 
L 332.999017 201.31253 
L 333.463472 201.23298 
L 334.392384 203.816986 
L 334.85684 207.301736 
L 335.321295 211.649855 
L 335.785751 212.32839 
L 336.250207 209.985253 
L 336.714663 208.983766 
L 337.179118 208.746777 
L 338.10803 203.223094 
L 338.572485 203.230718 
L 339.036941 205.533682 
L 339.501397 208.449437 
L 339.965853 210.300162 
L 340.430308 209.4131 
L 340.894764 207.015813 
L 341.35922 208.048521 
L 341.823675 209.656073 
L 342.288131 210.362717 
L 342.752587 208.811328 
L 343.217043 205.179678 
L 343.681498 203.805694 
L 344.61041 208.694593 
L 345.074865 207.495459 
L 345.539321 207.912453 
L 346.468233 216.624604 
L 346.932688 216.974116 
L 347.397144 216.270049 
L 348.326055 221.789405 
L 348.790511 220.183423 
L 349.254967 217.940382 
L 349.719423 217.711554 
L 350.648334 216.287974 
L 351.11279 216.639498 
L 351.577245 216.702517 
L 352.041701 215.079152 
L 352.506157 217.687768 
L 352.970613 221.906723 
L 353.435068 222.138369 
L 353.899524 217.401978 
L 354.36398 215.081998 
L 354.828435 214.931977 
L 355.292891 213.239756 
L 355.757347 209.741578 
L 356.221803 209.976954 
L 356.686258 212.96632 
L 357.150714 214.290935 
L 357.61517 214.113198 
L 358.079625 213.639809 
L 358.544081 215.573563 
L 359.008537 219.365722 
L 359.472993 220.18037 
L 359.937448 220.184161 
L 360.401904 221.350566 
L 360.86636 226.378909 
L 361.330815 229.249714 
L 361.795271 228.866659 
L 362.259727 226.14625 
L 362.724183 222.31258 
L 363.188638 223.807138 
L 364.11755 231.270102 
L 364.582005 233.294893 
L 365.510917 228.168171 
L 366.439828 228.153732 
L 366.904284 227.027693 
L 367.36874 227.131746 
L 367.833195 224.873705 
L 368.297651 221.879624 
L 368.762107 222.361668 
L 369.226563 221.769095 
L 369.691018 220.071885 
L 370.155474 219.8159 
L 370.61993 221.314451 
L 371.084385 223.687076 
L 371.548841 226.964888 
L 372.013297 228.511881 
L 372.477753 228.180136 
L 372.942208 225.644833 
L 373.406664 219.810405 
L 373.87112 217.303474 
L 374.800031 226.908933 
L 375.264487 228.227762 
L 375.728943 227.701961 
L 376.193398 228.8742 
L 377.12231 235.560259 
L 377.586766 237.516462 
L 378.051221 237.207912 
L 378.515677 235.026565 
L 378.980133 234.164002 
L 379.444588 233.647059 
L 379.909044 230.103218 
L 380.3735 230.647541 
L 380.837956 236.132167 
L 381.302411 238.668958 
L 381.766867 236.261169 
L 382.231323 232.111489 
L 382.695778 230.244607 
L 383.62469 232.894287 
L 384.089146 235.718454 
L 384.553601 237.680055 
L 385.018057 237.934293 
L 385.482513 236.720722 
L 385.946968 234.741517 
L 386.411424 231.856135 
L 386.87588 228.06338 
L 387.340336 228.855027 
L 387.804791 233.251005 
L 388.733703 238.936721 
L 389.198158 242.17323 
L 389.662614 243.730331 
L 390.12707 245.977234 
L 391.055981 248.442318 
L 391.520437 250.536956 
L 391.984893 253.275255 
L 392.449348 254.818737 
L 393.37826 241.492473 
L 393.842716 241.618931 
L 394.307171 245.945562 
L 394.771627 246.026367 
L 395.236083 243.034831 
L 395.700538 241.722774 
L 396.164994 241.050443 
L 396.62945 240.637658 
L 397.093906 239.51838 
L 398.022817 235.100261 
L 398.487273 234.091656 
L 398.487273 234.091656 
" clip-path="url(#pda7ae5b5a1)" style="fill: none; stroke: #ff0000; stroke-width: 2; stroke-linecap: square"/>
   </g>
   <g id="line2d_32">
    <path d="M 166.72387 307.584 
L 166.72387 41.472 
" clip-path="url(#pda7ae5b5a1)" style="fill: none; stroke-dasharray: 3.7,1.6; stroke-dashoffset: 0; stroke: #000000"/>
   </g>
   <g id="patch_3">
    <path d="M 57.6 307.584 
L 57.6 41.472 
" style="fill: none; stroke: #000000; stroke-width: 0.8; stroke-linejoin: miter; stroke-linecap: square"/>
   </g>
   <g id="patch_4">
    <path d="M 414.72 307.584 
L 414.72 41.472 
" style="fill: none; stroke: #000000; stroke-width: 0.8; stroke-linejoin: miter; stroke-linecap: square"/>
   </g>
   <g id="patch_5">
    <path d="M 57.6 307.584 
L 414.72 307.584 
" style="fill: none; stroke: #000000; stroke-width: 0.8; stroke-linejoin: miter; stroke-linecap: square"/>
   </g>
   <g id="patch_6">
    <path d="M 57.6 41.472 
L 414.72 41.472 
" style="fill: none; stroke: #000000; stroke-width: 0.8; stroke-linejoin: miter; stroke-linecap: square"/>
   </g>
   <g id="text_17">
    <!-- Monkeyn - Baseline Attention Effect -->
    <g transform="translate(128.925938 35.472) scale(0.12 -0.12)">
     <defs>
      <path id="DejaVuSans-6e" d="M 3513 2113 
L 3513 0 
L 2938 0 
L 2938 2094 
Q 2938 2591 2744 2837 
Q 2550 3084 2163 3084 
Q 1697 3084 1428 2787 
Q 1159 2491 1159 1978 
L 1159 0 
L 581 0 
L 581 3500 
L 1159 3500 
L 1159 2956 
Q 1366 3272 1645 3428 
Q 1925 3584 2291 3584 
Q 2894 3584 3203 3211 
Q 3513 2838 3513 2113 
z
" transform="scale(0.015625)"/>
      <path id="DejaVuSans-6b" d="M 581 4863 
L 1159 4863 
L 1159 1991 
L 2875 3500 
L 3609 3500 
L 1753 1863 
L 3688 0 
L 2938 0 
L 1159 1709 
L 1159 0 
L 581 0 
L 581 4863 
z
" transform="scale(0.015625)"/>
      <path id="DejaVuSans-79" d="M 2059 -325 
Q 1816 -950 1584 -1140 
Q 1353 -1331 966 -1331 
L 506 -1331 
L 506 -850 
L 844 -850 
Q 1081 -850 1212 -737 
Q 1344 -625 1503 -206 
L 1606 56 
L 191 3500 
L 800 3500 
L 1894 763 
L 2988 3500 
L 3597 3500 
L 2059 -325 
z
" transform="scale(0.015625)"/>
      <path id="DejaVuSans-2d" d="M 313 2009 
L 1997 2009 
L 1997 1497 
L 313 1497 
L 313 2009 
z
" transform="scale(0.015625)"/>
      <path id="DejaVuSans-42" d="M 1259 2228 
L 1259 519 
L 2272 519 
Q 2781 519 3026 730 
Q 3272 941 3272 1375 
Q 3272 1813 3026 2020 
Q 2781 2228 2272 2228 
L 1259 2228 
z
M 1259 4147 
L 1259 2741 
L 2194 2741 
Q 2656 2741 2882 2914 
Q 3109 3088 3109 3444 
Q 3109 3797 2882 3972 
Q 2656 4147 2194 4147 
L 1259 4147 
z
M 628 4666 
L 2241 4666 
Q 2963 4666 3353 4366 
Q 3744 4066 3744 3513 
Q 3744 3084 3544 2831 
Q 3344 2578 2956 2516 
Q 3422 2416 3680 2098 
Q 3938 1781 3938 1306 
Q 3938 681 3513 340 
Q 3088 0 2303 0 
L 628 0 
L 628 4666 
z
" transform="scale(0.015625)"/>
      <path id="DejaVuSans-74" d="M 1172 4494 
L 1172 3500 
L 2356 3500 
L 2356 3053 
L 1172 3053 
L 1172 1153 
Q 1172 725 1289 603 
Q 1406 481 1766 481 
L 2356 481 
L 2356 0 
L 1766 0 
Q 1100 0 847 248 
Q 594 497 594 1153 
L 594 3053 
L 172 3053 
L 172 3500 
L 594 3500 
L 594 4494 
L 1172 4494 
z
" transform="scale(0.015625)"/>
      <path id="DejaVuSans-45" d="M 628 4666 
L 3578 4666 
L 3578 4134 
L 1259 4134 
L 1259 2753 
L 3481 2753 
L 3481 2222 
L 1259 2222 
L 1259 531 
L 3634 531 
L 3634 0 
L 628 0 
L 628 4666 
z
" transform="scale(0.015625)"/>
      <path id="DejaVuSans-66" d="M 2375 4863 
L 2375 4384 
L 1825 4384 
Q 1516 4384 1395 4259 
Q 1275 4134 1275 3809 
L 1275 3500 
L 2222 3500 
L 2222 3053 
L 1275 3053 
L 1275 0 
L 697 0 
L 697 3053 
L 147 3053 
L 147 3500 
L 697 3500 
L 697 3744 
Q 697 4328 969 4595 
Q 1241 4863 1831 4863 
L 2375 4863 
z
" transform="scale(0.015625)"/>
      <path id="DejaVuSans-63" d="M 3122 3366 
L 3122 2828 
Q 2878 2963 2633 3030 
Q 2388 3097 2138 3097 
Q 1578 3097 1268 2742 
Q 959 2388 959 1747 
Q 959 1106 1268 751 
Q 1578 397 2138 397 
Q 2388 397 2633 464 
Q 2878 531 3122 666 
L 3122 134 
Q 2881 22 2623 -34 
Q 2366 -91 2075 -91 
Q 1284 -91 818 406 
Q 353 903 353 1747 
Q 353 2603 823 3093 
Q 1294 3584 2113 3584 
Q 2378 3584 2631 3529 
Q 2884 3475 3122 3366 
z
" transform="scale(0.015625)"/>
     </defs>
     <use xlink:href="#DejaVuSans-4d"/>
     <use xlink:href="#DejaVuSans-6f" transform="translate(86.279297 0)"/>
     <use xlink:href="#DejaVuSans-6e" transform="translate(147.460938 0)"/>
     <use xlink:href="#DejaVuSans-6b" transform="translate(210.839844 0)"/>
     <use xlink:href="#DejaVuSans-65" transform="translate(265.125 0)"/>
     <use xlink:href="#DejaVuSans-79" transform="translate(326.648438 0)"/>
     <use xlink:href="#DejaVuSans-6e" transform="translate(385.828125 0)"/>
     <use xlink:href="#DejaVuSans-20" transform="translate(449.207031 0)"/>
     <use xlink:href="#DejaVuSans-2d" transform="translate(480.994141 0)"/>
     <use xlink:href="#DejaVuSans-20" transform="translate(517.078125 0)"/>
     <use xlink:href="#DejaVuSans-42" transform="translate(548.865234 0)"/>
     <use xlink:href="#DejaVuSans-61" transform="translate(617.46875 0)"/>
     <use xlink:href="#DejaVuSans-73" transform="translate(678.748047 0)"/>
     <use xlink:href="#DejaVuSans-65" transform="translate(730.847656 0)"/>
     <use xlink:href="#DejaVuSans-6c" transform="translate(792.371094 0)"/>
     <use xlink:href="#DejaVuSans-69" transform="translate(820.154297 0)"/>
     <use xlink:href="#DejaVuSans-6e" transform="translate(847.9375 0)"/>
     <use xlink:href="#DejaVuSans-65" transform="translate(911.316406 0)"/>
     <use xlink:href="#DejaVuSans-20" transform="translate(972.839844 0)"/>
     <use xlink:href="#DejaVuSans-41" transform="translate(1004.626953 0)"/>
     <use xlink:href="#DejaVuSans-74" transform="translate(1071.285156 0)"/>
     <use xlink:href="#DejaVuSans-74" transform="translate(1110.494141 0)"/>
     <use xlink:href="#DejaVuSans-65" transform="translate(1149.703125 0)"/>
     <use xlink:href="#DejaVuSans-6e" transform="translate(1211.226562 0)"/>
     <use xlink:href="#DejaVuSans-74" transform="translate(1274.605469 0)"/>
     <use xlink:href="#DejaVuSans-69" transform="translate(1313.814453 0)"/>
     <use xlink:href="#DejaVuSans-6f" transform="translate(1341.597656 0)"/>
     <use xlink:href="#DejaVuSans-6e" transform="translate(1402.779297 0)"/>
     <use xlink:href="#DejaVuSans-20" transform="translate(1466.158203 0)"/>
     <use xlink:href="#DejaVuSans-45" transform="translate(1497.945312 0)"/>
     <use xlink:href="#DejaVuSans-66" transform="translate(1561.128906 0)"/>
     <use xlink:href="#DejaVuSans-66" transform="translate(1596.333984 0)"/>
     <use xlink:href="#DejaVuSans-65" transform="translate(1631.539062 0)"/>
     <use xlink:href="#DejaVuSans-63" transform="translate(1693.0625 0)"/>
     <use xlink:href="#DejaVuSans-74" transform="translate(1748.042969 0)"/>
    </g>
   </g>
   <g id="legend_1">
    <g id="patch_7">
     <path d="M 316.754375 93.506375 
L 407.72 93.506375 
Q 409.72 93.506375 409.72 91.506375 
L 409.72 48.472 
Q 409.72 46.472 407.72 46.472 
L 316.754375 46.472 
Q 314.754375 46.472 314.754375 48.472 
L 314.754375 91.506375 
Q 314.754375 93.506375 316.754375 93.506375 
z
" style="fill: #ffffff; opacity: 0.8; stroke: #cccccc; stroke-linejoin: miter"/>
    </g>
    <g id="line2d_33">
     <path d="M 318.754375 54.570438 
L 328.754375 54.570438 
L 338.754375 54.570438 
" style="fill: none; stroke: #808080; stroke-opacity: 0.7; stroke-width: 1.5; stroke-linecap: square"/>
    </g>
    <g id="text_18">
     <!-- All Trials -->
     <g transform="translate(346.754375 58.070438) scale(0.1 -0.1)">
      <use xlink:href="#DejaVuSans-41"/>
      <use xlink:href="#DejaVuSans-6c" transform="translate(68.408203 0)"/>
      <use xlink:href="#DejaVuSans-6c" transform="translate(96.191406 0)"/>
      <use xlink:href="#DejaVuSans-20" transform="translate(123.974609 0)"/>
      <use xlink:href="#DejaVuSans-54" transform="translate(155.761719 0)"/>
      <use xlink:href="#DejaVuSans-72" transform="translate(202.095703 0)"/>
      <use xlink:href="#DejaVuSans-69" transform="translate(243.208984 0)"/>
      <use xlink:href="#DejaVuSans-61" transform="translate(270.992188 0)"/>
      <use xlink:href="#DejaVuSans-6c" transform="translate(332.271484 0)"/>
      <use xlink:href="#DejaVuSans-73" transform="translate(360.054688 0)"/>
     </g>
    </g>
    <g id="line2d_34">
     <path d="M 318.754375 69.248563 
L 328.754375 69.248563 
L 338.754375 69.248563 
" style="fill: none; stroke: #0000ff; stroke-width: 2; stroke-linecap: square"/>
    </g>
    <g id="text_19">
     <!-- Unattended -->
     <g transform="translate(346.754375 72.748563) scale(0.1 -0.1)">
      <use xlink:href="#DejaVuSans-55"/>
      <use xlink:href="#DejaVuSans-6e" transform="translate(73.193359 0)"/>
      <use xlink:href="#DejaVuSans-61" transform="translate(136.572266 0)"/>
      <use xlink:href="#DejaVuSans-74" transform="translate(197.851562 0)"/>
      <use xlink:href="#DejaVuSans-74" transform="translate(237.060547 0)"/>
      <use xlink:href="#DejaVuSans-65" transform="translate(276.269531 0)"/>
      <use xlink:href="#DejaVuSans-6e" transform="translate(337.792969 0)"/>
      <use xlink:href="#DejaVuSans-64" transform="translate(401.171875 0)"/>
      <use xlink:href="#DejaVuSans-65" transform="translate(464.648438 0)"/>
      <use xlink:href="#DejaVuSans-64" transform="translate(526.171875 0)"/>
     </g>
    </g>
    <g id="line2d_35">
     <path d="M 318.754375 83.926688 
L 328.754375 83.926688 
L 338.754375 83.926688 
" style="fill: none; stroke: #ff0000; stroke-width: 2; stroke-linecap: square"/>
    </g>
    <g id="text_20">
     <!-- Attended -->
     <g transform="translate(346.754375 87.426688) scale(0.1 -0.1)">
      <use xlink:href="#DejaVuSans-41"/>
      <use xlink:href="#DejaVuSans-74" transform="translate(66.658203 0)"/>
      <use xlink:href="#DejaVuSans-74" transform="translate(105.867188 0)"/>
      <use xlink:href="#DejaVuSans-65" transform="translate(145.076172 0)"/>
      <use xlink:href="#DejaVuSans-6e" transform="translate(206.599609 0)"/>
      <use xlink:href="#DejaVuSans-64" transform="translate(269.978516 0)"/>
      <use xlink:href="#DejaVuSans-65" transform="translate(333.455078 0)"/>
      <use xlink:href="#DejaVuSans-64" transform="translate(394.978516 0)"/>
     </g>
    </g>
   </g>
  </g>
 </g>
 <defs>
  <clipPath id="pda7ae5b5a1">
   <rect x="57.6" y="41.472" width="357.12" height="266.112"/>
  </clipPath>
 </defs>
</svg>
