<?xml version="1.0" encoding="utf-8" standalone="no"?>
<!DOCTYPE svg PUBLIC "-//W3C//DTD SVG 1.1//EN"
  "http://www.w3.org/Graphics/SVG/1.1/DTD/svg11.dtd">
<svg xmlns:xlink="http://www.w3.org/1999/xlink" width="460.8pt" height="345.6pt" viewBox="0 0 460.8 345.6" xmlns="http://www.w3.org/2000/svg" version="1.1">
 <metadata>
  <rdf:RDF xmlns:dc="http://purl.org/dc/elements/1.1/" xmlns:cc="http://creativecommons.org/ns#" xmlns:rdf="http://www.w3.org/1999/02/22-rdf-syntax-ns#">
   <cc:Work>
    <dc:type rdf:resource="http://purl.org/dc/dcmitype/StillImage"/>
    <dc:date>2025-09-15T12:08:00.622183</dc:date>
    <dc:format>image/svg+xml</dc:format>
    <dc:creator>
     <cc:Agent>
      <dc:title>Matplotlib v3.10.3, https://matplotlib.org/</dc:title>
     </cc:Agent>
    </dc:creator>
   </cc:Work>
  </rdf:RDF>
 </metadata>
 <defs>
  <style type="text/css">*{stroke-linejoin: round; stroke-linecap: butt}</style>
 </defs>
 <g id="figure_1">
  <g id="patch_1">
   <path d="M 0 345.6 
L 460.8 345.6 
L 460.8 0 
L 0 0 
z
" style="fill: #ffffff"/>
  </g>
  <g id="axes_1">
   <g id="patch_2">
    <path d="M 57.6 307.584 
L 414.72 307.584 
L 414.72 41.472 
L 57.6 41.472 
z
" style="fill: #ffffff"/>
   </g>
   <g id="matplotlib.axis_1">
    <g id="xtick_1">
     <g id="line2d_1">
      <path d="M 73.832727 307.584 
L 73.832727 41.472 
" clip-path="url(#p3c9e772e6c)" style="fill: none; stroke: #b0b0b0; stroke-width: 0.8; stroke-linecap: square"/>
     </g>
     <g id="line2d_2">
      <defs>
       <path id="m2e922c3e53" d="M 0 0 
L 0 3.5 
" style="stroke: #000000; stroke-width: 0.8"/>
      </defs>
      <g>
       <use xlink:href="#m2e922c3e53" x="73.832727" y="307.584" style="stroke: #000000; stroke-width: 0.8"/>
      </g>
     </g>
     <g id="text_1">
      <!-- −0.2 -->
      <g transform="translate(61.691321 322.182437) scale(0.1 -0.1)">
       <defs>
        <path id="DejaVuSans-2212" d="M 678 2272 
L 4684 2272 
L 4684 1741 
L 678 1741 
L 678 2272 
z
" transform="scale(0.015625)"/>
        <path id="DejaVuSans-30" d="M 2034 4250 
Q 1547 4250 1301 3770 
Q 1056 3291 1056 2328 
Q 1056 1369 1301 889 
Q 1547 409 2034 409 
Q 2525 409 2770 889 
Q 3016 1369 3016 2328 
Q 3016 3291 2770 3770 
Q 2525 4250 2034 4250 
z
M 2034 4750 
Q 2819 4750 3233 4129 
Q 3647 3509 3647 2328 
Q 3647 1150 3233 529 
Q 2819 -91 2034 -91 
Q 1250 -91 836 529 
Q 422 1150 422 2328 
Q 422 3509 836 4129 
Q 1250 4750 2034 4750 
z
" transform="scale(0.015625)"/>
        <path id="DejaVuSans-2e" d="M 684 794 
L 1344 794 
L 1344 0 
L 684 0 
L 684 794 
z
" transform="scale(0.015625)"/>
        <path id="DejaVuSans-32" d="M 1228 531 
L 3431 531 
L 3431 0 
L 469 0 
L 469 531 
Q 828 903 1448 1529 
Q 2069 2156 2228 2338 
Q 2531 2678 2651 2914 
Q 2772 3150 2772 3378 
Q 2772 3750 2511 3984 
Q 2250 4219 1831 4219 
Q 1534 4219 1204 4116 
Q 875 4013 500 3803 
L 500 4441 
Q 881 4594 1212 4672 
Q 1544 4750 1819 4750 
Q 2544 4750 2975 4387 
Q 3406 4025 3406 3419 
Q 3406 3131 3298 2873 
Q 3191 2616 2906 2266 
Q 2828 2175 2409 1742 
Q 1991 1309 1228 531 
z
" transform="scale(0.015625)"/>
       </defs>
       <use xlink:href="#DejaVuSans-2212"/>
       <use xlink:href="#DejaVuSans-30" transform="translate(83.789062 0)"/>
       <use xlink:href="#DejaVuSans-2e" transform="translate(147.412109 0)"/>
       <use xlink:href="#DejaVuSans-32" transform="translate(179.199219 0)"/>
      </g>
     </g>
    </g>
    <g id="xtick_2">
     <g id="line2d_3">
      <path d="M 120.278299 307.584 
L 120.278299 41.472 
" clip-path="url(#p3c9e772e6c)" style="fill: none; stroke: #b0b0b0; stroke-width: 0.8; stroke-linecap: square"/>
     </g>
     <g id="line2d_4">
      <g>
       <use xlink:href="#m2e922c3e53" x="120.278299" y="307.584" style="stroke: #000000; stroke-width: 0.8"/>
      </g>
     </g>
     <g id="text_2">
      <!-- −0.1 -->
      <g transform="translate(108.136893 322.182437) scale(0.1 -0.1)">
       <defs>
        <path id="DejaVuSans-31" d="M 794 531 
L 1825 531 
L 1825 4091 
L 703 3866 
L 703 4441 
L 1819 4666 
L 2450 4666 
L 2450 531 
L 3481 531 
L 3481 0 
L 794 0 
L 794 531 
z
" transform="scale(0.015625)"/>
       </defs>
       <use xlink:href="#DejaVuSans-2212"/>
       <use xlink:href="#DejaVuSans-30" transform="translate(83.789062 0)"/>
       <use xlink:href="#DejaVuSans-2e" transform="translate(147.412109 0)"/>
       <use xlink:href="#DejaVuSans-31" transform="translate(179.199219 0)"/>
      </g>
     </g>
    </g>
    <g id="xtick_3">
     <g id="line2d_5">
      <path d="M 166.72387 307.584 
L 166.72387 41.472 
" clip-path="url(#p3c9e772e6c)" style="fill: none; stroke: #b0b0b0; stroke-width: 0.8; stroke-linecap: square"/>
     </g>
     <g id="line2d_6">
      <g>
       <use xlink:href="#m2e922c3e53" x="166.72387" y="307.584" style="stroke: #000000; stroke-width: 0.8"/>
      </g>
     </g>
     <g id="text_3">
      <!-- 0.0 -->
      <g transform="translate(158.772308 322.182437) scale(0.1 -0.1)">
       <use xlink:href="#DejaVuSans-30"/>
       <use xlink:href="#DejaVuSans-2e" transform="translate(63.623047 0)"/>
       <use xlink:href="#DejaVuSans-30" transform="translate(95.410156 0)"/>
      </g>
     </g>
    </g>
    <g id="xtick_4">
     <g id="line2d_7">
      <path d="M 213.169442 307.584 
L 213.169442 41.472 
" clip-path="url(#p3c9e772e6c)" style="fill: none; stroke: #b0b0b0; stroke-width: 0.8; stroke-linecap: square"/>
     </g>
     <g id="line2d_8">
      <g>
       <use xlink:href="#m2e922c3e53" x="213.169442" y="307.584" style="stroke: #000000; stroke-width: 0.8"/>
      </g>
     </g>
     <g id="text_4">
      <!-- 0.1 -->
      <g transform="translate(205.21788 322.182437) scale(0.1 -0.1)">
       <use xlink:href="#DejaVuSans-30"/>
       <use xlink:href="#DejaVuSans-2e" transform="translate(63.623047 0)"/>
       <use xlink:href="#DejaVuSans-31" transform="translate(95.410156 0)"/>
      </g>
     </g>
    </g>
    <g id="xtick_5">
     <g id="line2d_9">
      <path d="M 259.615014 307.584 
L 259.615014 41.472 
" clip-path="url(#p3c9e772e6c)" style="fill: none; stroke: #b0b0b0; stroke-width: 0.8; stroke-linecap: square"/>
     </g>
     <g id="line2d_10">
      <g>
       <use xlink:href="#m2e922c3e53" x="259.615014" y="307.584" style="stroke: #000000; stroke-width: 0.8"/>
      </g>
     </g>
     <g id="text_5">
      <!-- 0.2 -->
      <g transform="translate(251.663451 322.182437) scale(0.1 -0.1)">
       <use xlink:href="#DejaVuSans-30"/>
       <use xlink:href="#DejaVuSans-2e" transform="translate(63.623047 0)"/>
       <use xlink:href="#DejaVuSans-32" transform="translate(95.410156 0)"/>
      </g>
     </g>
    </g>
    <g id="xtick_6">
     <g id="line2d_11">
      <path d="M 306.060585 307.584 
L 306.060585 41.472 
" clip-path="url(#p3c9e772e6c)" style="fill: none; stroke: #b0b0b0; stroke-width: 0.8; stroke-linecap: square"/>
     </g>
     <g id="line2d_12">
      <g>
       <use xlink:href="#m2e922c3e53" x="306.060585" y="307.584" style="stroke: #000000; stroke-width: 0.8"/>
      </g>
     </g>
     <g id="text_6">
      <!-- 0.3 -->
      <g transform="translate(298.109023 322.182437) scale(0.1 -0.1)">
       <defs>
        <path id="DejaVuSans-33" d="M 2597 2516 
Q 3050 2419 3304 2112 
Q 3559 1806 3559 1356 
Q 3559 666 3084 287 
Q 2609 -91 1734 -91 
Q 1441 -91 1130 -33 
Q 819 25 488 141 
L 488 750 
Q 750 597 1062 519 
Q 1375 441 1716 441 
Q 2309 441 2620 675 
Q 2931 909 2931 1356 
Q 2931 1769 2642 2001 
Q 2353 2234 1838 2234 
L 1294 2234 
L 1294 2753 
L 1863 2753 
Q 2328 2753 2575 2939 
Q 2822 3125 2822 3475 
Q 2822 3834 2567 4026 
Q 2313 4219 1838 4219 
Q 1578 4219 1281 4162 
Q 984 4106 628 3988 
L 628 4550 
Q 988 4650 1302 4700 
Q 1616 4750 1894 4750 
Q 2613 4750 3031 4423 
Q 3450 4097 3450 3541 
Q 3450 3153 3228 2886 
Q 3006 2619 2597 2516 
z
" transform="scale(0.015625)"/>
       </defs>
       <use xlink:href="#DejaVuSans-30"/>
       <use xlink:href="#DejaVuSans-2e" transform="translate(63.623047 0)"/>
       <use xlink:href="#DejaVuSans-33" transform="translate(95.410156 0)"/>
      </g>
     </g>
    </g>
    <g id="xtick_7">
     <g id="line2d_13">
      <path d="M 352.506157 307.584 
L 352.506157 41.472 
" clip-path="url(#p3c9e772e6c)" style="fill: none; stroke: #b0b0b0; stroke-width: 0.8; stroke-linecap: square"/>
     </g>
     <g id="line2d_14">
      <g>
       <use xlink:href="#m2e922c3e53" x="352.506157" y="307.584" style="stroke: #000000; stroke-width: 0.8"/>
      </g>
     </g>
     <g id="text_7">
      <!-- 0.4 -->
      <g transform="translate(344.554594 322.182437) scale(0.1 -0.1)">
       <defs>
        <path id="DejaVuSans-34" d="M 2419 4116 
L 825 1625 
L 2419 1625 
L 2419 4116 
z
M 2253 4666 
L 3047 4666 
L 3047 1625 
L 3713 1625 
L 3713 1100 
L 3047 1100 
L 3047 0 
L 2419 0 
L 2419 1100 
L 313 1100 
L 313 1709 
L 2253 4666 
z
" transform="scale(0.015625)"/>
       </defs>
       <use xlink:href="#DejaVuSans-30"/>
       <use xlink:href="#DejaVuSans-2e" transform="translate(63.623047 0)"/>
       <use xlink:href="#DejaVuSans-34" transform="translate(95.410156 0)"/>
      </g>
     </g>
    </g>
    <g id="xtick_8">
     <g id="line2d_15">
      <path d="M 398.951728 307.584 
L 398.951728 41.472 
" clip-path="url(#p3c9e772e6c)" style="fill: none; stroke: #b0b0b0; stroke-width: 0.8; stroke-linecap: square"/>
     </g>
     <g id="line2d_16">
      <g>
       <use xlink:href="#m2e922c3e53" x="398.951728" y="307.584" style="stroke: #000000; stroke-width: 0.8"/>
      </g>
     </g>
     <g id="text_8">
      <!-- 0.5 -->
      <g transform="translate(391.000166 322.182437) scale(0.1 -0.1)">
       <defs>
        <path id="DejaVuSans-35" d="M 691 4666 
L 3169 4666 
L 3169 4134 
L 1269 4134 
L 1269 2991 
Q 1406 3038 1543 3061 
Q 1681 3084 1819 3084 
Q 2600 3084 3056 2656 
Q 3513 2228 3513 1497 
Q 3513 744 3044 326 
Q 2575 -91 1722 -91 
Q 1428 -91 1123 -41 
Q 819 9 494 109 
L 494 744 
Q 775 591 1075 516 
Q 1375 441 1709 441 
Q 2250 441 2565 725 
Q 2881 1009 2881 1497 
Q 2881 1984 2565 2268 
Q 2250 2553 1709 2553 
Q 1456 2553 1204 2497 
Q 953 2441 691 2322 
L 691 4666 
z
" transform="scale(0.015625)"/>
       </defs>
       <use xlink:href="#DejaVuSans-30"/>
       <use xlink:href="#DejaVuSans-2e" transform="translate(63.623047 0)"/>
       <use xlink:href="#DejaVuSans-35" transform="translate(95.410156 0)"/>
      </g>
     </g>
    </g>
    <g id="text_9">
     <!-- Time (ms) -->
     <g transform="translate(210.960781 335.860562) scale(0.1 -0.1)">
      <defs>
       <path id="DejaVuSans-54" d="M -19 4666 
L 3928 4666 
L 3928 4134 
L 2272 4134 
L 2272 0 
L 1638 0 
L 1638 4134 
L -19 4134 
L -19 4666 
z
" transform="scale(0.015625)"/>
       <path id="DejaVuSans-69" d="M 603 3500 
L 1178 3500 
L 1178 0 
L 603 0 
L 603 3500 
z
M 603 4863 
L 1178 4863 
L 1178 4134 
L 603 4134 
L 603 4863 
z
" transform="scale(0.015625)"/>
       <path id="DejaVuSans-6d" d="M 3328 2828 
Q 3544 3216 3844 3400 
Q 4144 3584 4550 3584 
Q 5097 3584 5394 3201 
Q 5691 2819 5691 2113 
L 5691 0 
L 5113 0 
L 5113 2094 
Q 5113 2597 4934 2840 
Q 4756 3084 4391 3084 
Q 3944 3084 3684 2787 
Q 3425 2491 3425 1978 
L 3425 0 
L 2847 0 
L 2847 2094 
Q 2847 2600 2669 2842 
Q 2491 3084 2119 3084 
Q 1678 3084 1418 2786 
Q 1159 2488 1159 1978 
L 1159 0 
L 581 0 
L 581 3500 
L 1159 3500 
L 1159 2956 
Q 1356 3278 1631 3431 
Q 1906 3584 2284 3584 
Q 2666 3584 2933 3390 
Q 3200 3197 3328 2828 
z
" transform="scale(0.015625)"/>
       <path id="DejaVuSans-65" d="M 3597 1894 
L 3597 1613 
L 953 1613 
Q 991 1019 1311 708 
Q 1631 397 2203 397 
Q 2534 397 2845 478 
Q 3156 559 3463 722 
L 3463 178 
Q 3153 47 2828 -22 
Q 2503 -91 2169 -91 
Q 1331 -91 842 396 
Q 353 884 353 1716 
Q 353 2575 817 3079 
Q 1281 3584 2069 3584 
Q 2775 3584 3186 3129 
Q 3597 2675 3597 1894 
z
M 3022 2063 
Q 3016 2534 2758 2815 
Q 2500 3097 2075 3097 
Q 1594 3097 1305 2825 
Q 1016 2553 972 2059 
L 3022 2063 
z
" transform="scale(0.015625)"/>
       <path id="DejaVuSans-20" transform="scale(0.015625)"/>
       <path id="DejaVuSans-28" d="M 1984 4856 
Q 1566 4138 1362 3434 
Q 1159 2731 1159 2009 
Q 1159 1288 1364 580 
Q 1569 -128 1984 -844 
L 1484 -844 
Q 1016 -109 783 600 
Q 550 1309 550 2009 
Q 550 2706 781 3412 
Q 1013 4119 1484 4856 
L 1984 4856 
z
" transform="scale(0.015625)"/>
       <path id="DejaVuSans-73" d="M 2834 3397 
L 2834 2853 
Q 2591 2978 2328 3040 
Q 2066 3103 1784 3103 
Q 1356 3103 1142 2972 
Q 928 2841 928 2578 
Q 928 2378 1081 2264 
Q 1234 2150 1697 2047 
L 1894 2003 
Q 2506 1872 2764 1633 
Q 3022 1394 3022 966 
Q 3022 478 2636 193 
Q 2250 -91 1575 -91 
Q 1294 -91 989 -36 
Q 684 19 347 128 
L 347 722 
Q 666 556 975 473 
Q 1284 391 1588 391 
Q 1994 391 2212 530 
Q 2431 669 2431 922 
Q 2431 1156 2273 1281 
Q 2116 1406 1581 1522 
L 1381 1569 
Q 847 1681 609 1914 
Q 372 2147 372 2553 
Q 372 3047 722 3315 
Q 1072 3584 1716 3584 
Q 2034 3584 2315 3537 
Q 2597 3491 2834 3397 
z
" transform="scale(0.015625)"/>
       <path id="DejaVuSans-29" d="M 513 4856 
L 1013 4856 
Q 1481 4119 1714 3412 
Q 1947 2706 1947 2009 
Q 1947 1309 1714 600 
Q 1481 -109 1013 -844 
L 513 -844 
Q 928 -128 1133 580 
Q 1338 1288 1338 2009 
Q 1338 2731 1133 3434 
Q 928 4138 513 4856 
z
" transform="scale(0.015625)"/>
      </defs>
      <use xlink:href="#DejaVuSans-54"/>
      <use xlink:href="#DejaVuSans-69" transform="translate(57.958984 0)"/>
      <use xlink:href="#DejaVuSans-6d" transform="translate(85.742188 0)"/>
      <use xlink:href="#DejaVuSans-65" transform="translate(183.154297 0)"/>
      <use xlink:href="#DejaVuSans-20" transform="translate(244.677734 0)"/>
      <use xlink:href="#DejaVuSans-28" transform="translate(276.464844 0)"/>
      <use xlink:href="#DejaVuSans-6d" transform="translate(315.478516 0)"/>
      <use xlink:href="#DejaVuSans-73" transform="translate(412.890625 0)"/>
      <use xlink:href="#DejaVuSans-29" transform="translate(464.990234 0)"/>
     </g>
    </g>
   </g>
   <g id="matplotlib.axis_2">
    <g id="ytick_1">
     <g id="line2d_17">
      <path d="M 57.6 307.161359 
L 414.72 307.161359 
" clip-path="url(#p3c9e772e6c)" style="fill: none; stroke: #b0b0b0; stroke-width: 0.8; stroke-linecap: square"/>
     </g>
     <g id="line2d_18">
      <defs>
       <path id="mac7fea444f" d="M 0 0 
L -3.5 0 
" style="stroke: #000000; stroke-width: 0.8"/>
      </defs>
      <g>
       <use xlink:href="#mac7fea444f" x="57.6" y="307.161359" style="stroke: #000000; stroke-width: 0.8"/>
      </g>
     </g>
     <g id="text_10">
      <!-- −0.2 -->
      <g transform="translate(26.317187 310.960578) scale(0.1 -0.1)">
       <use xlink:href="#DejaVuSans-2212"/>
       <use xlink:href="#DejaVuSans-30" transform="translate(83.789062 0)"/>
       <use xlink:href="#DejaVuSans-2e" transform="translate(147.412109 0)"/>
       <use xlink:href="#DejaVuSans-32" transform="translate(179.199219 0)"/>
      </g>
     </g>
    </g>
    <g id="ytick_2">
     <g id="line2d_19">
      <path d="M 57.6 265.52934 
L 414.72 265.52934 
" clip-path="url(#p3c9e772e6c)" style="fill: none; stroke: #b0b0b0; stroke-width: 0.8; stroke-linecap: square"/>
     </g>
     <g id="line2d_20">
      <g>
       <use xlink:href="#mac7fea444f" x="57.6" y="265.52934" style="stroke: #000000; stroke-width: 0.8"/>
      </g>
     </g>
     <g id="text_11">
      <!-- 0.0 -->
      <g transform="translate(34.696875 269.328558) scale(0.1 -0.1)">
       <use xlink:href="#DejaVuSans-30"/>
       <use xlink:href="#DejaVuSans-2e" transform="translate(63.623047 0)"/>
       <use xlink:href="#DejaVuSans-30" transform="translate(95.410156 0)"/>
      </g>
     </g>
    </g>
    <g id="ytick_3">
     <g id="line2d_21">
      <path d="M 57.6 223.89732 
L 414.72 223.89732 
" clip-path="url(#p3c9e772e6c)" style="fill: none; stroke: #b0b0b0; stroke-width: 0.8; stroke-linecap: square"/>
     </g>
     <g id="line2d_22">
      <g>
       <use xlink:href="#mac7fea444f" x="57.6" y="223.89732" style="stroke: #000000; stroke-width: 0.8"/>
      </g>
     </g>
     <g id="text_12">
      <!-- 0.2 -->
      <g transform="translate(34.696875 227.696539) scale(0.1 -0.1)">
       <use xlink:href="#DejaVuSans-30"/>
       <use xlink:href="#DejaVuSans-2e" transform="translate(63.623047 0)"/>
       <use xlink:href="#DejaVuSans-32" transform="translate(95.410156 0)"/>
      </g>
     </g>
    </g>
    <g id="ytick_4">
     <g id="line2d_23">
      <path d="M 57.6 182.2653 
L 414.72 182.2653 
" clip-path="url(#p3c9e772e6c)" style="fill: none; stroke: #b0b0b0; stroke-width: 0.8; stroke-linecap: square"/>
     </g>
     <g id="line2d_24">
      <g>
       <use xlink:href="#mac7fea444f" x="57.6" y="182.2653" style="stroke: #000000; stroke-width: 0.8"/>
      </g>
     </g>
     <g id="text_13">
      <!-- 0.4 -->
      <g transform="translate(34.696875 186.064519) scale(0.1 -0.1)">
       <use xlink:href="#DejaVuSans-30"/>
       <use xlink:href="#DejaVuSans-2e" transform="translate(63.623047 0)"/>
       <use xlink:href="#DejaVuSans-34" transform="translate(95.410156 0)"/>
      </g>
     </g>
    </g>
    <g id="ytick_5">
     <g id="line2d_25">
      <path d="M 57.6 140.633281 
L 414.72 140.633281 
" clip-path="url(#p3c9e772e6c)" style="fill: none; stroke: #b0b0b0; stroke-width: 0.8; stroke-linecap: square"/>
     </g>
     <g id="line2d_26">
      <g>
       <use xlink:href="#mac7fea444f" x="57.6" y="140.633281" style="stroke: #000000; stroke-width: 0.8"/>
      </g>
     </g>
     <g id="text_14">
      <!-- 0.6 -->
      <g transform="translate(34.696875 144.432499) scale(0.1 -0.1)">
       <defs>
        <path id="DejaVuSans-36" d="M 2113 2584 
Q 1688 2584 1439 2293 
Q 1191 2003 1191 1497 
Q 1191 994 1439 701 
Q 1688 409 2113 409 
Q 2538 409 2786 701 
Q 3034 994 3034 1497 
Q 3034 2003 2786 2293 
Q 2538 2584 2113 2584 
z
M 3366 4563 
L 3366 3988 
Q 3128 4100 2886 4159 
Q 2644 4219 2406 4219 
Q 1781 4219 1451 3797 
Q 1122 3375 1075 2522 
Q 1259 2794 1537 2939 
Q 1816 3084 2150 3084 
Q 2853 3084 3261 2657 
Q 3669 2231 3669 1497 
Q 3669 778 3244 343 
Q 2819 -91 2113 -91 
Q 1303 -91 875 529 
Q 447 1150 447 2328 
Q 447 3434 972 4092 
Q 1497 4750 2381 4750 
Q 2619 4750 2861 4703 
Q 3103 4656 3366 4563 
z
" transform="scale(0.015625)"/>
       </defs>
       <use xlink:href="#DejaVuSans-30"/>
       <use xlink:href="#DejaVuSans-2e" transform="translate(63.623047 0)"/>
       <use xlink:href="#DejaVuSans-36" transform="translate(95.410156 0)"/>
      </g>
     </g>
    </g>
    <g id="ytick_6">
     <g id="line2d_27">
      <path d="M 57.6 99.001261 
L 414.72 99.001261 
" clip-path="url(#p3c9e772e6c)" style="fill: none; stroke: #b0b0b0; stroke-width: 0.8; stroke-linecap: square"/>
     </g>
     <g id="line2d_28">
      <g>
       <use xlink:href="#mac7fea444f" x="57.6" y="99.001261" style="stroke: #000000; stroke-width: 0.8"/>
      </g>
     </g>
     <g id="text_15">
      <!-- 0.8 -->
      <g transform="translate(34.696875 102.80048) scale(0.1 -0.1)">
       <defs>
        <path id="DejaVuSans-38" d="M 2034 2216 
Q 1584 2216 1326 1975 
Q 1069 1734 1069 1313 
Q 1069 891 1326 650 
Q 1584 409 2034 409 
Q 2484 409 2743 651 
Q 3003 894 3003 1313 
Q 3003 1734 2745 1975 
Q 2488 2216 2034 2216 
z
M 1403 2484 
Q 997 2584 770 2862 
Q 544 3141 544 3541 
Q 544 4100 942 4425 
Q 1341 4750 2034 4750 
Q 2731 4750 3128 4425 
Q 3525 4100 3525 3541 
Q 3525 3141 3298 2862 
Q 3072 2584 2669 2484 
Q 3125 2378 3379 2068 
Q 3634 1759 3634 1313 
Q 3634 634 3220 271 
Q 2806 -91 2034 -91 
Q 1263 -91 848 271 
Q 434 634 434 1313 
Q 434 1759 690 2068 
Q 947 2378 1403 2484 
z
M 1172 3481 
Q 1172 3119 1398 2916 
Q 1625 2713 2034 2713 
Q 2441 2713 2670 2916 
Q 2900 3119 2900 3481 
Q 2900 3844 2670 4047 
Q 2441 4250 2034 4250 
Q 1625 4250 1398 4047 
Q 1172 3844 1172 3481 
z
" transform="scale(0.015625)"/>
       </defs>
       <use xlink:href="#DejaVuSans-30"/>
       <use xlink:href="#DejaVuSans-2e" transform="translate(63.623047 0)"/>
       <use xlink:href="#DejaVuSans-38" transform="translate(95.410156 0)"/>
      </g>
     </g>
    </g>
    <g id="ytick_7">
     <g id="line2d_29">
      <path d="M 57.6 57.369241 
L 414.72 57.369241 
" clip-path="url(#p3c9e772e6c)" style="fill: none; stroke: #b0b0b0; stroke-width: 0.8; stroke-linecap: square"/>
     </g>
     <g id="line2d_30">
      <g>
       <use xlink:href="#mac7fea444f" x="57.6" y="57.369241" style="stroke: #000000; stroke-width: 0.8"/>
      </g>
     </g>
     <g id="text_16">
      <!-- 1.0 -->
      <g transform="translate(34.696875 61.16846) scale(0.1 -0.1)">
       <use xlink:href="#DejaVuSans-31"/>
       <use xlink:href="#DejaVuSans-2e" transform="translate(63.623047 0)"/>
       <use xlink:href="#DejaVuSans-30" transform="translate(95.410156 0)"/>
      </g>
     </g>
    </g>
    <g id="text_17">
     <!-- Normalized MUA -->
     <g transform="translate(20.2375 215.866281) rotate(-90) scale(0.1 -0.1)">
      <defs>
       <path id="DejaVuSans-4e" d="M 628 4666 
L 1478 4666 
L 3547 763 
L 3547 4666 
L 4159 4666 
L 4159 0 
L 3309 0 
L 1241 3903 
L 1241 0 
L 628 0 
L 628 4666 
z
" transform="scale(0.015625)"/>
       <path id="DejaVuSans-6f" d="M 1959 3097 
Q 1497 3097 1228 2736 
Q 959 2375 959 1747 
Q 959 1119 1226 758 
Q 1494 397 1959 397 
Q 2419 397 2687 759 
Q 2956 1122 2956 1747 
Q 2956 2369 2687 2733 
Q 2419 3097 1959 3097 
z
M 1959 3584 
Q 2709 3584 3137 3096 
Q 3566 2609 3566 1747 
Q 3566 888 3137 398 
Q 2709 -91 1959 -91 
Q 1206 -91 779 398 
Q 353 888 353 1747 
Q 353 2609 779 3096 
Q 1206 3584 1959 3584 
z
" transform="scale(0.015625)"/>
       <path id="DejaVuSans-72" d="M 2631 2963 
Q 2534 3019 2420 3045 
Q 2306 3072 2169 3072 
Q 1681 3072 1420 2755 
Q 1159 2438 1159 1844 
L 1159 0 
L 581 0 
L 581 3500 
L 1159 3500 
L 1159 2956 
Q 1341 3275 1631 3429 
Q 1922 3584 2338 3584 
Q 2397 3584 2469 3576 
Q 2541 3569 2628 3553 
L 2631 2963 
z
" transform="scale(0.015625)"/>
       <path id="DejaVuSans-61" d="M 2194 1759 
Q 1497 1759 1228 1600 
Q 959 1441 959 1056 
Q 959 750 1161 570 
Q 1363 391 1709 391 
Q 2188 391 2477 730 
Q 2766 1069 2766 1631 
L 2766 1759 
L 2194 1759 
z
M 3341 1997 
L 3341 0 
L 2766 0 
L 2766 531 
Q 2569 213 2275 61 
Q 1981 -91 1556 -91 
Q 1019 -91 701 211 
Q 384 513 384 1019 
Q 384 1609 779 1909 
Q 1175 2209 1959 2209 
L 2766 2209 
L 2766 2266 
Q 2766 2663 2505 2880 
Q 2244 3097 1772 3097 
Q 1472 3097 1187 3025 
Q 903 2953 641 2809 
L 641 3341 
Q 956 3463 1253 3523 
Q 1550 3584 1831 3584 
Q 2591 3584 2966 3190 
Q 3341 2797 3341 1997 
z
" transform="scale(0.015625)"/>
       <path id="DejaVuSans-6c" d="M 603 4863 
L 1178 4863 
L 1178 0 
L 603 0 
L 603 4863 
z
" transform="scale(0.015625)"/>
       <path id="DejaVuSans-7a" d="M 353 3500 
L 3084 3500 
L 3084 2975 
L 922 459 
L 3084 459 
L 3084 0 
L 275 0 
L 275 525 
L 2438 3041 
L 353 3041 
L 353 3500 
z
" transform="scale(0.015625)"/>
       <path id="DejaVuSans-64" d="M 2906 2969 
L 2906 4863 
L 3481 4863 
L 3481 0 
L 2906 0 
L 2906 525 
Q 2725 213 2448 61 
Q 2172 -91 1784 -91 
Q 1150 -91 751 415 
Q 353 922 353 1747 
Q 353 2572 751 3078 
Q 1150 3584 1784 3584 
Q 2172 3584 2448 3432 
Q 2725 3281 2906 2969 
z
M 947 1747 
Q 947 1113 1208 752 
Q 1469 391 1925 391 
Q 2381 391 2643 752 
Q 2906 1113 2906 1747 
Q 2906 2381 2643 2742 
Q 2381 3103 1925 3103 
Q 1469 3103 1208 2742 
Q 947 2381 947 1747 
z
" transform="scale(0.015625)"/>
       <path id="DejaVuSans-4d" d="M 628 4666 
L 1569 4666 
L 2759 1491 
L 3956 4666 
L 4897 4666 
L 4897 0 
L 4281 0 
L 4281 4097 
L 3078 897 
L 2444 897 
L 1241 4097 
L 1241 0 
L 628 0 
L 628 4666 
z
" transform="scale(0.015625)"/>
       <path id="DejaVuSans-55" d="M 556 4666 
L 1191 4666 
L 1191 1831 
Q 1191 1081 1462 751 
Q 1734 422 2344 422 
Q 2950 422 3222 751 
Q 3494 1081 3494 1831 
L 3494 4666 
L 4128 4666 
L 4128 1753 
Q 4128 841 3676 375 
Q 3225 -91 2344 -91 
Q 1459 -91 1007 375 
Q 556 841 556 1753 
L 556 4666 
z
" transform="scale(0.015625)"/>
       <path id="DejaVuSans-41" d="M 2188 4044 
L 1331 1722 
L 3047 1722 
L 2188 4044 
z
M 1831 4666 
L 2547 4666 
L 4325 0 
L 3669 0 
L 3244 1197 
L 1141 1197 
L 716 0 
L 50 0 
L 1831 4666 
z
" transform="scale(0.015625)"/>
      </defs>
      <use xlink:href="#DejaVuSans-4e"/>
      <use xlink:href="#DejaVuSans-6f" transform="translate(74.804688 0)"/>
      <use xlink:href="#DejaVuSans-72" transform="translate(135.986328 0)"/>
      <use xlink:href="#DejaVuSans-6d" transform="translate(175.349609 0)"/>
      <use xlink:href="#DejaVuSans-61" transform="translate(272.761719 0)"/>
      <use xlink:href="#DejaVuSans-6c" transform="translate(334.041016 0)"/>
      <use xlink:href="#DejaVuSans-69" transform="translate(361.824219 0)"/>
      <use xlink:href="#DejaVuSans-7a" transform="translate(389.607422 0)"/>
      <use xlink:href="#DejaVuSans-65" transform="translate(442.097656 0)"/>
      <use xlink:href="#DejaVuSans-64" transform="translate(503.621094 0)"/>
      <use xlink:href="#DejaVuSans-20" transform="translate(567.097656 0)"/>
      <use xlink:href="#DejaVuSans-4d" transform="translate(598.884766 0)"/>
      <use xlink:href="#DejaVuSans-55" transform="translate(685.164062 0)"/>
      <use xlink:href="#DejaVuSans-41" transform="translate(758.357422 0)"/>
     </g>
    </g>
   </g>
   <g id="line2d_31">
    <path d="M 73.832727 264.843847 
L 74.297183 265.887717 
L 74.761639 265.602643 
L 75.226094 263.001025 
L 75.69055 265.546237 
L 76.155006 267.051168 
L 76.619462 266.590092 
L 77.083917 265.253866 
L 77.548373 265.56088 
L 78.012829 269.182894 
L 78.477284 274.120044 
L 78.94174 276.85138 
L 79.406196 274.998398 
L 79.870652 271.950091 
L 80.335107 270.932081 
L 81.728474 276.837471 
L 82.19293 277.666411 
L 82.657386 276.322577 
L 83.121842 272.816043 
L 83.586297 271.180914 
L 84.515209 273.568828 
L 84.979664 272.878569 
L 85.44412 271.377476 
L 85.908576 268.363578 
L 86.373032 266.822915 
L 86.837487 270.366202 
L 87.301943 271.986696 
L 87.766399 272.157713 
L 88.230854 274.450739 
L 88.69531 274.444454 
L 89.624222 270.74518 
L 90.088677 270.046437 
L 90.553133 271.847755 
L 91.017589 272.957381 
L 91.9465 274.262092 
L 92.410956 272.344989 
L 92.875412 273.798838 
L 93.339867 278.160169 
L 93.804323 278.612957 
L 94.268779 277.682407 
L 94.733234 276.26003 
L 95.19769 278.482372 
L 95.662146 280.114512 
L 96.126602 279.004424 
L 97.055513 273.832931 
L 97.519969 271.989361 
L 97.984425 272.479735 
L 98.44888 278.160568 
L 98.913336 281.961905 
L 99.842247 285.435685 
L 100.306703 285.922281 
L 101.235615 279.080893 
L 101.70007 281.896955 
L 102.164526 285.763592 
L 103.093437 284.482118 
L 104.022349 286.932409 
L 104.486805 287.372734 
L 105.415716 290.508082 
L 105.880172 289.669498 
L 106.809083 284.664868 
L 107.273539 284.665229 
L 107.737995 286.550716 
L 108.20245 287.616965 
L 108.666906 289.213221 
L 109.131362 288.799008 
L 109.595817 286.404704 
L 110.989185 287.025573 
L 111.45364 284.88081 
L 111.918096 285.029387 
L 112.382552 287.829035 
L 112.847007 286.435815 
L 113.311463 283.562224 
L 113.775919 283.902112 
L 114.240375 286.676244 
L 114.70483 288.050622 
L 115.169286 285.040199 
L 115.633742 283.064333 
L 117.027109 280.265193 
L 117.491565 280.556024 
L 117.95602 279.844239 
L 118.420476 278.836061 
L 118.884932 277.550523 
L 119.349387 276.631623 
L 119.813843 277.173917 
L 120.278299 279.635574 
L 120.742755 280.801324 
L 121.20721 280.239987 
L 122.136122 271.659288 
L 122.600577 271.960424 
L 124.4584 277.633752 
L 124.922856 277.473155 
L 125.387312 277.441477 
L 125.851767 277.997435 
L 126.316223 277.509446 
L 126.780679 276.783049 
L 127.70959 268.927223 
L 128.174046 267.884924 
L 128.638502 270.250052 
L 129.102957 274.450726 
L 129.567413 275.125557 
L 130.031869 274.060999 
L 130.96078 269.94053 
L 131.425236 268.620273 
L 132.818603 265.722923 
L 133.283059 263.12452 
L 133.747515 261.881837 
L 134.21197 261.981043 
L 134.676426 262.265284 
L 135.140882 263.118605 
L 135.605337 263.542592 
L 136.069793 262.286222 
L 136.534249 263.03781 
L 136.998705 264.855767 
L 137.46316 264.146313 
L 138.392072 259.998289 
L 139.320983 254.557258 
L 139.785439 252.891038 
L 140.249895 251.869072 
L 140.71435 252.0572 
L 141.178806 252.996332 
L 141.643262 250.953275 
L 142.107718 246.782964 
L 142.572173 246.641647 
L 143.036629 248.621987 
L 143.501085 249.627102 
L 143.96554 248.081918 
L 144.894452 240.275564 
L 145.358908 241.620023 
L 145.823363 242.378229 
L 146.287819 240.661474 
L 147.21673 238.797549 
L 147.681186 238.250969 
L 148.145642 236.797717 
L 148.610098 236.451385 
L 149.074553 238.775805 
L 149.539009 243.18839 
L 150.003465 245.26609 
L 150.46792 244.994687 
L 151.396832 238.288449 
L 151.861288 240.035139 
L 152.325743 240.426587 
L 152.790199 240.295455 
L 153.254655 242.38198 
L 153.71911 243.798511 
L 154.183566 242.501689 
L 154.648022 242.047148 
L 155.112478 242.173741 
L 155.576933 243.284052 
L 156.041389 245.678286 
L 156.9703 242.324212 
L 157.434756 243.292958 
L 157.899212 243.957569 
L 158.828123 242.57039 
L 159.292579 241.142227 
L 159.757035 238.446095 
L 160.22149 239.211393 
L 160.685946 239.062216 
L 161.150402 235.106353 
L 161.614858 234.000228 
L 162.079313 236.01244 
L 162.543769 234.807882 
L 163.47268 230.940841 
L 164.401592 227.137468 
L 164.866048 226.470972 
L 165.794959 233.788288 
L 166.259415 235.87326 
L 166.72387 236.200153 
L 167.188326 235.118192 
L 167.652782 233.717621 
L 168.117238 230.791244 
L 168.581693 229.386933 
L 169.046149 230.371335 
L 169.510605 231.815376 
L 169.97506 232.471195 
L 170.903972 231.718741 
L 171.368428 230.824616 
L 172.297339 233.056638 
L 172.761795 232.083236 
L 173.22625 229.070626 
L 174.155162 219.221462 
L 174.619618 215.660527 
L 175.548529 206.800513 
L 176.941896 200.884021 
L 177.870808 206.115698 
L 178.335263 205.925054 
L 178.799719 203.845114 
L 179.264175 199.910885 
L 179.728631 194.538557 
L 180.193086 185.265249 
L 181.121998 161.13435 
L 182.050909 146.324858 
L 182.979821 132.720836 
L 183.908732 120.350706 
L 184.837643 104.82774 
L 185.766555 84.734381 
L 187.159922 64.553988 
L 187.624378 61.189702 
L 188.088833 60.384324 
L 188.553289 60.405021 
L 189.017745 60.565768 
L 189.482201 67.259292 
L 190.411112 88.008392 
L 191.804479 115.387541 
L 192.733391 134.494593 
L 193.662302 147.577147 
L 195.055669 174.497171 
L 195.984581 182.591393 
L 196.449036 191.970907 
L 196.913492 199.002827 
L 198.771315 211.950109 
L 199.235771 211.122298 
L 199.700226 208.339114 
L 200.164682 208.105874 
L 200.629138 209.629238 
L 201.093593 209.909746 
L 201.558049 211.971465 
L 202.022505 212.772589 
L 202.486961 213.329757 
L 202.951416 215.067275 
L 203.415872 218.370732 
L 203.880328 219.466405 
L 204.344783 221.652582 
L 204.809239 224.758827 
L 205.273695 225.066884 
L 205.738151 221.426901 
L 206.202606 218.841693 
L 206.667062 218.926247 
L 207.131518 221.118092 
L 207.595973 221.642062 
L 208.060429 219.864455 
L 208.524885 218.529594 
L 208.989341 221.184562 
L 209.453796 222.834188 
L 209.918252 221.688272 
L 210.382708 221.660656 
L 211.311619 228.873321 
L 211.776075 229.200845 
L 212.240531 228.746796 
L 212.704986 227.272537 
L 213.169442 227.271308 
L 214.098353 233.299307 
L 214.562809 235.120799 
L 215.027265 235.048088 
L 215.491721 235.352653 
L 215.956176 236.077099 
L 216.420632 237.20521 
L 216.885088 237.134342 
L 217.349544 238.055201 
L 217.813999 241.808631 
L 218.278455 241.84734 
L 218.742911 239.961577 
L 219.207366 240.548887 
L 219.671822 241.549368 
L 220.136278 238.669992 
L 220.600734 238.165016 
L 221.065189 238.684311 
L 221.529645 237.426322 
L 221.994101 236.794077 
L 222.458556 238.850916 
L 222.923012 242.120539 
L 223.387468 242.262336 
L 223.851924 242.70045 
L 224.316379 241.165049 
L 225.245291 235.621191 
L 225.709746 234.150812 
L 226.174202 236.054079 
L 226.638658 238.628223 
L 227.103114 239.576067 
L 227.567569 237.716701 
L 228.032025 236.995833 
L 228.496481 238.008938 
L 228.960936 238.125893 
L 229.425392 238.824742 
L 229.889848 235.801628 
L 230.354304 231.236487 
L 230.818759 232.806375 
L 231.283215 233.644884 
L 231.747671 232.298966 
L 232.212126 231.526364 
L 232.676582 230.448427 
L 233.141038 230.384031 
L 233.605494 229.973537 
L 234.069949 229.351466 
L 234.998861 232.190006 
L 235.463316 232.394887 
L 235.927772 230.285151 
L 236.392228 226.445693 
L 236.856684 224.464227 
L 237.785595 221.960841 
L 238.250051 219.694473 
L 239.643418 216.897426 
L 240.572329 218.519211 
L 241.036785 217.570954 
L 241.501241 215.43531 
L 241.965696 212.275911 
L 242.430152 210.162576 
L 242.894608 209.733933 
L 243.359064 210.501155 
L 243.823519 210.277955 
L 244.287975 208.039219 
L 244.752431 209.605809 
L 245.216886 211.934584 
L 245.681342 210.94867 
L 246.145798 208.745761 
L 246.610254 207.846188 
L 247.074709 207.735929 
L 247.539165 207.138221 
L 248.003621 204.13799 
L 248.468076 202.750206 
L 248.932532 202.967664 
L 249.396988 204.582515 
L 249.861444 201.702067 
L 250.790355 191.97199 
L 251.254811 191.899525 
L 251.719266 193.635956 
L 252.183722 193.804178 
L 253.112634 190.59583 
L 253.577089 189.214527 
L 254.506001 178.863121 
L 254.970456 179.763168 
L 255.899368 189.59967 
L 256.363824 190.147361 
L 257.292735 183.355672 
L 257.757191 181.431617 
L 258.221647 183.47918 
L 258.686102 183.605684 
L 259.150558 182.903743 
L 259.615014 184.090967 
L 260.079469 185.886286 
L 260.543925 185.842506 
L 261.008381 183.107995 
L 261.472837 183.986961 
L 261.937292 188.122597 
L 262.401748 191.148855 
L 262.866204 191.958827 
L 263.795115 185.727288 
L 264.259571 184.726055 
L 264.724027 184.727971 
L 265.188482 184.989514 
L 266.117394 184.979315 
L 266.581849 186.370016 
L 267.046305 187.377984 
L 267.510761 185.418379 
L 267.975217 181.862814 
L 268.439672 183.338753 
L 268.904128 186.156019 
L 269.368584 187.129505 
L 269.833039 186.013654 
L 270.297495 186.026694 
L 270.761951 185.803553 
L 271.226407 184.746852 
L 271.690862 181.451368 
L 272.155318 180.857154 
L 272.619774 182.388406 
L 273.084229 182.055403 
L 273.548685 183.520928 
L 274.013141 182.040939 
L 274.477597 178.048487 
L 274.942052 176.032891 
L 275.406508 175.657454 
L 275.870964 175.004087 
L 276.799875 181.028959 
L 277.264331 181.666962 
L 278.657698 169.344788 
L 279.122154 167.739912 
L 279.586609 167.41806 
L 280.051065 166.436199 
L 280.515521 166.661041 
L 280.979977 167.91737 
L 281.444432 170.207117 
L 281.908888 174.073436 
L 282.837799 183.12584 
L 283.302255 181.367258 
L 284.231167 173.044233 
L 284.695622 173.110043 
L 285.160078 176.059554 
L 285.624534 177.198202 
L 286.088989 173.428801 
L 286.553445 173.73325 
L 287.017901 178.313212 
L 287.482357 181.296789 
L 287.946812 182.372391 
L 288.411268 183.163901 
L 288.875724 182.649471 
L 289.340179 182.630513 
L 289.804635 179.784501 
L 290.269091 176.135071 
L 290.733547 173.61708 
L 291.198002 173.403756 
L 291.662458 172.988819 
L 292.591369 166.639417 
L 293.055825 169.842405 
L 293.520281 175.354839 
L 293.984737 177.444976 
L 294.913648 174.480569 
L 295.378104 175.301308 
L 296.307015 173.267946 
L 296.771471 172.107012 
L 297.235927 172.358137 
L 297.700382 173.064706 
L 298.164838 172.919551 
L 299.09375 174.858872 
L 299.558205 176.970082 
L 300.022661 177.272729 
L 300.487117 177.283159 
L 300.951572 174.492311 
L 301.416028 172.920906 
L 301.880484 175.781165 
L 302.34494 177.105233 
L 302.809395 177.378596 
L 303.273851 178.348348 
L 303.738307 180.030173 
L 304.202762 181.10918 
L 304.667218 179.555641 
L 305.131674 177.337876 
L 306.060585 175.770294 
L 306.525041 176.56816 
L 307.453952 179.679295 
L 307.918408 180.415681 
L 308.382864 178.880368 
L 308.84732 178.918843 
L 309.311775 178.725193 
L 309.776231 177.785884 
L 310.240687 177.147682 
L 311.169598 175.551377 
L 311.634054 174.115509 
L 312.09851 173.399456 
L 313.027421 170.623866 
L 313.491877 170.408636 
L 313.956332 171.234748 
L 314.420788 174.152017 
L 314.885244 174.921759 
L 315.3497 174.226543 
L 315.814155 175.969128 
L 317.207522 175.621725 
L 317.671978 175.090821 
L 318.136434 175.659874 
L 318.60089 174.390349 
L 319.065345 173.449078 
L 319.529801 173.951155 
L 319.994257 174.0304 
L 320.458712 176.068932 
L 320.923168 177.11747 
L 321.387624 177.667898 
L 321.85208 176.834163 
L 322.316535 177.640463 
L 322.780991 176.453291 
L 324.174358 167.398969 
L 324.638814 169.014678 
L 325.10327 172.250534 
L 325.567725 171.444426 
L 326.032181 169.644293 
L 326.496637 169.949201 
L 327.425548 171.063546 
L 327.890004 170.670895 
L 328.35446 172.406964 
L 328.818915 173.60827 
L 329.283371 173.343515 
L 329.747827 174.516344 
L 330.212282 170.789265 
L 330.676738 169.459666 
L 331.141194 173.714202 
L 331.60565 175.304055 
L 332.070105 174.936983 
L 332.534561 174.086664 
L 332.999017 173.918889 
L 333.927928 178.069609 
L 334.85684 171.246988 
L 335.321295 172.223954 
L 335.785751 172.761414 
L 336.250207 171.941063 
L 336.714663 171.716798 
L 337.179118 171.108956 
L 337.643574 170.735524 
L 338.10803 170.770191 
L 338.572485 171.635618 
L 339.036941 171.500561 
L 339.501397 172.411474 
L 339.965853 172.681367 
L 340.430308 171.014964 
L 340.894764 168.748535 
L 341.35922 167.31498 
L 341.823675 169.864165 
L 342.288131 173.979981 
L 342.752587 174.648352 
L 343.217043 173.024788 
L 343.681498 171.842675 
L 344.145954 173.197137 
L 344.61041 173.283164 
L 345.074865 170.163905 
L 345.539321 169.434383 
L 346.003777 171.357161 
L 346.932688 169.48834 
L 347.397144 171.633877 
L 347.8616 173.137446 
L 348.326055 172.457662 
L 348.790511 173.386729 
L 349.254967 171.728752 
L 349.719423 166.466664 
L 350.183878 165.551021 
L 351.11279 170.362163 
L 351.577245 171.675137 
L 352.041701 171.582604 
L 352.506157 171.711031 
L 352.970613 171.042646 
L 353.435068 172.920272 
L 353.899524 175.976678 
L 354.36398 174.794859 
L 354.828435 174.919258 
L 355.292891 176.543059 
L 355.757347 176.369097 
L 356.221803 175.395825 
L 356.686258 175.807336 
L 357.150714 174.68091 
L 357.61517 174.497141 
L 358.079625 176.629833 
L 358.544081 178.090207 
L 359.008537 177.88981 
L 359.937448 175.738996 
L 360.401904 175.453771 
L 360.86636 176.047017 
L 361.330815 173.754194 
L 361.795271 173.428793 
L 362.259727 174.6295 
L 362.724183 172.926582 
L 363.188638 170.089451 
L 364.11755 174.31148 
L 364.582005 173.073038 
L 365.046461 174.814825 
L 365.510917 177.419736 
L 366.439828 172.91276 
L 366.904284 174.213618 
L 367.833195 173.425114 
L 368.762107 177.643243 
L 369.226563 177.410885 
L 369.691018 176.069716 
L 370.155474 176.809461 
L 370.61993 176.365391 
L 371.084385 174.209244 
L 371.548841 173.355466 
L 372.013297 172.060003 
L 372.477753 172.261019 
L 372.942208 174.487269 
L 373.406664 173.520083 
L 373.87112 173.846629 
L 374.335575 173.988538 
L 374.800031 172.684918 
L 375.264487 172.547472 
L 375.728943 173.371727 
L 376.657854 171.786318 
L 377.12231 172.843087 
L 377.586766 172.577824 
L 378.515677 172.881258 
L 378.980133 172.166859 
L 379.444588 171.969572 
L 380.3735 177.512708 
L 380.837956 179.482391 
L 381.302411 180.525465 
L 381.766867 180.099783 
L 382.231323 178.58766 
L 382.695778 176.207274 
L 383.160234 177.618883 
L 383.62469 177.303208 
L 384.089146 175.08598 
L 384.553601 174.825195 
L 385.018057 174.878756 
L 385.482513 172.980165 
L 385.946968 173.010168 
L 386.411424 173.683809 
L 387.804791 178.192401 
L 388.269247 178.516443 
L 389.198158 174.788019 
L 389.662614 175.029255 
L 390.591526 171.430251 
L 391.055981 172.679507 
L 391.520437 175.791469 
L 391.984893 177.697275 
L 392.449348 176.633411 
L 392.913804 177.760412 
L 393.842716 179.121358 
L 394.307171 181.089066 
L 395.236083 182.307434 
L 395.700538 182.318105 
L 396.164994 180.544089 
L 397.093906 173.762879 
L 398.022817 176.178536 
L 398.487273 175.35912 
L 398.487273 175.35912 
" clip-path="url(#p3c9e772e6c)" style="fill: none; stroke: #808080; stroke-opacity: 0.7; stroke-width: 1.5; stroke-linecap: square"/>
   </g>
   <g id="line2d_32">
    <path d="M 73.832727 264.791649 
L 74.297183 271.702944 
L 74.761639 272.201958 
L 75.226094 268.828503 
L 75.69055 270.108968 
L 76.155006 268.4418 
L 77.083917 260.715391 
L 77.548373 261.244157 
L 78.477284 271.857439 
L 78.94174 271.480675 
L 79.406196 268.409679 
L 79.870652 266.226784 
L 80.335107 266.311897 
L 80.799563 269.174942 
L 81.264019 273.700585 
L 81.728474 276.211856 
L 82.19293 275.731108 
L 82.657386 272.169064 
L 83.121842 266.261106 
L 83.586297 265.531664 
L 84.050753 268.165542 
L 84.515209 269.244751 
L 84.979664 267.631067 
L 85.44412 268.926408 
L 85.908576 269.465127 
L 86.373032 269.769598 
L 86.837487 273.952953 
L 87.301943 274.531105 
L 87.766399 274.776399 
L 88.230854 278.959632 
L 88.69531 279.385352 
L 90.088677 268.18747 
L 90.553133 270.461033 
L 91.017589 271.933087 
L 91.482044 273.919728 
L 91.9465 277.838667 
L 92.410956 275.452702 
L 92.875412 274.481131 
L 93.339867 279.096528 
L 93.804323 282.312047 
L 94.268779 283.198694 
L 95.19769 280.214679 
L 95.662146 281.251442 
L 96.126602 279.540698 
L 96.591057 274.778752 
L 97.055513 271.524173 
L 97.519969 271.492199 
L 97.984425 274.089692 
L 98.44888 281.817122 
L 98.913336 287.228784 
L 99.377792 289.100986 
L 99.842247 290.32706 
L 100.306703 290.882585 
L 100.771159 286.144786 
L 101.235615 279.20803 
L 101.70007 281.221348 
L 102.164526 285.316708 
L 102.628982 286.222172 
L 103.093437 287.553764 
L 103.557893 287.536397 
L 104.022349 287.302111 
L 104.486805 286.55831 
L 105.415716 294.593465 
L 105.880172 295.488 
L 106.344627 292.699609 
L 106.809083 288.645924 
L 107.273539 287.404795 
L 107.737995 288.696872 
L 108.20245 289.617421 
L 108.666906 288.992469 
L 109.131362 286.772154 
L 109.595817 286.105484 
L 110.060273 289.068628 
L 110.524729 290.620158 
L 110.989185 289.113941 
L 111.45364 286.43188 
L 111.918096 285.392157 
L 112.382552 285.050557 
L 112.847007 283.014992 
L 113.311463 280.316121 
L 113.775919 280.812201 
L 114.240375 281.825326 
L 114.70483 280.888155 
L 115.169286 276.861494 
L 115.633742 276.225553 
L 116.098197 276.531014 
L 117.027109 273.213648 
L 117.491565 272.914597 
L 117.95602 271.994786 
L 118.420476 269.22402 
L 118.884932 267.127358 
L 119.349387 267.082602 
L 119.813843 270.799187 
L 120.278299 276.633677 
L 120.742755 275.858373 
L 121.20721 272.105943 
L 121.671666 266.769758 
L 122.136122 263.644698 
L 122.600577 266.181709 
L 123.993945 277.130486 
L 124.4584 278.923617 
L 124.922856 276.458159 
L 125.387312 272.79366 
L 125.851767 273.819391 
L 126.316223 277.480057 
L 126.780679 279.892915 
L 127.245135 277.936473 
L 127.70959 273.740086 
L 128.174046 270.830244 
L 128.638502 271.222026 
L 129.102957 273.047931 
L 129.567413 273.571941 
L 130.031869 274.820862 
L 130.96078 273.869141 
L 131.425236 271.270089 
L 131.889692 270.150805 
L 132.354147 270.325733 
L 132.818603 267.640768 
L 133.283059 262.681324 
L 133.747515 260.912002 
L 134.676426 264.765439 
L 135.140882 266.793576 
L 135.605337 266.454575 
L 136.069793 262.748908 
L 136.534249 264.076884 
L 136.998705 268.712974 
L 137.46316 268.670017 
L 138.392072 261.151472 
L 138.856528 259.132185 
L 139.320983 258.582869 
L 139.785439 258.729744 
L 140.249895 258.003972 
L 140.71435 261.12561 
L 141.178806 262.94869 
L 141.643262 259.011645 
L 142.107718 253.621408 
L 142.572173 253.418631 
L 143.501085 255.814241 
L 143.96554 253.456739 
L 144.429996 246.553051 
L 144.894452 242.102784 
L 145.358908 243.907983 
L 145.823363 245.133726 
L 146.287819 242.193109 
L 146.752275 241.695315 
L 147.681186 241.188489 
L 148.145642 237.508104 
L 148.610098 235.983585 
L 149.074553 237.948711 
L 149.539009 241.80711 
L 150.003465 240.488005 
L 150.46792 238.564405 
L 150.932376 235.56908 
L 151.396832 233.35638 
L 151.861288 237.795395 
L 152.325743 238.134964 
L 152.790199 238.733808 
L 153.71911 246.325006 
L 154.183566 245.276327 
L 154.648022 241.327984 
L 155.112478 239.200137 
L 155.576933 241.374579 
L 156.041389 242.454476 
L 156.505845 239.815513 
L 156.9703 238.010296 
L 157.434756 241.020302 
L 157.899212 242.326757 
L 158.363668 238.863057 
L 158.828123 238.550801 
L 159.292579 239.206613 
L 159.757035 239.43272 
L 160.22149 242.829125 
L 160.685946 242.364004 
L 161.150402 237.162989 
L 161.614858 234.109818 
L 162.079313 233.781407 
L 162.543769 231.291761 
L 163.008225 229.85604 
L 163.47268 229.514979 
L 163.937136 230.534718 
L 164.401592 230.23344 
L 164.866048 227.940516 
L 165.330503 230.116066 
L 165.794959 234.785367 
L 166.259415 238.232678 
L 166.72387 238.071403 
L 167.188326 238.705247 
L 167.652782 237.859214 
L 168.117238 234.260001 
L 169.046149 230.663747 
L 169.510605 229.580555 
L 169.97506 230.833131 
L 170.439516 229.923296 
L 171.368428 229.743705 
L 171.832883 231.523712 
L 172.297339 234.113526 
L 172.761795 233.786141 
L 173.22625 232.286063 
L 174.619618 223.852496 
L 175.084073 221.097159 
L 176.47744 203.399857 
L 176.941896 201.400159 
L 177.870808 212.137744 
L 178.335263 212.228541 
L 178.799719 209.918797 
L 179.264175 206.790903 
L 179.728631 202.49999 
L 180.193086 196.68161 
L 181.586453 162.868791 
L 182.515365 136.95563 
L 182.979821 130.735422 
L 184.373188 119.818088 
L 184.837643 112.52331 
L 185.766555 94.63471 
L 186.231011 89.063631 
L 187.159922 73.584388 
L 187.624378 68.648372 
L 188.553289 62.816768 
L 189.017745 60.824829 
L 189.482201 68.902288 
L 190.411112 91.228169 
L 191.340023 110.385097 
L 192.268935 130.150961 
L 193.197846 141.866937 
L 193.662302 148.042824 
L 194.126758 156.024428 
L 195.055669 174.946256 
L 195.520125 175.916751 
L 195.984581 177.886236 
L 197.377948 201.336262 
L 197.842403 208.234132 
L 198.306859 212.681742 
L 198.771315 215.058355 
L 199.235771 214.103995 
L 199.700226 211.652448 
L 200.164682 211.673359 
L 201.093593 216.012887 
L 201.558049 216.818324 
L 202.486961 212.840497 
L 202.951416 215.109393 
L 203.880328 227.69505 
L 204.344783 232.847991 
L 204.809239 234.273554 
L 205.273695 231.833171 
L 205.738151 225.519096 
L 206.202606 221.275657 
L 206.667062 219.93398 
L 207.131518 223.229737 
L 207.595973 225.111327 
L 208.060429 222.097093 
L 208.524885 217.59519 
L 208.989341 218.355607 
L 211.311619 231.695163 
L 211.776075 230.50574 
L 212.704986 224.798787 
L 213.169442 224.042002 
L 214.098353 233.966149 
L 214.562809 237.616462 
L 215.491721 241.416153 
L 215.956176 243.073999 
L 216.420632 243.698016 
L 216.885088 241.966922 
L 217.349544 242.469035 
L 217.813999 245.201659 
L 218.278455 245.182245 
L 218.742911 242.378111 
L 219.207366 240.469564 
L 219.671822 241.983121 
L 220.136278 242.880081 
L 220.600734 247.427224 
L 221.065189 249.491868 
L 221.529645 245.076063 
L 221.994101 239.472889 
L 222.458556 237.370639 
L 222.923012 237.472572 
L 223.387468 238.518405 
L 223.851924 242.415655 
L 224.316379 245.131717 
L 224.780835 242.253694 
L 225.245291 238.375813 
L 225.709746 236.842657 
L 226.174202 236.363072 
L 226.638658 238.597928 
L 227.103114 241.807937 
L 227.567569 240.255057 
L 228.032025 240.172789 
L 228.496481 241.92614 
L 228.960936 241.413645 
L 229.425392 241.609327 
L 229.889848 238.997336 
L 230.354304 234.578538 
L 230.818759 239.006659 
L 231.283215 241.263959 
L 232.212126 238.338218 
L 232.676582 237.042334 
L 233.141038 236.897604 
L 233.605494 237.443614 
L 234.069949 238.546628 
L 234.534405 240.371267 
L 234.998861 238.750482 
L 235.463316 240.264398 
L 235.927772 240.588936 
L 236.392228 236.176797 
L 236.856684 235.631261 
L 237.321139 236.604597 
L 237.785595 234.562374 
L 239.643418 223.724287 
L 240.572329 228.079219 
L 241.036785 226.936101 
L 241.501241 224.590051 
L 241.965696 221.140852 
L 242.430152 220.559617 
L 242.894608 220.379261 
L 243.823519 213.860693 
L 244.287975 212.458579 
L 244.752431 214.042843 
L 245.216886 217.560386 
L 245.681342 218.286044 
L 246.145798 216.321933 
L 247.074709 214.311044 
L 248.003621 212.551944 
L 248.468076 213.207886 
L 248.932532 215.168801 
L 249.396988 216.330455 
L 249.861444 214.702237 
L 250.790355 206.938442 
L 251.254811 206.682143 
L 251.719266 205.363764 
L 252.183722 202.670601 
L 252.648178 201.51145 
L 253.112634 202.319527 
L 253.577089 200.245011 
L 254.506001 186.885348 
L 254.970456 187.096557 
L 255.899368 194.993545 
L 256.363824 194.96052 
L 256.828279 192.953169 
L 257.292735 190.017742 
L 257.757191 185.183416 
L 258.686102 187.24704 
L 259.150558 184.801188 
L 259.615014 184.552935 
L 260.543925 191.206793 
L 261.008381 190.101402 
L 261.472837 190.011718 
L 261.937292 193.334207 
L 262.401748 197.754593 
L 262.866204 199.745521 
L 263.795115 193.557809 
L 264.259571 189.968694 
L 264.724027 187.584191 
L 265.188482 187.881816 
L 265.652938 187.996104 
L 266.117394 186.476199 
L 266.581849 188.143609 
L 267.046305 190.436965 
L 267.510761 189.643612 
L 267.975217 184.27106 
L 268.439672 183.673379 
L 268.904128 189.05528 
L 269.368584 191.236955 
L 269.833039 188.496077 
L 270.761951 185.114098 
L 271.226407 185.213009 
L 271.690862 183.095511 
L 272.155318 183.425864 
L 272.619774 185.82601 
L 273.084229 185.152928 
L 273.548685 187.692843 
L 274.013141 186.650865 
L 274.477597 183.603813 
L 274.942052 182.823089 
L 275.406508 183.847557 
L 275.870964 181.082141 
L 276.335419 179.644303 
L 276.799875 181.43126 
L 277.264331 183.685631 
L 277.728787 182.289576 
L 278.657698 174.810318 
L 279.122154 168.513753 
L 279.586609 164.975831 
L 280.051065 165.280497 
L 281.908888 176.329807 
L 282.837799 185.50797 
L 283.302255 183.328935 
L 283.766711 179.929509 
L 284.231167 175.196813 
L 284.695622 174.059368 
L 285.160078 176.59964 
L 285.624534 177.849195 
L 286.088989 176.164119 
L 286.553445 178.159268 
L 287.482357 187.084035 
L 287.946812 185.694948 
L 288.411268 185.789101 
L 288.875724 187.444844 
L 289.340179 187.309239 
L 289.804635 183.293975 
L 290.269091 178.19299 
L 290.733547 176.307295 
L 291.198002 177.945596 
L 291.662458 178.470793 
L 292.126914 177.551708 
L 292.591369 175.150441 
L 293.520281 182.323095 
L 293.984737 182.084428 
L 294.449192 182.523824 
L 295.378104 188.350499 
L 296.307015 180.032158 
L 296.771471 176.79446 
L 297.235927 177.850597 
L 297.700382 180.989339 
L 298.629294 185.164743 
L 299.09375 184.972395 
L 300.022661 185.679897 
L 300.487117 185.841883 
L 301.416028 180.515329 
L 301.880484 181.98498 
L 302.809395 183.899676 
L 303.738307 188.407887 
L 304.202762 187.310115 
L 304.667218 182.805389 
L 305.131674 181.297466 
L 305.59613 181.865022 
L 306.060585 180.637092 
L 306.525041 180.748667 
L 306.989497 183.065926 
L 307.453952 186.109269 
L 307.918408 185.478022 
L 308.382864 183.133293 
L 308.84732 184.544059 
L 309.311775 183.83695 
L 309.776231 179.860275 
L 310.240687 177.645736 
L 310.705142 176.140798 
L 311.634054 177.95761 
L 312.09851 178.916338 
L 312.562965 178.873156 
L 313.027421 177.56102 
L 313.491877 175.234238 
L 313.956332 175.392499 
L 314.420788 178.279126 
L 314.885244 177.52381 
L 315.3497 174.514283 
L 315.814155 176.27275 
L 316.278611 173.995984 
L 316.743067 174.144892 
L 317.207522 178.071622 
L 317.671978 177.611151 
L 318.136434 175.095804 
L 318.60089 173.9009 
L 319.065345 174.200337 
L 319.529801 176.948888 
L 319.994257 179.021078 
L 320.458712 179.507856 
L 320.923168 177.513643 
L 321.387624 176.924217 
L 321.85208 175.794688 
L 322.316535 176.062558 
L 322.780991 175.456399 
L 323.245447 173.102537 
L 323.709902 171.44324 
L 324.174358 172.016244 
L 325.10327 179.808927 
L 325.567725 180.917813 
L 326.496637 175.300021 
L 326.961092 176.479533 
L 327.425548 175.999032 
L 327.890004 173.922338 
L 328.818915 175.808796 
L 329.283371 175.54048 
L 329.747827 177.338042 
L 330.212282 176.044039 
L 330.676738 176.91737 
L 331.141194 181.175945 
L 331.60565 181.263681 
L 332.070105 180.100858 
L 332.534561 180.690938 
L 332.999017 182.278862 
L 333.927928 184.474367 
L 334.392384 182.574148 
L 334.85684 177.896003 
L 335.321295 177.940049 
L 336.250207 180.161623 
L 336.714663 182.578425 
L 337.179118 184.280954 
L 337.643574 183.631167 
L 338.572485 181.994295 
L 339.036941 181.453754 
L 339.501397 181.719377 
L 340.430308 175.676834 
L 340.894764 177.106492 
L 341.35922 180.095024 
L 341.823675 180.998082 
L 342.288131 180.129604 
L 342.752587 181.184997 
L 343.217043 183.750943 
L 343.681498 184.926981 
L 344.145954 186.441441 
L 344.61041 187.388129 
L 345.074865 184.096465 
L 345.539321 182.127902 
L 346.003777 184.598343 
L 346.468233 184.969215 
L 346.932688 183.159722 
L 347.8616 187.28788 
L 348.326055 185.78891 
L 349.254967 184.454354 
L 349.719423 179.961374 
L 350.183878 178.889523 
L 351.11279 181.858515 
L 351.577245 183.898774 
L 352.041701 183.11261 
L 352.506157 180.310553 
L 352.970613 176.119115 
L 353.435068 177.897175 
L 353.899524 182.257498 
L 354.36398 181.789377 
L 355.292891 184.745283 
L 355.757347 184.830536 
L 356.221803 183.471305 
L 356.686258 182.546962 
L 357.150714 183.755137 
L 358.544081 191.756745 
L 359.008537 192.573016 
L 359.472993 190.943479 
L 359.937448 188.256002 
L 360.401904 187.448047 
L 360.86636 191.036346 
L 361.330815 188.332435 
L 361.795271 184.108304 
L 362.259727 186.931213 
L 362.724183 187.529404 
L 363.188638 182.088164 
L 363.653094 181.66651 
L 364.11755 182.91335 
L 364.582005 180.531978 
L 365.046461 181.539353 
L 365.510917 187.017696 
L 365.975373 185.711291 
L 366.439828 179.241417 
L 366.904284 175.998161 
L 367.36874 174.833481 
L 367.833195 176.742825 
L 368.762107 182.209933 
L 369.226563 183.201789 
L 369.691018 183.205363 
L 370.155474 184.802121 
L 370.61993 187.28033 
L 371.084385 187.604657 
L 371.548841 185.514891 
L 372.013297 181.582104 
L 372.477753 183.588353 
L 372.942208 186.328465 
L 373.406664 184.044482 
L 373.87112 182.433737 
L 374.335575 182.760163 
L 374.800031 182.36516 
L 375.728943 186.189087 
L 376.193398 186.031422 
L 376.657854 185.13126 
L 377.12231 184.545073 
L 377.586766 181.87048 
L 378.051221 180.039828 
L 378.515677 179.290365 
L 378.980133 180.661423 
L 379.444588 180.768436 
L 379.909044 182.187181 
L 380.3735 182.736105 
L 381.302411 188.816975 
L 381.766867 188.399097 
L 382.231323 187.497115 
L 382.695778 187.297659 
L 383.160234 191.015279 
L 384.089146 183.011882 
L 384.553601 183.552329 
L 385.018057 186.342345 
L 385.946968 190.028014 
L 386.87588 189.621108 
L 387.340336 191.222977 
L 387.804791 193.684113 
L 388.269247 191.041285 
L 388.733703 185.681514 
L 389.198158 184.865942 
L 389.662614 187.554033 
L 390.12707 186.924784 
L 390.591526 184.39796 
L 391.055981 185.034877 
L 391.984893 191.79915 
L 392.449348 191.890962 
L 392.913804 194.617791 
L 393.37826 195.270678 
L 393.842716 193.607547 
L 394.307171 193.714092 
L 394.771627 194.054664 
L 395.236083 194.696128 
L 396.164994 198.061724 
L 397.093906 193.22194 
L 397.558361 196.789376 
L 398.022817 197.129593 
L 398.487273 193.574253 
L 398.487273 193.574253 
" clip-path="url(#p3c9e772e6c)" style="fill: none; stroke: #0000ff; stroke-width: 2; stroke-linecap: square"/>
   </g>
   <g id="line2d_33">
    <path d="M 73.832727 264.897185 
L 74.297183 259.945382 
L 74.761639 258.85908 
L 75.226094 257.04617 
L 76.619462 269.138927 
L 77.083917 269.891542 
L 77.548373 269.971958 
L 78.012829 271.645433 
L 78.94174 282.339479 
L 79.406196 281.731133 
L 79.870652 277.798497 
L 80.335107 275.653252 
L 80.799563 276.945274 
L 81.264019 276.391069 
L 81.728474 277.476761 
L 82.19293 279.644017 
L 82.657386 280.566877 
L 83.121842 279.514256 
L 83.586297 276.953644 
L 84.050753 276.972077 
L 84.515209 277.987421 
L 84.979664 278.240771 
L 85.44412 273.88212 
L 85.908576 267.237952 
L 86.373032 263.811824 
L 87.301943 269.386671 
L 87.766399 269.481789 
L 88.230854 269.843292 
L 88.69531 269.395558 
L 89.159766 269.217097 
L 89.624222 270.862941 
L 91.017589 274.004064 
L 91.482044 273.166748 
L 91.9465 270.60734 
L 92.410956 269.169347 
L 93.339867 277.203342 
L 94.268779 272.045547 
L 94.733234 270.833725 
L 95.19769 276.712201 
L 95.662146 278.952732 
L 96.126602 278.456429 
L 97.055513 276.192154 
L 97.519969 272.49739 
L 97.984425 270.834587 
L 98.44888 274.424089 
L 98.913336 276.579903 
L 99.377792 277.889908 
L 99.842247 280.437394 
L 100.306703 280.853555 
L 100.771159 278.024771 
L 101.235615 278.950976 
L 102.164526 286.220244 
L 102.628982 284.119698 
L 103.093437 281.343333 
L 104.486805 288.204959 
L 105.415716 286.3334 
L 106.344627 281.270419 
L 106.809083 280.596794 
L 107.273539 281.865781 
L 107.737995 284.35765 
L 108.20245 285.572784 
L 108.666906 289.438799 
L 109.131362 290.870164 
L 109.595817 286.710465 
L 110.060273 284.029138 
L 110.524729 282.960556 
L 110.989185 284.891558 
L 111.45364 283.295837 
L 111.918096 284.658688 
L 112.382552 290.668245 
L 112.847007 289.931411 
L 113.311463 286.879281 
L 113.775919 287.059561 
L 114.70483 295.369645 
L 115.169286 293.397674 
L 115.633742 290.052594 
L 116.098197 287.903757 
L 117.027109 287.470872 
L 117.491565 288.364475 
L 117.95602 287.865266 
L 118.420476 288.658201 
L 118.884932 288.201517 
L 119.349387 286.389365 
L 119.813843 283.687985 
L 120.278299 282.703086 
L 121.20721 288.551824 
L 121.671666 285.452306 
L 122.136122 279.849061 
L 122.600577 277.86545 
L 123.065033 276.65953 
L 123.529489 274.869481 
L 123.993945 275.166999 
L 124.4584 276.315692 
L 124.922856 278.510336 
L 125.387312 282.190887 
L 125.851767 282.266802 
L 127.70959 264.009161 
L 128.174046 264.875226 
L 128.638502 269.256833 
L 129.102957 275.884183 
L 129.567413 276.713131 
L 130.96078 265.926049 
L 131.425236 265.912538 
L 131.889692 265.230281 
L 132.354147 263.59563 
L 132.818603 263.763158 
L 133.283059 263.577403 
L 133.747515 262.872871 
L 134.676426 259.710481 
L 135.140882 259.363306 
L 136.069793 261.813423 
L 136.534249 261.976024 
L 136.998705 260.91425 
L 137.46316 259.523731 
L 137.927616 259.521553 
L 138.392072 258.819899 
L 138.856528 255.2661 
L 139.320983 250.443655 
L 139.785439 246.924711 
L 140.249895 245.600076 
L 140.71435 242.790573 
L 141.178806 242.826436 
L 141.643262 242.718766 
L 142.107718 239.795045 
L 142.572173 239.716533 
L 143.036629 242.551388 
L 143.501085 243.304725 
L 143.96554 242.589614 
L 144.429996 240.817375 
L 144.894452 238.408405 
L 145.358908 239.282053 
L 145.823363 239.562503 
L 146.287819 239.096359 
L 147.21673 236.072256 
L 147.681186 235.249242 
L 148.610098 236.92941 
L 149.074553 239.620978 
L 150.003465 250.148615 
L 150.46792 251.565522 
L 151.396832 243.328323 
L 151.861288 242.323839 
L 152.325743 242.768299 
L 152.790199 241.891237 
L 153.254655 241.721533 
L 153.71911 241.216793 
L 154.183566 239.666404 
L 155.112478 245.212341 
L 155.576933 245.235262 
L 156.041389 248.972561 
L 156.505845 248.512763 
L 156.9703 246.732421 
L 157.434756 245.615289 
L 157.899212 245.624027 
L 158.363668 247.83641 
L 158.828123 246.677839 
L 159.292579 243.120149 
L 159.757035 237.437904 
L 160.22149 235.514585 
L 160.685946 235.688258 
L 161.150402 233.004762 
L 161.614858 233.888243 
L 162.079313 238.292238 
L 162.543769 238.400857 
L 163.008225 236.354818 
L 163.47268 232.397869 
L 163.937136 227.367925 
L 164.401592 223.973824 
L 164.866048 224.969306 
L 165.330503 230.157191 
L 165.794959 232.769415 
L 166.72387 234.288003 
L 167.188326 231.452731 
L 168.117238 227.246667 
L 168.581693 226.442012 
L 169.510605 234.099044 
L 169.97506 234.145064 
L 170.439516 234.315722 
L 170.903972 233.61891 
L 171.368428 231.929155 
L 171.832883 232.357815 
L 172.297339 231.976649 
L 172.761795 230.343109 
L 173.22625 225.784906 
L 174.155162 212.087342 
L 174.619618 207.289499 
L 175.084073 200.855507 
L 175.548529 197.88706 
L 176.47744 203.036243 
L 176.941896 200.356601 
L 177.406352 199.768324 
L 177.870808 199.962022 
L 178.335263 199.483786 
L 178.799719 197.638674 
L 179.264175 192.880483 
L 179.728631 186.403103 
L 180.193086 173.59935 
L 180.657542 157.236917 
L 181.121998 148.054124 
L 181.586453 142.811261 
L 182.050909 142.593867 
L 182.515365 141.533693 
L 183.444276 126.559478 
L 184.373188 106.491098 
L 184.837643 96.963961 
L 185.766555 74.617651 
L 186.231011 66.336066 
L 187.159922 55.326202 
L 187.624378 53.568 
L 188.088833 55.174718 
L 189.017745 60.301045 
L 189.482201 65.580383 
L 194.591213 166.739352 
L 195.984581 187.399394 
L 196.449036 198.110163 
L 196.913492 204.363874 
L 197.842403 202.028824 
L 198.771315 208.773924 
L 199.235771 208.075429 
L 199.700226 204.953357 
L 200.164682 204.460411 
L 200.629138 205.188126 
L 201.093593 203.673203 
L 202.486961 213.829711 
L 202.951416 215.024237 
L 203.415872 214.839294 
L 203.880328 211.057898 
L 204.344783 210.212463 
L 204.809239 215.036127 
L 205.273695 218.152701 
L 206.202606 216.354528 
L 206.667062 217.896487 
L 207.131518 218.960291 
L 207.595973 218.096967 
L 208.060429 217.583016 
L 208.524885 219.484422 
L 208.989341 224.075352 
L 209.453796 224.754619 
L 209.918252 219.225479 
L 210.382708 217.668193 
L 210.847163 222.88933 
L 211.311619 225.9898 
L 212.240531 229.556888 
L 212.704986 229.800357 
L 213.633898 231.351212 
L 214.098353 232.617889 
L 214.562809 232.570585 
L 215.027265 230.373831 
L 215.491721 229.156616 
L 215.956176 228.92726 
L 217.349544 233.544891 
L 217.813999 238.341439 
L 218.278455 238.439541 
L 218.742911 237.492223 
L 219.207366 240.629944 
L 219.671822 241.106135 
L 220.600734 228.700356 
L 221.065189 227.640523 
L 221.529645 229.609373 
L 221.994101 234.056712 
L 222.923012 246.8701 
L 223.387468 246.088102 
L 223.851924 242.991469 
L 224.316379 237.111679 
L 224.780835 234.12007 
L 225.709746 231.40013 
L 226.174202 235.738331 
L 226.638658 238.65918 
L 227.103114 237.295414 
L 227.567569 235.122861 
L 228.032025 233.749434 
L 228.496481 234.006113 
L 228.960936 234.766276 
L 229.425392 235.979293 
L 229.889848 232.536068 
L 230.354304 227.821386 
L 230.818759 226.470565 
L 231.283215 225.859272 
L 231.747671 224.751368 
L 232.212126 224.565617 
L 232.676582 223.710392 
L 233.141038 223.728085 
L 233.605494 222.340181 
L 234.069949 219.955317 
L 234.534405 220.809724 
L 234.998861 225.486133 
L 235.463316 224.353365 
L 235.927772 219.756147 
L 237.321139 209.460398 
L 237.785595 209.083864 
L 238.250051 207.313447 
L 238.714506 208.24451 
L 239.178962 209.882102 
L 239.643418 209.921345 
L 241.036785 208.001105 
L 241.501241 206.080466 
L 241.965696 203.2172 
L 242.430152 199.538279 
L 242.894608 198.85592 
L 243.359064 203.675573 
L 243.823519 206.616906 
L 244.287975 203.523261 
L 244.752431 205.07179 
L 245.216886 206.185814 
L 246.145798 201.003989 
L 246.610254 200.266429 
L 247.074709 201.017096 
L 247.539165 200.670445 
L 248.003621 195.540124 
L 248.468076 192.063943 
L 248.932532 190.499835 
L 249.396988 192.577789 
L 249.861444 188.41774 
L 250.790355 176.678402 
L 251.254811 176.79379 
L 251.719266 181.651803 
L 252.183722 184.743953 
L 252.648178 182.546243 
L 253.112634 178.615878 
L 253.577089 177.94294 
L 254.506001 170.665544 
L 254.970456 172.269485 
L 255.899368 184.087896 
L 256.363824 185.228996 
L 257.292735 176.547983 
L 257.757191 177.597813 
L 258.221647 180.61347 
L 258.686102 179.884736 
L 259.150558 180.964823 
L 259.615014 183.618901 
L 260.079469 183.782909 
L 260.543925 180.360966 
L 261.008381 175.961727 
L 261.472837 177.830516 
L 261.937292 182.797072 
L 262.401748 184.398729 
L 262.866204 184.001933 
L 263.330659 179.877087 
L 263.795115 177.725607 
L 264.259571 179.368823 
L 264.724027 181.80932 
L 265.188482 182.033992 
L 265.652938 181.804723 
L 266.117394 183.449713 
L 266.581849 184.557657 
L 267.046305 184.25214 
L 267.510761 181.100791 
L 267.975217 179.401928 
L 268.439672 182.996812 
L 268.904128 183.193386 
L 269.368584 182.932275 
L 269.833039 183.476971 
L 270.761951 186.508079 
L 271.226407 184.270506 
L 271.690862 179.771288 
L 272.155318 178.232297 
L 272.619774 178.875663 
L 273.084229 178.890173 
L 273.548685 179.257824 
L 274.013141 177.330249 
L 274.477597 172.371734 
L 274.942052 169.094273 
L 275.406508 167.288332 
L 275.870964 168.793178 
L 276.335419 176.328726 
L 276.799875 180.617865 
L 277.264331 179.604169 
L 278.193242 165.913155 
L 278.657698 163.759793 
L 279.586609 169.913672 
L 280.515521 165.130911 
L 280.979977 165.039125 
L 281.444432 167.022025 
L 282.837799 180.691642 
L 283.302255 179.362702 
L 283.766711 173.680687 
L 284.231167 170.844602 
L 284.695622 172.139968 
L 285.160078 175.507662 
L 285.624534 176.532979 
L 286.088989 170.633695 
L 286.553445 169.210488 
L 287.017901 173.435642 
L 287.482357 175.383046 
L 287.946812 178.97721 
L 288.411268 180.48132 
L 288.875724 177.749281 
L 289.340179 177.84952 
L 289.804635 176.198318 
L 290.269091 174.032169 
L 290.733547 170.868063 
L 291.198002 168.762642 
L 291.662458 167.387021 
L 292.126914 161.418818 
L 292.591369 157.942359 
L 293.055825 160.303775 
L 293.520281 168.234273 
L 293.984737 172.704115 
L 294.449192 169.179139 
L 294.913648 163.023182 
L 295.378104 161.96689 
L 295.84256 164.600837 
L 296.307015 166.355883 
L 296.771471 167.317107 
L 297.235927 166.745624 
L 297.700382 164.966857 
L 298.164838 162.656175 
L 298.629294 162.52673 
L 299.09375 164.524288 
L 299.558205 168.412448 
L 300.022661 168.681797 
L 300.487117 168.537359 
L 300.951572 165.784443 
L 301.416028 165.160485 
L 301.880484 169.441748 
L 302.34494 171.241078 
L 303.273851 170.263034 
L 303.738307 171.46934 
L 304.202762 174.772706 
L 304.667218 176.23486 
L 305.59613 170.924862 
L 306.060585 170.797119 
L 306.525041 172.296276 
L 306.989497 172.908292 
L 307.453952 173.108775 
L 307.918408 175.242688 
L 308.382864 174.534483 
L 308.84732 173.170671 
L 309.311775 173.501702 
L 309.776231 175.666152 
L 310.240687 176.638741 
L 310.705142 176.355569 
L 311.169598 174.10472 
L 311.634054 170.189428 
L 312.09851 167.761986 
L 312.562965 164.700564 
L 313.027421 163.535081 
L 313.956332 166.986116 
L 314.885244 172.262832 
L 315.814155 175.65887 
L 316.278611 177.711564 
L 316.743067 177.332403 
L 317.207522 173.118279 
L 317.671978 172.515402 
L 318.136434 176.236272 
L 318.60089 174.890496 
L 319.529801 170.887899 
L 319.994257 168.930636 
L 320.923168 176.712638 
L 321.387624 178.427835 
L 321.85208 177.896358 
L 322.316535 179.252857 
L 322.780991 177.471974 
L 323.709902 168.784066 
L 324.174358 162.68077 
L 324.638814 162.246049 
L 325.10327 164.526931 
L 325.567725 161.763971 
L 326.032181 161.384754 
L 326.496637 164.481424 
L 326.961092 164.343235 
L 327.890004 167.348383 
L 328.35446 169.95808 
L 328.818915 171.359644 
L 329.283371 171.098529 
L 329.747827 171.632969 
L 330.212282 165.419632 
L 330.676738 161.838952 
L 331.141194 166.089361 
L 331.60565 169.214164 
L 332.070105 169.660236 
L 332.999017 165.376185 
L 333.927928 171.524856 
L 334.392384 167.274021 
L 334.85684 164.452639 
L 335.321295 166.382917 
L 335.785751 166.197366 
L 337.179118 157.649046 
L 337.643574 157.558009 
L 338.10803 158.495397 
L 338.572485 161.050521 
L 339.036941 161.329812 
L 339.501397 162.900121 
L 339.965853 166.313356 
L 340.430308 166.251194 
L 341.35922 154.255592 
L 341.823675 158.486885 
L 342.288131 167.69594 
L 342.752587 167.96883 
L 343.217043 162.064182 
L 343.681498 158.472373 
L 344.145954 159.663341 
L 344.61041 158.869894 
L 345.074865 155.926809 
L 345.539321 156.46341 
L 346.003777 157.826555 
L 346.468233 155.488514 
L 346.932688 155.518131 
L 347.397144 157.699611 
L 347.8616 158.677712 
L 348.326055 158.835021 
L 348.790511 161.327391 
L 349.254967 158.724993 
L 349.719423 152.676988 
L 350.183878 151.920968 
L 351.11279 158.614525 
L 352.041701 159.800575 
L 352.970613 165.855215 
L 353.899524 169.558574 
L 354.36398 167.647456 
L 354.828435 166.505542 
L 355.292891 168.161551 
L 356.221803 167.143831 
L 356.686258 168.920395 
L 357.61517 162.294551 
L 358.079625 164.202634 
L 358.544081 164.124947 
L 359.008537 162.88566 
L 359.472993 162.502946 
L 359.937448 162.948394 
L 360.401904 163.197325 
L 361.330815 158.857303 
L 361.795271 162.515851 
L 362.259727 162.058897 
L 362.724183 158.004572 
L 363.188638 157.828471 
L 363.653094 162.442535 
L 364.11755 165.521591 
L 364.582005 165.451061 
L 365.046461 167.943312 
L 365.510917 167.611984 
L 365.975373 164.702426 
L 366.439828 166.445772 
L 366.904284 172.390068 
L 367.36874 172.753689 
L 367.833195 170.034884 
L 368.297651 171.107674 
L 368.762107 172.976735 
L 369.226563 171.493405 
L 369.691018 168.7781 
L 370.155474 168.642097 
L 370.61993 165.211874 
L 371.084385 160.521035 
L 371.548841 160.930261 
L 372.013297 162.329768 
L 372.477753 160.686093 
L 372.942208 162.38725 
L 373.406664 162.765642 
L 373.87112 165.071824 
L 374.335575 165.025183 
L 375.264487 160.715685 
L 375.728943 160.274207 
L 376.193398 158.820174 
L 376.657854 158.149683 
L 377.586766 163.08205 
L 378.051221 165.30919 
L 378.515677 166.332062 
L 378.980133 163.486623 
L 379.444588 162.978382 
L 380.3735 172.175139 
L 380.837956 172.794163 
L 381.302411 172.052719 
L 381.766867 171.619063 
L 382.231323 169.483463 
L 382.695778 164.874476 
L 383.160234 163.929669 
L 383.62469 167.241308 
L 384.089146 166.986834 
L 384.553601 165.907305 
L 385.018057 163.164596 
L 385.482513 157.50761 
L 385.946968 155.620347 
L 386.411424 157.236562 
L 386.87588 160.340614 
L 387.340336 161.902246 
L 387.804791 162.362073 
L 388.269247 165.717835 
L 388.733703 166.992811 
L 390.12707 159.395142 
L 390.591526 158.179094 
L 391.055981 160.054075 
L 391.520437 162.71387 
L 391.984893 163.287162 
L 392.449348 161.042362 
L 392.913804 160.534565 
L 393.37826 161.221393 
L 393.842716 164.318531 
L 394.307171 168.188082 
L 394.771627 169.088935 
L 395.236083 169.647948 
L 395.700538 168.015496 
L 396.62945 158.104916 
L 397.093906 153.878484 
L 397.558361 152.703378 
L 398.487273 156.745841 
L 398.487273 156.745841 
" clip-path="url(#p3c9e772e6c)" style="fill: none; stroke: #ff0000; stroke-width: 2; stroke-linecap: square"/>
   </g>
   <g id="line2d_34">
    <path d="M 166.72387 307.584 
L 166.72387 41.472 
" clip-path="url(#p3c9e772e6c)" style="fill: none; stroke-dasharray: 3.7,1.6; stroke-dashoffset: 0; stroke: #000000"/>
   </g>
   <g id="patch_3">
    <path d="M 57.6 307.584 
L 57.6 41.472 
" style="fill: none; stroke: #000000; stroke-width: 0.8; stroke-linejoin: miter; stroke-linecap: square"/>
   </g>
   <g id="patch_4">
    <path d="M 414.72 307.584 
L 414.72 41.472 
" style="fill: none; stroke: #000000; stroke-width: 0.8; stroke-linejoin: miter; stroke-linecap: square"/>
   </g>
   <g id="patch_5">
    <path d="M 57.6 307.584 
L 414.72 307.584 
" style="fill: none; stroke: #000000; stroke-width: 0.8; stroke-linejoin: miter; stroke-linecap: square"/>
   </g>
   <g id="patch_6">
    <path d="M 57.6 41.472 
L 414.72 41.472 
" style="fill: none; stroke: #000000; stroke-width: 0.8; stroke-linejoin: miter; stroke-linecap: square"/>
   </g>
   <g id="text_18">
    <!-- Monkeyf - Baseline Attention Effect -->
    <g transform="translate(130.61625 35.472) scale(0.12 -0.12)">
     <defs>
      <path id="DejaVuSans-6e" d="M 3513 2113 
L 3513 0 
L 2938 0 
L 2938 2094 
Q 2938 2591 2744 2837 
Q 2550 3084 2163 3084 
Q 1697 3084 1428 2787 
Q 1159 2491 1159 1978 
L 1159 0 
L 581 0 
L 581 3500 
L 1159 3500 
L 1159 2956 
Q 1366 3272 1645 3428 
Q 1925 3584 2291 3584 
Q 2894 3584 3203 3211 
Q 3513 2838 3513 2113 
z
" transform="scale(0.015625)"/>
      <path id="DejaVuSans-6b" d="M 581 4863 
L 1159 4863 
L 1159 1991 
L 2875 3500 
L 3609 3500 
L 1753 1863 
L 3688 0 
L 2938 0 
L 1159 1709 
L 1159 0 
L 581 0 
L 581 4863 
z
" transform="scale(0.015625)"/>
      <path id="DejaVuSans-79" d="M 2059 -325 
Q 1816 -950 1584 -1140 
Q 1353 -1331 966 -1331 
L 506 -1331 
L 506 -850 
L 844 -850 
Q 1081 -850 1212 -737 
Q 1344 -625 1503 -206 
L 1606 56 
L 191 3500 
L 800 3500 
L 1894 763 
L 2988 3500 
L 3597 3500 
L 2059 -325 
z
" transform="scale(0.015625)"/>
      <path id="DejaVuSans-66" d="M 2375 4863 
L 2375 4384 
L 1825 4384 
Q 1516 4384 1395 4259 
Q 1275 4134 1275 3809 
L 1275 3500 
L 2222 3500 
L 2222 3053 
L 1275 3053 
L 1275 0 
L 697 0 
L 697 3053 
L 147 3053 
L 147 3500 
L 697 3500 
L 697 3744 
Q 697 4328 969 4595 
Q 1241 4863 1831 4863 
L 2375 4863 
z
" transform="scale(0.015625)"/>
      <path id="DejaVuSans-2d" d="M 313 2009 
L 1997 2009 
L 1997 1497 
L 313 1497 
L 313 2009 
z
" transform="scale(0.015625)"/>
      <path id="DejaVuSans-42" d="M 1259 2228 
L 1259 519 
L 2272 519 
Q 2781 519 3026 730 
Q 3272 941 3272 1375 
Q 3272 1813 3026 2020 
Q 2781 2228 2272 2228 
L 1259 2228 
z
M 1259 4147 
L 1259 2741 
L 2194 2741 
Q 2656 2741 2882 2914 
Q 3109 3088 3109 3444 
Q 3109 3797 2882 3972 
Q 2656 4147 2194 4147 
L 1259 4147 
z
M 628 4666 
L 2241 4666 
Q 2963 4666 3353 4366 
Q 3744 4066 3744 3513 
Q 3744 3084 3544 2831 
Q 3344 2578 2956 2516 
Q 3422 2416 3680 2098 
Q 3938 1781 3938 1306 
Q 3938 681 3513 340 
Q 3088 0 2303 0 
L 628 0 
L 628 4666 
z
" transform="scale(0.015625)"/>
      <path id="DejaVuSans-74" d="M 1172 4494 
L 1172 3500 
L 2356 3500 
L 2356 3053 
L 1172 3053 
L 1172 1153 
Q 1172 725 1289 603 
Q 1406 481 1766 481 
L 2356 481 
L 2356 0 
L 1766 0 
Q 1100 0 847 248 
Q 594 497 594 1153 
L 594 3053 
L 172 3053 
L 172 3500 
L 594 3500 
L 594 4494 
L 1172 4494 
z
" transform="scale(0.015625)"/>
      <path id="DejaVuSans-45" d="M 628 4666 
L 3578 4666 
L 3578 4134 
L 1259 4134 
L 1259 2753 
L 3481 2753 
L 3481 2222 
L 1259 2222 
L 1259 531 
L 3634 531 
L 3634 0 
L 628 0 
L 628 4666 
z
" transform="scale(0.015625)"/>
      <path id="DejaVuSans-63" d="M 3122 3366 
L 3122 2828 
Q 2878 2963 2633 3030 
Q 2388 3097 2138 3097 
Q 1578 3097 1268 2742 
Q 959 2388 959 1747 
Q 959 1106 1268 751 
Q 1578 397 2138 397 
Q 2388 397 2633 464 
Q 2878 531 3122 666 
L 3122 134 
Q 2881 22 2623 -34 
Q 2366 -91 2075 -91 
Q 1284 -91 818 406 
Q 353 903 353 1747 
Q 353 2603 823 3093 
Q 1294 3584 2113 3584 
Q 2378 3584 2631 3529 
Q 2884 3475 3122 3366 
z
" transform="scale(0.015625)"/>
     </defs>
     <use xlink:href="#DejaVuSans-4d"/>
     <use xlink:href="#DejaVuSans-6f" transform="translate(86.279297 0)"/>
     <use xlink:href="#DejaVuSans-6e" transform="translate(147.460938 0)"/>
     <use xlink:href="#DejaVuSans-6b" transform="translate(210.839844 0)"/>
     <use xlink:href="#DejaVuSans-65" transform="translate(265.125 0)"/>
     <use xlink:href="#DejaVuSans-79" transform="translate(326.648438 0)"/>
     <use xlink:href="#DejaVuSans-66" transform="translate(385.828125 0)"/>
     <use xlink:href="#DejaVuSans-20" transform="translate(421.033203 0)"/>
     <use xlink:href="#DejaVuSans-2d" transform="translate(452.820312 0)"/>
     <use xlink:href="#DejaVuSans-20" transform="translate(488.904297 0)"/>
     <use xlink:href="#DejaVuSans-42" transform="translate(520.691406 0)"/>
     <use xlink:href="#DejaVuSans-61" transform="translate(589.294922 0)"/>
     <use xlink:href="#DejaVuSans-73" transform="translate(650.574219 0)"/>
     <use xlink:href="#DejaVuSans-65" transform="translate(702.673828 0)"/>
     <use xlink:href="#DejaVuSans-6c" transform="translate(764.197266 0)"/>
     <use xlink:href="#DejaVuSans-69" transform="translate(791.980469 0)"/>
     <use xlink:href="#DejaVuSans-6e" transform="translate(819.763672 0)"/>
     <use xlink:href="#DejaVuSans-65" transform="translate(883.142578 0)"/>
     <use xlink:href="#DejaVuSans-20" transform="translate(944.666016 0)"/>
     <use xlink:href="#DejaVuSans-41" transform="translate(976.453125 0)"/>
     <use xlink:href="#DejaVuSans-74" transform="translate(1043.111328 0)"/>
     <use xlink:href="#DejaVuSans-74" transform="translate(1082.320312 0)"/>
     <use xlink:href="#DejaVuSans-65" transform="translate(1121.529297 0)"/>
     <use xlink:href="#DejaVuSans-6e" transform="translate(1183.052734 0)"/>
     <use xlink:href="#DejaVuSans-74" transform="translate(1246.431641 0)"/>
     <use xlink:href="#DejaVuSans-69" transform="translate(1285.640625 0)"/>
     <use xlink:href="#DejaVuSans-6f" transform="translate(1313.423828 0)"/>
     <use xlink:href="#DejaVuSans-6e" transform="translate(1374.605469 0)"/>
     <use xlink:href="#DejaVuSans-20" transform="translate(1437.984375 0)"/>
     <use xlink:href="#DejaVuSans-45" transform="translate(1469.771484 0)"/>
     <use xlink:href="#DejaVuSans-66" transform="translate(1532.955078 0)"/>
     <use xlink:href="#DejaVuSans-66" transform="translate(1568.160156 0)"/>
     <use xlink:href="#DejaVuSans-65" transform="translate(1603.365234 0)"/>
     <use xlink:href="#DejaVuSans-63" transform="translate(1664.888672 0)"/>
     <use xlink:href="#DejaVuSans-74" transform="translate(1719.869141 0)"/>
    </g>
   </g>
   <g id="legend_1">
    <g id="patch_7">
     <path d="M 316.754375 93.506375 
L 407.72 93.506375 
Q 409.72 93.506375 409.72 91.506375 
L 409.72 48.472 
Q 409.72 46.472 407.72 46.472 
L 316.754375 46.472 
Q 314.754375 46.472 314.754375 48.472 
L 314.754375 91.506375 
Q 314.754375 93.506375 316.754375 93.506375 
z
" style="fill: #ffffff; opacity: 0.8; stroke: #cccccc; stroke-linejoin: miter"/>
    </g>
    <g id="line2d_35">
     <path d="M 318.754375 54.570438 
L 328.754375 54.570438 
L 338.754375 54.570438 
" style="fill: none; stroke: #808080; stroke-opacity: 0.7; stroke-width: 1.5; stroke-linecap: square"/>
    </g>
    <g id="text_19">
     <!-- All Trials -->
     <g transform="translate(346.754375 58.070438) scale(0.1 -0.1)">
      <use xlink:href="#DejaVuSans-41"/>
      <use xlink:href="#DejaVuSans-6c" transform="translate(68.408203 0)"/>
      <use xlink:href="#DejaVuSans-6c" transform="translate(96.191406 0)"/>
      <use xlink:href="#DejaVuSans-20" transform="translate(123.974609 0)"/>
      <use xlink:href="#DejaVuSans-54" transform="translate(155.761719 0)"/>
      <use xlink:href="#DejaVuSans-72" transform="translate(202.095703 0)"/>
      <use xlink:href="#DejaVuSans-69" transform="translate(243.208984 0)"/>
      <use xlink:href="#DejaVuSans-61" transform="translate(270.992188 0)"/>
      <use xlink:href="#DejaVuSans-6c" transform="translate(332.271484 0)"/>
      <use xlink:href="#DejaVuSans-73" transform="translate(360.054688 0)"/>
     </g>
    </g>
    <g id="line2d_36">
     <path d="M 318.754375 69.248563 
L 328.754375 69.248563 
L 338.754375 69.248563 
" style="fill: none; stroke: #0000ff; stroke-width: 2; stroke-linecap: square"/>
    </g>
    <g id="text_20">
     <!-- Unattended -->
     <g transform="translate(346.754375 72.748563) scale(0.1 -0.1)">
      <use xlink:href="#DejaVuSans-55"/>
      <use xlink:href="#DejaVuSans-6e" transform="translate(73.193359 0)"/>
      <use xlink:href="#DejaVuSans-61" transform="translate(136.572266 0)"/>
      <use xlink:href="#DejaVuSans-74" transform="translate(197.851562 0)"/>
      <use xlink:href="#DejaVuSans-74" transform="translate(237.060547 0)"/>
      <use xlink:href="#DejaVuSans-65" transform="translate(276.269531 0)"/>
      <use xlink:href="#DejaVuSans-6e" transform="translate(337.792969 0)"/>
      <use xlink:href="#DejaVuSans-64" transform="translate(401.171875 0)"/>
      <use xlink:href="#DejaVuSans-65" transform="translate(464.648438 0)"/>
      <use xlink:href="#DejaVuSans-64" transform="translate(526.171875 0)"/>
     </g>
    </g>
    <g id="line2d_37">
     <path d="M 318.754375 83.926688 
L 328.754375 83.926688 
L 338.754375 83.926688 
" style="fill: none; stroke: #ff0000; stroke-width: 2; stroke-linecap: square"/>
    </g>
    <g id="text_21">
     <!-- Attended -->
     <g transform="translate(346.754375 87.426688) scale(0.1 -0.1)">
      <use xlink:href="#DejaVuSans-41"/>
      <use xlink:href="#DejaVuSans-74" transform="translate(66.658203 0)"/>
      <use xlink:href="#DejaVuSans-74" transform="translate(105.867188 0)"/>
      <use xlink:href="#DejaVuSans-65" transform="translate(145.076172 0)"/>
      <use xlink:href="#DejaVuSans-6e" transform="translate(206.599609 0)"/>
      <use xlink:href="#DejaVuSans-64" transform="translate(269.978516 0)"/>
      <use xlink:href="#DejaVuSans-65" transform="translate(333.455078 0)"/>
      <use xlink:href="#DejaVuSans-64" transform="translate(394.978516 0)"/>
     </g>
    </g>
   </g>
  </g>
 </g>
 <defs>
  <clipPath id="p3c9e772e6c">
   <rect x="57.6" y="41.472" width="357.12" height="266.112"/>
  </clipPath>
 </defs>
</svg>
